<svg width="96" height="27" viewBox="0 0 96 27" fill="none" xmlns="http://www.w3.org/2000/svg">
<path d="M0.732422 21.1543C0.732422 19.9824 0.810547 18.8203 0.966797 17.668C1.12305 16.5156 1.25977 15.3633 1.37695 14.2109C1.37695 14.1523 1.38672 14.0254 1.40625 13.8301C1.42578 13.6152 1.44531 13.3906 1.46484 13.1562C1.50391 12.9219 1.5332 12.707 1.55273 12.5117C1.5918 12.2969 1.61133 12.1602 1.61133 12.1016V11.9844L2.8418 2.84375C2.80273 2.45312 2.86133 2.11133 3.01758 1.81836C3.19336 1.50586 3.50586 1.34961 3.95508 1.34961C4.44336 1.29102 4.84375 1.35938 5.15625 1.55469C5.48828 1.73047 5.76172 1.96484 5.97656 2.25781C6.19141 2.55078 6.36719 2.87305 6.50391 3.22461C6.64062 3.57617 6.78711 3.89844 6.94336 4.19141C7.04102 4.46484 7.1582 4.78711 7.29492 5.1582C7.45117 5.5293 7.62695 5.99805 7.82227 6.56445C8.03711 7.13086 8.28125 7.82422 8.55469 8.64453C8.84766 9.46484 9.17969 10.4609 9.55078 11.6328L9.66797 11.75C9.80469 11.6719 10.0586 11.5449 10.4297 11.3691C10.8203 11.1934 11.2207 11.0078 11.6309 10.8125C12.0605 10.6172 12.4609 10.4316 12.832 10.2559C13.2031 10.0801 13.4668 9.96289 13.623 9.9043C13.6426 9.86523 13.6914 9.83594 13.7695 9.81641C13.8672 9.77734 13.9355 9.74805 13.9746 9.72852H14.0332C14.2285 9.72852 14.375 9.80664 14.4727 9.96289C14.5703 10.0996 14.6191 10.2363 14.6191 10.373C14.6191 10.5879 14.5703 10.7734 14.4727 10.9297C14.375 11.0859 14.2578 11.2324 14.1211 11.3691C14.0039 11.4863 13.8672 11.6035 13.7109 11.7207C13.5742 11.8379 13.4668 11.9648 13.3887 12.1016L10.4883 13.5664C10.4102 13.6641 10.3711 13.7422 10.3711 13.8008C10.3711 13.957 10.4492 14.2012 10.6055 14.5332C10.7812 14.8652 10.918 15.1289 11.0156 15.3242C11.0742 15.4414 11.1719 15.6562 11.3086 15.9688C11.4453 16.2812 11.5918 16.6035 11.748 16.9355C11.9043 17.2676 12.0508 17.5898 12.1875 17.9023C12.3438 18.1953 12.4512 18.4004 12.5098 18.5176V18.6055C12.5098 19.3086 12.1582 19.6602 11.4551 19.6602C11.2402 19.6602 11.0156 19.6406 10.7812 19.6016C10.5469 19.543 10.3711 19.3965 10.2539 19.1621L8.29102 14.9727H8.02734C7.28516 15.5391 6.49414 16.0957 5.6543 16.6426C4.81445 17.1895 3.95508 17.6582 3.07617 18.0488C2.93945 18.752 2.85156 19.4648 2.8125 20.1875C2.79297 20.9102 2.80273 21.6328 2.8418 22.3555C2.68555 22.5703 2.5293 22.7363 2.37305 22.8535C2.2168 22.9512 2.00195 23 1.72852 23C1.45508 23 1.25 22.9414 1.11328 22.8242C0.976562 22.6875 0.878906 22.5312 0.820312 22.3555C0.761719 22.1602 0.732422 21.9551 0.732422 21.7402C0.732422 21.5254 0.732422 21.3301 0.732422 21.1543ZM3.33984 15.4707C3.92578 15.2363 4.49219 14.9238 5.03906 14.5332C5.60547 14.1426 6.14258 13.7812 6.65039 13.4492C6.70898 13.4102 6.77734 13.3711 6.85547 13.332C6.95312 13.293 7.04102 13.2441 7.11914 13.1855C7.19727 13.127 7.29492 13.0586 7.41211 12.9805V12.7461L4.7168 5.07031L4.59961 4.95312C4.54102 5.07031 4.46289 5.40234 4.36523 5.94922C4.28711 6.49609 4.18945 7.20898 4.07227 8.08789C3.97461 8.94727 3.85742 9.94336 3.7207 11.0762C3.60352 12.209 3.47656 13.4199 3.33984 14.709V15.4707ZM15.6738 13.2148V13.1562C15.6738 13 15.7227 12.8438 15.8203 12.6875C15.9375 12.5117 16.0547 12.3652 16.1719 12.248V10.7539C16.1719 9.13281 16.1426 7.55078 16.084 6.00781C16.0449 4.46484 15.9473 2.87305 15.791 1.23242C15.791 0.978516 15.8789 0.792969 16.0547 0.675781C16.2305 0.539063 16.416 0.470703 16.6113 0.470703C17.1582 0.373047 17.5684 0.5 17.8418 0.851562C18.1348 1.20312 18.3398 1.68164 18.457 2.28711C18.5742 2.89258 18.6328 3.57617 18.6328 4.33789C18.6328 5.08008 18.6133 5.80273 18.5742 6.50586C18.5547 7.20898 18.5449 7.83398 18.5449 8.38086C18.5449 8.92773 18.6133 9.29883 18.75 9.49414C19.0039 9.39648 19.1309 9.35742 19.1309 9.37695C19.1504 9.37695 19.1504 9.38672 19.1309 9.40625C19.1309 9.40625 19.1504 9.38672 19.1895 9.34766C19.248 9.28906 19.4336 9.14258 19.7461 8.9082C20.1758 8.57617 20.6738 8.37109 21.2402 8.29297C21.8262 8.19531 22.373 8.14648 22.8809 8.14648C24.0723 8.32227 24.9023 8.69336 25.3711 9.25977C25.8398 9.80664 26.0449 10.4902 25.9863 11.3105C25.9277 12.1113 25.6445 13.0098 25.1367 14.0059C24.6484 14.9824 24.0332 15.998 23.291 17.0527C22.5488 18.0879 21.7285 19.123 20.8301 20.1582C19.9316 21.1738 19.0625 22.1309 18.2227 23.0293C18.0469 23.0293 17.8418 23 17.6074 22.9414C17.3926 22.8828 17.1875 22.7949 16.9922 22.6777C16.7969 22.5605 16.6309 22.4141 16.4941 22.2383C16.3574 22.0625 16.2891 21.8574 16.2891 21.623V13.9766L15.6738 13.2148ZM18.75 15.4707C18.75 15.5293 18.75 15.666 18.75 15.8809C18.7695 16.0957 18.7891 16.3301 18.8086 16.584C18.8281 16.8184 18.8379 17.043 18.8379 17.2578C18.8574 17.4727 18.8672 17.6094 18.8672 17.668C18.8672 17.7266 18.8672 17.834 18.8672 17.9902C18.8672 18.127 18.8672 18.2832 18.8672 18.459C18.8867 18.6152 18.8965 18.7715 18.8965 18.9277C18.8965 19.0645 18.8965 19.1621 18.8965 19.2207C19.1113 19.1816 19.4141 18.9082 19.8047 18.4004C20.1953 17.8926 20.5957 17.3066 21.0059 16.6426C21.416 15.959 21.7969 15.2754 22.1484 14.5918C22.5 13.9082 22.7637 13.3711 22.9395 12.9805C23.0176 12.7852 23.0957 12.5508 23.1738 12.2773C23.252 12.0039 23.3008 11.7305 23.3203 11.457C23.3594 11.1641 23.3398 10.9004 23.2617 10.666C23.2031 10.4316 23.0664 10.2461 22.8516 10.1094C22.5 10.1094 22.1191 10.1973 21.709 10.373C21.3184 10.5488 20.9277 10.7734 20.5371 11.0469C20.166 11.3203 19.8242 11.623 19.5117 11.9551C19.2188 12.2676 19.0039 12.5703 18.8672 12.8633C18.8477 12.9609 18.8281 13.1367 18.8086 13.3906C18.8086 13.625 18.7988 13.8789 18.7793 14.1523C18.7793 14.4258 18.7695 14.6895 18.75 14.9434C18.75 15.1973 18.75 15.373 18.75 15.4707ZM26.9238 18.5176L28.0078 10.9883C28.0469 10.7344 28.1543 10.5488 28.3301 10.4316C28.5254 10.3145 28.7402 10.2559 28.9746 10.2559C29.4043 10.2559 29.7461 10.3828 30 10.6367C30.2539 10.8711 30.4688 11.1641 30.6445 11.5156H30.6738C30.9082 11.5156 31.1133 11.4766 31.2891 11.3984C31.4844 11.3008 31.7188 11.252 31.9922 11.252C32.6172 11.252 33.1445 11.4473 33.5742 11.8379C34.0234 12.2285 34.3848 12.707 34.6582 13.2734C34.9316 13.8203 35.127 14.416 35.2441 15.0605C35.3809 15.7051 35.4492 16.2715 35.4492 16.7598C35.4492 17.3457 35.293 18 34.9805 18.7227C34.6875 19.4453 34.2871 20.1289 33.7793 20.7734C33.291 21.418 32.7344 21.9551 32.1094 22.3848C31.4844 22.8145 30.8496 23.0293 30.2051 23.0293C29.6191 23.0293 29.1113 22.8926 28.6816 22.6191C28.2715 22.3457 27.9297 22.0039 27.6562 21.5938C27.4023 21.1641 27.2168 20.6855 27.0996 20.1582C26.9824 19.6309 26.9238 19.1133 26.9238 18.6055V18.5176ZM29.3848 18.6934C29.4238 18.8887 29.4629 19.1133 29.502 19.3672C29.541 19.6211 29.5996 19.8555 29.6777 20.0703C29.7559 20.2656 29.8633 20.4219 30 20.5391C30.1562 20.6367 30.3711 20.6367 30.6445 20.5391C30.8984 20.3047 31.1719 20.041 31.4648 19.748C31.7578 19.4551 32.0312 19.1426 32.2852 18.8105C32.5586 18.4785 32.7832 18.127 32.959 17.7559C33.1348 17.3848 33.2227 16.9941 33.2227 16.584C33.3008 15.9199 33.252 15.3145 33.0762 14.7676C32.9004 14.2012 32.6465 13.8008 32.3145 13.5664C32.002 13.3125 31.6406 13.2832 31.2305 13.4785C30.8203 13.6543 30.4102 14.1523 30 14.9727C29.7656 15.4805 29.5996 16.0762 29.502 16.7598C29.4238 17.4238 29.3848 18.0391 29.3848 18.6055V18.6934ZM42.5391 20.2168C42.4023 20.5098 42.2656 20.832 42.1289 21.1836C41.9922 21.5156 41.8359 21.8184 41.6602 22.0918C41.4844 22.3652 41.2695 22.5996 41.0156 22.7949C40.7617 22.9707 40.4395 23.0586 40.0488 23.0586C39.3652 23.0586 38.7988 22.8926 38.3496 22.5605C37.9004 22.209 37.5293 21.7793 37.2363 21.2715C36.9629 20.7441 36.7676 20.1777 36.6504 19.5723C36.5332 18.9668 36.4746 18.4004 36.4746 17.873L36.709 10.7832C36.6895 10.6465 36.7188 10.5098 36.7969 10.373C36.8945 10.2168 37.0117 10.0801 37.1484 9.96289C37.3047 9.82617 37.4707 9.71875 37.6465 9.64062C37.8418 9.5625 38.0176 9.52344 38.1738 9.52344C38.623 9.52344 39.0039 9.66992 39.3164 9.96289C39.6289 10.2363 39.7852 10.5977 39.7852 11.0469V11.3398C39.5703 11.6914 39.3848 12.1504 39.2285 12.7168C39.0723 13.2832 38.9453 13.8984 38.8477 14.5625C38.7695 15.207 38.7207 15.8711 38.7012 16.5547C38.6816 17.2383 38.7012 17.8633 38.7598 18.4297C38.8379 18.9961 38.9551 19.4844 39.1113 19.8945C39.2676 20.2852 39.4727 20.5195 39.7266 20.5977C39.8242 20.5977 39.9707 20.5488 40.166 20.4512C40.3809 20.3535 40.6055 20.168 40.8398 19.8945C41.0742 19.6211 41.3184 19.2402 41.5723 18.752C41.8262 18.2441 42.0508 17.5801 42.2461 16.7598C42.4414 15.9395 42.5879 14.9434 42.6855 13.7715C42.7832 12.5996 42.8125 11.1934 42.7734 9.55273C42.8516 9.33789 42.959 9.2207 43.0957 9.20117C43.252 9.18164 43.4082 9.17188 43.5645 9.17188C43.7402 9.17188 43.8867 9.18164 44.0039 9.20117C44.1211 9.20117 44.248 9.26953 44.3848 9.40625C44.4824 9.50391 44.5898 9.65039 44.707 9.8457C44.8242 10.041 44.8828 10.1484 44.8828 10.168L45.3809 23.1465C45.3809 23.4395 45.3027 23.6836 45.1465 23.8789C44.9902 24.0742 44.7656 24.1719 44.4727 24.1719C44.375 24.1719 44.2578 24.1621 44.1211 24.1426C43.9844 24.123 43.8477 24.084 43.7109 24.0254C43.5742 23.9668 43.4473 23.8887 43.3301 23.791C43.2324 23.7129 43.1738 23.6152 43.1543 23.498L42.6562 20.5684L42.5391 20.2168ZM49.8047 14.4453C49.5312 14.4453 49.2871 14.5137 49.0723 14.6504C48.8574 14.7871 48.6035 14.8555 48.3105 14.8555C48.2715 14.8555 48.1641 14.8555 47.9883 14.8555C47.832 14.8359 47.7344 14.8262 47.6953 14.8262C47.6172 14.7285 47.5293 14.6504 47.4316 14.5918C47.334 14.5332 47.2363 14.4746 47.1387 14.416C47.041 14.3379 46.9531 14.25 46.875 14.1523C46.8164 14.0547 46.7871 13.918 46.7871 13.7422C46.7871 13.4492 46.9043 13.2148 47.1387 13.0391C47.373 12.8438 47.6465 12.6777 47.959 12.541C48.2715 12.4043 48.584 12.2773 48.8965 12.1602C49.2285 12.043 49.4922 11.9062 49.6875 11.75V10.4609C49.6875 9.01562 49.6191 7.57031 49.4824 6.125C49.3457 4.66016 49.2773 3.21484 49.2773 1.78906C49.2773 1.39844 49.375 1.14453 49.5703 1.02734C49.7656 0.910156 50.0293 0.851562 50.3613 0.851562C50.752 0.851562 51.0352 0.96875 51.2109 1.20312C51.4062 1.41797 51.543 1.69141 51.6211 2.02344C51.6992 2.33594 51.7383 2.67773 51.7383 3.04883C51.7383 3.40039 51.748 3.70313 51.7676 3.95703C51.7676 4.21094 51.7871 4.66016 51.8262 5.30469C51.8652 5.94922 51.9043 6.63281 51.9434 7.35547C51.9824 8.07812 52.0215 8.76172 52.0605 9.40625C52.0996 10.0508 52.1289 10.5 52.1484 10.7539C52.2266 10.7344 52.373 10.6855 52.5879 10.6074C52.8223 10.5098 53.0664 10.4219 53.3203 10.3438C53.5742 10.2461 53.8086 10.1582 54.0234 10.0801C54.2578 10.002 54.4238 9.94336 54.5215 9.9043C55.0293 9.68945 55.5566 9.45508 56.1035 9.20117C56.6504 8.92773 57.207 8.79102 57.7734 8.79102C58.1641 8.79102 58.457 8.92773 58.6523 9.20117C58.8672 9.45508 58.9746 9.75781 58.9746 10.1094C58.9746 10.3633 58.877 10.5488 58.6816 10.666C58.4863 10.7832 58.2812 10.8906 58.0664 10.9883L52.7344 12.9805C52.6758 13.0195 52.6172 13.0586 52.5586 13.0977C52.5 13.1172 52.4414 13.1562 52.3828 13.2148V14.1523C52.3828 14.8359 52.3926 15.5488 52.4121 16.291C52.4512 17.0137 52.5195 17.7168 52.6172 18.4004C52.7148 18.9863 52.8223 19.5625 52.9395 20.1289C53.0566 20.6953 53.1152 21.2715 53.1152 21.8574C53.1152 22.0332 53.0566 22.2676 52.9395 22.5605C52.8223 22.8535 52.6367 23 52.3828 23C51.8555 23 51.4258 22.8438 51.0938 22.5312C50.7617 22.2188 50.5762 21.7988 50.5371 21.2715C50.4395 20.2559 50.332 19.1426 50.2148 17.9316C50.1172 16.7207 50.0195 15.5586 49.9219 14.4453H49.8047ZM79.9512 18.8691C79.7363 19.2793 79.4727 19.7383 79.1602 20.2461C78.8672 20.7539 78.5156 21.2422 78.1055 21.7109C77.7148 22.1602 77.2852 22.541 76.8164 22.8535C76.3672 23.166 75.8789 23.3223 75.3516 23.3223C74.6875 23.3223 74.1602 23.127 73.7695 22.7363C73.3789 22.3457 73.0762 21.8672 72.8613 21.3008C72.666 20.7148 72.5391 20.1094 72.4805 19.4844C72.4219 18.8398 72.3926 18.2637 72.3926 17.7559V16.9941C72.4121 16.8379 72.4316 16.6035 72.4512 16.291C72.4902 15.9785 72.5293 15.627 72.5684 15.2363C72.627 14.8262 72.6758 14.4062 72.7148 13.9766C72.7539 13.5273 72.793 13.1074 72.832 12.7168C72.8906 12.3066 72.9297 11.9453 72.9492 11.6328C72.9883 11.3203 73.0176 11.0859 73.0371 10.9297C72.959 10.7344 72.9297 10.5391 72.9492 10.3438C72.9883 10.1289 73.0566 9.94336 73.1543 9.78711C73.2715 9.61133 73.418 9.47461 73.5938 9.37695C73.7695 9.25977 73.9648 9.20117 74.1797 9.20117C74.2383 9.20117 74.3359 9.2207 74.4727 9.25977C74.6289 9.29883 74.7852 9.35742 74.9414 9.43555C75.0977 9.51367 75.2344 9.60156 75.3516 9.69922C75.4688 9.77734 75.5273 9.85547 75.5273 9.93359V11.0469C75.2539 13.1562 75.0781 14.8359 75 16.0859C74.9219 17.3359 74.8926 18.3125 74.9121 19.0156C74.9316 19.6992 74.9902 20.168 75.0879 20.4219C75.1855 20.6758 75.2832 20.8516 75.3809 20.9492C75.6152 21.0469 75.8398 21.0762 76.0547 21.0371C76.2891 20.9785 76.5625 20.793 76.875 20.4805C77.1875 20.168 77.5586 19.6895 77.9883 19.0449C78.4375 18.3809 78.9746 17.502 79.5996 16.4082C79.6387 16.3496 79.6777 16.2422 79.7168 16.0859C79.7754 15.9297 79.8145 15.8223 79.834 15.7637C79.7949 14.4746 79.7852 13.1758 79.8047 11.8672C79.8438 10.5586 79.8926 9.25977 79.9512 7.9707C80.0293 7.77539 80.1562 7.61914 80.332 7.50195C80.5078 7.38477 80.6934 7.32617 80.8887 7.32617C80.9668 7.32617 81.084 7.35547 81.2402 7.41406C81.3965 7.47266 81.5527 7.56055 81.709 7.67773C81.8652 7.77539 82.002 7.88281 82.1191 8C82.2363 8.11719 82.2949 8.23438 82.2949 8.35156V16.9941C82.4316 17.873 82.5391 18.7617 82.6172 19.6602C82.6953 20.5391 82.8027 21.418 82.9395 22.2969C82.9395 22.3945 82.959 22.5996 82.998 22.9121C83.0566 23.2051 83.1152 23.5273 83.1738 23.8789C83.2324 24.2305 83.2812 24.5527 83.3203 24.8457C83.3789 25.1387 83.418 25.3242 83.4375 25.4023V25.7539C83.4375 26.457 83.0566 26.8379 82.2949 26.8965C81.9629 26.9355 81.6797 26.7891 81.4453 26.457C81.2305 26.1445 81.0547 25.7246 80.918 25.1973C80.7812 24.6895 80.6641 24.1133 80.5664 23.4688C80.4883 22.8242 80.4199 22.1992 80.3613 21.5938C80.3027 20.9883 80.2441 20.4414 80.1855 19.9531C80.127 19.4453 80.0488 19.084 79.9512 18.8691ZM88.7109 21.8867C88.7109 21.7891 88.7109 21.7012 88.7109 21.623C88.7305 21.5449 88.7793 21.4668 88.8574 21.3887C89.0918 21.0957 89.3555 20.793 89.6484 20.4805C89.9414 20.1484 90.2246 19.8262 90.498 19.5137C90.7715 19.1816 91.0254 18.8398 91.2598 18.4883C91.4941 18.1367 91.6895 17.7852 91.8457 17.4336V17.2578L88.0078 18.0488H87.5684C87.2949 18.0488 86.9531 18.0293 86.543 17.9902C86.1523 17.9512 85.7617 17.873 85.3711 17.7559C85 17.6191 84.6777 17.4336 84.4043 17.1992C84.1504 16.9648 84.0234 16.6523 84.0234 16.2617C84.043 15.8125 84.2773 15.3145 84.7266 14.7676C85.1758 14.2207 85.7031 13.6836 86.3086 13.1562C86.9141 12.6289 87.5195 12.1406 88.125 11.6914C88.75 11.2422 89.248 10.8906 89.6191 10.6367C90.0293 10.4023 90.5176 10.2168 91.084 10.0801C91.6504 9.92383 92.168 9.8457 92.6367 9.8457C93.0273 9.8457 93.3691 9.92383 93.6621 10.0801C93.9551 10.2168 94.1016 10.5 94.1016 10.9297C94.1016 11.1055 94.082 11.2715 94.043 11.4277C94.0234 11.584 93.9062 11.6914 93.6914 11.75C93.0664 11.6914 92.4805 11.7402 91.9336 11.8965C91.3867 12.0332 90.8691 12.248 90.3809 12.541C89.8926 12.834 89.4336 13.1855 89.0039 13.5957C88.5742 13.9863 88.1543 14.3965 87.7441 14.8262C87.627 14.9629 87.4805 15.1582 87.3047 15.4121C87.1289 15.6465 87.041 15.7832 87.041 15.8223V15.8516C87.5488 15.8516 88.0469 15.8027 88.5352 15.7051C89.043 15.6074 89.541 15.5098 90.0293 15.4121C90.5371 15.2949 91.0352 15.1875 91.5234 15.0898C92.0312 14.9922 92.5488 14.9434 93.0762 14.9434C93.2715 14.9434 93.4863 14.9629 93.7207 15.002C93.9551 15.0215 94.1699 15.0801 94.3652 15.1777C94.5801 15.2754 94.7461 15.4121 94.8633 15.5879C95 15.7441 95.0684 15.9492 95.0684 16.2031C95.0684 16.5742 94.9707 16.9355 94.7754 17.2871C94.5996 17.6191 94.3262 18.0293 93.9551 18.5176C93.6035 18.9863 93.1445 19.5625 92.5781 20.2461C92.0312 20.9297 91.377 21.8086 90.6152 22.8828C90.5762 22.9414 90.4785 22.9805 90.3223 23C90.1855 23.0195 90.0684 23.0293 89.9707 23.0293C89.6973 23.0293 89.4141 22.9121 89.1211 22.6777C88.8477 22.4434 88.7109 22.1797 88.7109 21.8867Z" fill="#CCCCCC"/>
</svg>
