<svg width="126" height="22" viewBox="0 0 126 22" fill="none" xmlns="http://www.w3.org/2000/svg">
<path d="M0.253906 13.5254C0.253906 13.3053 0.313151 13.0938 0.431641 12.8906C0.55013 12.6875 0.744792 12.5859 1.01562 12.5859C1.16797 12.5859 1.29492 12.6367 1.39648 12.7383C1.49805 12.8398 1.58268 12.9668 1.65039 13.1191C1.73503 13.2546 1.8112 13.3984 1.87891 13.5508C1.94661 13.6862 2.02279 13.7962 2.10742 13.8809C2.22591 13.9824 2.42904 14.2025 2.7168 14.541C3.02148 14.8796 3.32617 15.235 3.63086 15.6074C3.93555 15.9798 4.21484 16.3268 4.46875 16.6484C4.72266 16.9531 4.86654 17.1393 4.90039 17.207C4.93424 17.2409 4.98503 17.3001 5.05273 17.3848C5.12044 17.4525 5.17122 17.5033 5.20508 17.5371L5.30664 17.4355C5.30664 17.4186 5.30664 17.334 5.30664 17.1816C5.32357 17.0293 5.33203 16.86 5.33203 16.6738C5.33203 16.4876 5.33203 16.3014 5.33203 16.1152C5.33203 15.9121 5.33203 15.7513 5.33203 15.6328C5.33203 14.1771 5.30664 12.7383 5.25586 11.3164C5.22201 9.8776 5.20508 8.43034 5.20508 6.97461V3.39453C5.25586 3.15755 5.35742 2.98828 5.50977 2.88672C5.67904 2.76823 5.8737 2.70898 6.09375 2.70898C6.33073 2.70898 6.55924 2.75977 6.7793 2.86133C7.01628 2.96289 7.16862 3.14062 7.23633 3.39453C7.20247 5.51042 7.22786 7.59245 7.3125 9.64062C7.41406 11.6888 7.46484 13.7624 7.46484 15.8613C7.46484 16.1152 7.46484 16.4792 7.46484 16.9531C7.46484 17.4102 7.42253 17.8672 7.33789 18.3242C7.27018 18.7812 7.1263 19.179 6.90625 19.5176C6.70312 19.8561 6.39844 20.0254 5.99219 20.0254C5.95833 20.0254 5.90755 20.0169 5.83984 20C5.78906 20 5.75521 20 5.73828 20C5.65365 19.9661 5.5013 19.8815 5.28125 19.7461C5.0612 19.6107 4.93424 19.5091 4.90039 19.4414L0.710938 14.7441C0.507812 14.5241 0.380859 14.3294 0.330078 14.1602C0.279297 13.974 0.253906 13.7624 0.253906 13.5254ZM8.86133 16.1152L9.80078 9.58984C9.83464 9.36979 9.92773 9.20898 10.0801 9.10742C10.2493 9.00586 10.4355 8.95508 10.6387 8.95508C11.0111 8.95508 11.3073 9.0651 11.5273 9.28516C11.7474 9.48828 11.9336 9.74219 12.0859 10.0469H12.1113C12.3145 10.0469 12.4922 10.013 12.6445 9.94531C12.8138 9.86068 13.0169 9.81836 13.2539 9.81836C13.7956 9.81836 14.2526 9.98763 14.625 10.3262C15.0143 10.6647 15.3275 11.0794 15.5645 11.5703C15.8014 12.0443 15.9707 12.5605 16.0723 13.1191C16.1908 13.6777 16.25 14.1686 16.25 14.5918C16.25 15.0996 16.1146 15.6667 15.8438 16.293C15.5898 16.9193 15.2428 17.5117 14.8027 18.0703C14.3796 18.6289 13.8971 19.0944 13.3555 19.4668C12.8138 19.8392 12.2637 20.0254 11.7051 20.0254C11.1973 20.0254 10.7572 19.9069 10.3848 19.6699C10.0293 19.4329 9.73307 19.1367 9.49609 18.7812C9.27604 18.4089 9.11523 17.9941 9.01367 17.5371C8.91211 17.0801 8.86133 16.6315 8.86133 16.1914V16.1152ZM10.9941 16.2676C11.028 16.4368 11.0618 16.6315 11.0957 16.8516C11.1296 17.0716 11.1803 17.2747 11.248 17.4609C11.3158 17.6302 11.4089 17.7656 11.5273 17.8672C11.6628 17.9518 11.849 17.9518 12.0859 17.8672C12.306 17.6641 12.543 17.4355 12.7969 17.1816C13.0508 16.9277 13.2878 16.6569 13.5078 16.3691C13.7448 16.0814 13.9395 15.7767 14.0918 15.4551C14.2441 15.1335 14.3203 14.7949 14.3203 14.4395C14.388 13.8639 14.3457 13.3392 14.1934 12.8652C14.041 12.3743 13.821 12.0273 13.5332 11.8242C13.2624 11.6042 12.9492 11.5788 12.5938 11.748C12.2383 11.9004 11.8828 12.332 11.5273 13.043C11.3242 13.4831 11.1803 13.9993 11.0957 14.5918C11.028 15.1673 10.9941 15.7005 10.9941 16.1914V16.2676ZM18.5605 19.0352C18.3913 17.3424 18.2474 15.8952 18.1289 14.6934C18.0104 13.4915 17.9089 12.4844 17.8242 11.6719C17.7396 10.8594 17.6634 10.2161 17.5957 9.74219C17.5449 9.2513 17.5026 8.88737 17.4688 8.65039C17.4349 8.39648 17.4095 8.22721 17.3926 8.14258C17.3757 8.05794 17.3672 8.00716 17.3672 7.99023V7.88867C17.3672 7.70247 17.4434 7.55013 17.5957 7.43164C17.765 7.29622 17.9342 7.22852 18.1035 7.22852C18.3574 7.22852 18.6283 7.27083 18.916 7.35547C19.2207 7.4401 19.4238 7.61784 19.5254 7.88867C19.6777 8.7181 19.7793 9.55599 19.8301 10.4023C19.8978 11.2487 19.9486 12.0951 19.9824 12.9414C20.0332 13.7708 20.0924 14.6087 20.1602 15.4551C20.2448 16.3014 20.3887 17.1393 20.5918 17.9688C20.5918 18.0026 20.6003 18.0703 20.6172 18.1719C20.651 18.2734 20.6764 18.3835 20.6934 18.502C20.7272 18.6204 20.7526 18.7305 20.7695 18.832C20.7865 18.9336 20.7949 19.0013 20.7949 19.0352V19.0859C20.7949 19.1029 20.8034 19.1198 20.8203 19.1367C20.8203 19.3398 20.7272 19.543 20.541 19.7461C20.3548 19.9492 20.1602 20.0339 19.957 20C19.9062 19.9831 19.7793 19.9577 19.5762 19.9238C19.39 19.873 19.263 19.8307 19.1953 19.7969C19.1445 19.7799 19.0768 19.7461 18.9922 19.6953C18.9076 19.6276 18.8229 19.5599 18.7383 19.4922C18.6706 19.4245 18.6113 19.3483 18.5605 19.2637C18.5098 19.179 18.5098 19.1029 18.5605 19.0352ZM17.1387 0.525391C17.1387 0.406901 17.2318 0.305339 17.418 0.220703C17.6211 0.119141 17.7734 0.0683594 17.875 0.0683594C18.1289 0.0683594 18.4082 0.144531 18.7129 0.296875C19.0345 0.432292 19.1953 0.64388 19.1953 0.931641C19.1953 1.2194 19.153 1.41406 19.0684 1.51562C19.0007 1.61719 18.8229 1.66797 18.5352 1.66797C18.2305 1.66797 17.9173 1.56641 17.5957 1.36328C17.291 1.16016 17.1387 0.880859 17.1387 0.525391ZM28.9961 19.1367C28.7591 18.7982 28.556 18.3327 28.3867 17.7402C28.2344 17.1309 28.082 16.4961 27.9297 15.8359C27.7943 15.1589 27.6673 14.5072 27.5488 13.8809C27.4303 13.2376 27.3034 12.7298 27.168 12.3574C27.0495 11.9681 26.9141 11.748 26.7617 11.6973C26.6094 11.6465 26.4316 11.875 26.2285 12.3828L24.0195 19.1875C23.9349 19.4245 23.8333 19.5938 23.7148 19.6953C23.5964 19.7799 23.4017 19.8223 23.1309 19.8223C22.9954 19.8223 22.8516 19.8053 22.6992 19.7715C22.5469 19.7207 22.403 19.653 22.2676 19.5684C22.1322 19.4837 22.0137 19.3822 21.9121 19.2637C21.8275 19.1452 21.7767 19.0098 21.7598 18.8574C21.8105 18.6543 21.8529 18.2819 21.8867 17.7402C21.9375 17.1986 21.9714 16.5723 21.9883 15.8613C22.0052 15.1504 22.0137 14.4056 22.0137 13.627C22.0306 12.8314 22.0306 12.0951 22.0137 11.418C22.0137 10.724 22.0052 10.1315 21.9883 9.64062C21.9714 9.13281 21.9544 8.80273 21.9375 8.65039C21.9375 8.48112 21.9375 8.31185 21.9375 8.14258C21.9544 7.95638 21.9798 7.78711 22.0137 7.63477C22.0645 7.48242 22.1406 7.36393 22.2422 7.2793C22.3607 7.17773 22.5384 7.12695 22.7754 7.12695C23.097 7.12695 23.3932 7.26237 23.6641 7.5332C23.9518 7.80404 24.0957 8.0918 24.0957 8.39648C24.0957 8.83659 24.0703 9.27669 24.0195 9.7168C23.9857 10.14 23.9688 10.5716 23.9688 11.0117C23.9688 11.2826 23.9688 11.5111 23.9688 11.6973C23.9688 11.8835 24.0026 12.112 24.0703 12.3828C24.1211 12.2474 24.2057 12.0104 24.3242 11.6719C24.4427 11.3333 24.5697 10.9779 24.7051 10.6055C24.8574 10.2331 24.9928 9.88607 25.1113 9.56445C25.2298 9.22591 25.3145 8.98893 25.3652 8.85352C25.4837 8.51497 25.6615 8.19336 25.8984 7.88867C26.1354 7.56706 26.4486 7.38932 26.8379 7.35547C27.0918 7.33854 27.3203 7.40625 27.5234 7.55859C27.7435 7.71094 27.9297 7.91406 28.082 8.16797C28.2344 8.40495 28.3613 8.65885 28.4629 8.92969C28.5645 9.18359 28.6406 9.40365 28.6914 9.58984L30.0625 15.9121L31.1289 18.8066C31.1458 18.8236 31.1543 18.8743 31.1543 18.959C31.1543 19.0267 31.1543 19.0775 31.1543 19.1113C31.1543 19.3145 31.1035 19.5176 31.002 19.7207C30.9173 19.9069 30.7565 20 30.5195 20C30.2318 20 29.9355 19.9238 29.6309 19.7715C29.3262 19.6022 29.1146 19.3906 28.9961 19.1367ZM42.7578 16.1152L43.6973 9.58984C43.7311 9.36979 43.8242 9.20898 43.9766 9.10742C44.1458 9.00586 44.332 8.95508 44.5352 8.95508C44.9076 8.95508 45.2038 9.0651 45.4238 9.28516C45.6439 9.48828 45.8301 9.74219 45.9824 10.0469H46.0078C46.2109 10.0469 46.3887 10.013 46.541 9.94531C46.7103 9.86068 46.9134 9.81836 47.1504 9.81836C47.6921 9.81836 48.1491 9.98763 48.5215 10.3262C48.9108 10.6647 49.224 11.0794 49.4609 11.5703C49.6979 12.0443 49.8672 12.5605 49.9688 13.1191C50.0872 13.6777 50.1465 14.1686 50.1465 14.5918C50.1465 15.0996 50.0111 15.6667 49.7402 16.293C49.4863 16.9193 49.1393 17.5117 48.6992 18.0703C48.276 18.6289 47.7936 19.0944 47.252 19.4668C46.7103 19.8392 46.1602 20.0254 45.6016 20.0254C45.0938 20.0254 44.6536 19.9069 44.2812 19.6699C43.9258 19.4329 43.6296 19.1367 43.3926 18.7812C43.1725 18.4089 43.0117 17.9941 42.9102 17.5371C42.8086 17.0801 42.7578 16.6315 42.7578 16.1914V16.1152ZM44.8906 16.2676C44.9245 16.4368 44.9583 16.6315 44.9922 16.8516C45.026 17.0716 45.0768 17.2747 45.1445 17.4609C45.2122 17.6302 45.3053 17.7656 45.4238 17.8672C45.5592 17.9518 45.7454 17.9518 45.9824 17.8672C46.2025 17.6641 46.4395 17.4355 46.6934 17.1816C46.9473 16.9277 47.1842 16.6569 47.4043 16.3691C47.6413 16.0814 47.8359 15.7767 47.9883 15.4551C48.1406 15.1335 48.2168 14.7949 48.2168 14.4395C48.2845 13.8639 48.2422 13.3392 48.0898 12.8652C47.9375 12.3743 47.7174 12.0273 47.4297 11.8242C47.1589 11.6042 46.8457 11.5788 46.4902 11.748C46.1348 11.9004 45.7793 12.332 45.4238 13.043C45.2207 13.4831 45.0768 13.9993 44.9922 14.5918C44.9245 15.1673 44.8906 15.7005 44.8906 16.1914V16.2676ZM56.291 17.5879C56.1725 17.8418 56.054 18.1211 55.9355 18.4258C55.8171 18.7135 55.6816 18.9759 55.5293 19.2129C55.377 19.4499 55.1908 19.653 54.9707 19.8223C54.7507 19.9746 54.4714 20.0508 54.1328 20.0508C53.5404 20.0508 53.0495 19.9069 52.6602 19.6191C52.2708 19.3145 51.9492 18.9421 51.6953 18.502C51.4583 18.0449 51.2891 17.554 51.1875 17.0293C51.0859 16.5046 51.0352 16.0137 51.0352 15.5566L51.2383 9.41211C51.2214 9.29362 51.2467 9.17513 51.3145 9.05664C51.3991 8.92122 51.5007 8.80273 51.6191 8.70117C51.7546 8.58268 51.8984 8.48958 52.0508 8.42188C52.2201 8.35417 52.3724 8.32031 52.5078 8.32031C52.8971 8.32031 53.2272 8.44727 53.498 8.70117C53.7689 8.93815 53.9043 9.2513 53.9043 9.64062V9.89453C53.7181 10.1992 53.5573 10.597 53.4219 11.0879C53.2865 11.5788 53.1764 12.112 53.0918 12.6875C53.0241 13.2461 52.9818 13.8216 52.9648 14.4141C52.9479 15.0065 52.9648 15.5482 53.0156 16.0391C53.0833 16.5299 53.1849 16.9531 53.3203 17.3086C53.4557 17.6471 53.6335 17.8503 53.8535 17.918C53.9382 17.918 54.0651 17.8757 54.2344 17.791C54.4206 17.7064 54.6152 17.5456 54.8184 17.3086C55.0215 17.0716 55.2331 16.7415 55.4531 16.3184C55.6732 15.8783 55.8678 15.3027 56.0371 14.5918C56.2064 13.8809 56.3333 13.0176 56.418 12.002C56.5026 10.9863 56.528 9.76758 56.4941 8.3457C56.5618 8.15951 56.6549 8.05794 56.7734 8.04102C56.9089 8.02409 57.0443 8.01562 57.1797 8.01562C57.332 8.01562 57.459 8.02409 57.5605 8.04102C57.6621 8.04102 57.7721 8.10026 57.8906 8.21875C57.9753 8.30339 58.0684 8.43034 58.1699 8.59961C58.2715 8.76888 58.3223 8.86198 58.3223 8.87891L58.7539 20.127C58.7539 20.3809 58.6862 20.5924 58.5508 20.7617C58.4154 20.931 58.2207 21.0156 57.9668 21.0156C57.8822 21.0156 57.7806 21.0072 57.6621 20.9902C57.5436 20.9733 57.4251 20.9395 57.3066 20.8887C57.1882 20.8379 57.0781 20.7702 56.9766 20.6855C56.8919 20.6178 56.8411 20.5332 56.8242 20.4316L56.3926 17.8926L56.291 17.5879ZM61.293 18.9082C61.2591 18.2988 61.1999 17.4863 61.1152 16.4707C61.0475 15.4382 60.9629 14.3717 60.8613 13.2715C60.7767 12.1712 60.6836 11.1302 60.582 10.1484C60.4805 9.16667 60.3958 8.40495 60.3281 7.86328C60.3281 7.64323 60.4297 7.49935 60.6328 7.43164C60.8359 7.36393 61.0306 7.33008 61.2168 7.33008C61.4538 7.33008 61.6992 7.39779 61.9531 7.5332C62.224 7.66862 62.3932 7.85482 62.4609 8.0918C62.4609 8.15951 62.4694 8.28646 62.4863 8.47266C62.5033 8.64193 62.5117 8.81966 62.5117 9.00586C62.5286 9.19206 62.5456 9.37826 62.5625 9.56445C62.5794 9.73372 62.5879 9.85221 62.5879 9.91992C62.5879 10.0215 62.5879 10.0977 62.5879 10.1484C62.5879 10.1992 62.5879 10.25 62.5879 10.3008C62.5879 10.3346 62.5964 10.377 62.6133 10.4277C62.6302 10.4785 62.6556 10.5632 62.6895 10.6816C62.7233 10.6478 62.7572 10.6055 62.791 10.5547C62.8418 10.5039 62.8757 10.4701 62.8926 10.4531C63.1634 10.0638 63.4258 9.72526 63.6797 9.4375C63.9336 9.13281 64.196 8.85352 64.4668 8.59961C64.7376 8.32878 65.0339 8.04948 65.3555 7.76172C65.694 7.45703 66.0833 7.11003 66.5234 6.7207C66.625 6.63607 66.7012 6.57682 66.752 6.54297C66.8027 6.49219 66.8451 6.45833 66.8789 6.44141C66.9297 6.40755 66.9805 6.39062 67.0312 6.39062C67.082 6.3737 67.1497 6.36523 67.2344 6.36523C67.5221 6.36523 67.8099 6.4668 68.0977 6.66992C68.4023 6.85612 68.5547 7.11849 68.5547 7.45703C68.5547 7.57552 68.5124 7.70247 68.4277 7.83789C68.3431 7.95638 68.2415 8.07487 68.123 8.19336C68.0046 8.29492 67.8776 8.38802 67.7422 8.47266C67.6237 8.55729 67.5137 8.61654 67.4121 8.65039C66.972 9.03971 66.5065 9.48828 66.0156 9.99609C65.5247 10.487 65.0677 11.0202 64.6445 11.5957C64.2214 12.1712 63.8743 12.7721 63.6035 13.3984C63.3327 14.0247 63.1973 14.651 63.1973 15.2773C63.1973 15.8529 63.2396 16.4199 63.3242 16.9785C63.4089 17.5371 63.4512 18.1042 63.4512 18.6797V19.5684C63.3158 19.7038 63.1973 19.8138 63.0957 19.8984C62.9941 19.9831 62.8503 20.0254 62.6641 20.0254C62.3763 20.0254 62.097 19.9069 61.8262 19.6699C61.5553 19.416 61.3776 19.1621 61.293 18.9082ZM82.0625 12.5859C81.8255 12.5859 81.6139 12.6452 81.4277 12.7637C81.2415 12.8822 81.0215 12.9414 80.7676 12.9414C80.7337 12.9414 80.6406 12.9414 80.4883 12.9414C80.3529 12.9245 80.2682 12.916 80.2344 12.916C80.1667 12.8314 80.0905 12.7637 80.0059 12.7129C79.9212 12.6621 79.8366 12.6113 79.752 12.5605C79.6673 12.4928 79.5911 12.4167 79.5234 12.332C79.4727 12.2474 79.4473 12.1289 79.4473 11.9766C79.4473 11.7227 79.5488 11.5195 79.752 11.3672C79.9551 11.1979 80.1921 11.054 80.4629 10.9355C80.7337 10.8171 81.0046 10.707 81.2754 10.6055C81.5632 10.5039 81.7917 10.3854 81.9609 10.25V9.13281C81.9609 7.88021 81.9017 6.6276 81.7832 5.375C81.6647 4.10547 81.6055 2.85286 81.6055 1.61719C81.6055 1.27865 81.6901 1.05859 81.8594 0.957031C82.0286 0.855469 82.2572 0.804688 82.5449 0.804688C82.8835 0.804688 83.1289 0.90625 83.2812 1.10938C83.4505 1.29557 83.569 1.53255 83.6367 1.82031C83.7044 2.09115 83.7383 2.38737 83.7383 2.70898C83.7383 3.01367 83.7467 3.27604 83.7637 3.49609C83.7637 3.71615 83.7806 4.10547 83.8145 4.66406C83.8483 5.22266 83.8822 5.8151 83.916 6.44141C83.9499 7.06771 83.9837 7.66016 84.0176 8.21875C84.0514 8.77734 84.0768 9.16667 84.0938 9.38672C84.1615 9.36979 84.2884 9.32747 84.4746 9.25977C84.6777 9.17513 84.8893 9.09896 85.1094 9.03125C85.3294 8.94661 85.5326 8.87044 85.7188 8.80273C85.9219 8.73503 86.0658 8.68424 86.1504 8.65039C86.5905 8.46419 87.0475 8.26107 87.5215 8.04102C87.9954 7.80404 88.4779 7.68555 88.9688 7.68555C89.3073 7.68555 89.5612 7.80404 89.7305 8.04102C89.9167 8.26107 90.0098 8.52344 90.0098 8.82812C90.0098 9.04818 89.9251 9.20898 89.7559 9.31055C89.5866 9.41211 89.4089 9.50521 89.2227 9.58984L84.6016 11.3164C84.5508 11.3503 84.5 11.3841 84.4492 11.418C84.3984 11.4349 84.3477 11.4688 84.2969 11.5195V12.332C84.2969 12.9245 84.3053 13.5423 84.3223 14.1855C84.3561 14.8118 84.4154 15.4212 84.5 16.0137C84.5846 16.5215 84.6777 17.0208 84.7793 17.5117C84.8809 18.0026 84.9316 18.502 84.9316 19.0098C84.9316 19.1621 84.8809 19.3652 84.7793 19.6191C84.6777 19.873 84.5169 20 84.2969 20C83.8398 20 83.4674 19.8646 83.1797 19.5938C82.8919 19.3229 82.7311 18.959 82.6973 18.502C82.6126 17.6217 82.5195 16.6569 82.418 15.6074C82.3333 14.5579 82.2487 13.5508 82.1641 12.5859H82.0625ZM101.436 12.7891C101.402 13.0938 101.359 13.3307 101.309 13.5C101.275 13.6693 101.207 13.8216 101.105 13.957C101.004 14.0924 100.86 14.2363 100.674 14.3887C100.488 14.5241 100.234 14.7272 99.9121 14.998C99.5905 15.252 99.1927 15.5905 98.7188 16.0137C98.2448 16.4368 97.6693 16.987 96.9922 17.6641C96.7214 17.918 96.4421 18.1803 96.1543 18.4512C95.8665 18.722 95.5618 18.9674 95.2402 19.1875C94.9355 19.3906 94.6139 19.5599 94.2754 19.6953C93.9368 19.8307 93.5814 19.8984 93.209 19.8984C92.4811 19.8984 91.9479 19.653 91.6094 19.1621C91.2708 18.6712 91.1016 18.1042 91.1016 17.4609C91.1016 17.0378 91.11 16.6823 91.127 16.3945C91.1608 16.1068 91.2285 15.7344 91.3301 15.2773C91.1439 15.1081 90.9831 14.9642 90.8477 14.8457C90.7122 14.7103 90.6445 14.5326 90.6445 14.3125C90.6445 14.1094 90.6868 13.974 90.7715 13.9062C90.873 13.8385 90.9831 13.7962 91.1016 13.7793C91.237 13.7454 91.3639 13.7116 91.4824 13.6777C91.6009 13.6439 91.6855 13.5762 91.7363 13.4746C91.7702 13.373 91.8294 13.1868 91.9141 12.916C92.0156 12.6452 92.1172 12.3659 92.2188 12.0781C92.3203 11.7734 92.4134 11.4941 92.498 11.2402C92.5996 10.9694 92.6673 10.7832 92.7012 10.6816C92.8197 10.3939 92.9466 10.1061 93.082 9.81836C93.2344 9.51367 93.4036 9.24284 93.5898 9.00586C93.793 8.76888 94.0215 8.57422 94.2754 8.42188C94.5462 8.26953 94.8594 8.19336 95.2148 8.19336C95.418 8.19336 95.6634 8.28646 95.9512 8.47266C96.2559 8.65885 96.5436 8.88737 96.8145 9.1582C97.0853 9.41211 97.3138 9.68294 97.5 9.9707C97.6862 10.2585 97.7793 10.5039 97.7793 10.707C97.7793 10.9609 97.7201 11.1979 97.6016 11.418C97.4831 11.6211 97.3307 11.8158 97.1445 12.002C96.9753 12.1712 96.7891 12.332 96.5859 12.4844C96.3828 12.6367 96.1966 12.7806 96.0273 12.916C96.0104 12.916 95.9766 12.9329 95.9258 12.9668C95.875 13.0007 95.8327 13.026 95.7988 13.043C95.7819 13.0599 95.7396 13.1022 95.6719 13.1699C95.6211 13.2207 95.5618 13.2799 95.4941 13.3477C95.4264 13.4154 95.3587 13.4831 95.291 13.5508C95.2402 13.6185 95.2064 13.6608 95.1895 13.6777C95.1387 13.7285 95.0371 13.8132 94.8848 13.9316C94.7493 14.0332 94.597 14.1517 94.4277 14.2871C94.2585 14.4056 94.0977 14.5241 93.9453 14.6426C93.8099 14.7441 93.7168 14.8118 93.666 14.8457L93.5645 15.0488C93.5306 15.1165 93.4967 15.2689 93.4629 15.5059C93.446 15.7259 93.4206 15.9798 93.3867 16.2676C93.3529 16.5553 93.319 16.8516 93.2852 17.1562C93.2682 17.444 93.2598 17.681 93.2598 17.8672C93.2598 17.8841 93.2682 17.901 93.2852 17.918C93.319 17.9518 93.3444 17.9688 93.3613 17.9688C93.4967 17.9688 93.6237 17.9095 93.7422 17.791C93.8607 17.6725 93.9876 17.5879 94.123 17.5371L98.1855 13.7793L99.2266 12.1797C99.3112 12.0612 99.472 11.9342 99.709 11.7988C99.9629 11.6465 100.217 11.5703 100.471 11.5703C100.725 11.5534 100.945 11.6296 101.131 11.7988C101.334 11.9681 101.436 12.2982 101.436 12.7891ZM95.8496 10.8086C95.9342 10.7409 95.9681 10.6393 95.9512 10.5039C95.9342 10.3685 95.8835 10.25 95.7988 10.1484C95.7311 10.0469 95.638 9.98763 95.5195 9.9707C95.401 9.93685 95.291 9.99609 95.1895 10.1484C95.1387 10.2161 95.0456 10.3516 94.9102 10.5547C94.7917 10.7578 94.6647 10.9694 94.5293 11.1895C94.4108 11.3926 94.3092 11.5703 94.2246 11.7227C94.14 11.875 94.123 11.9342 94.1738 11.9004L95.8496 10.8086ZM108.037 12.916C107.885 13.1868 107.707 13.5169 107.504 13.9062C107.318 14.2786 107.115 14.6849 106.895 15.125C106.674 15.5482 106.429 15.9798 106.158 16.4199C105.904 16.8431 105.633 17.2324 105.346 17.5879C105.075 17.9434 104.787 18.248 104.482 18.502C104.178 18.7389 103.865 18.8828 103.543 18.9336C103.408 18.9336 103.255 18.9251 103.086 18.9082C102.917 18.8743 102.747 18.832 102.578 18.7812C102.409 18.7135 102.265 18.6289 102.146 18.5273C102.045 18.4089 101.994 18.2565 101.994 18.0703C102.011 16.3438 102.138 14.778 102.375 13.373C102.612 11.9512 102.984 10.707 103.492 9.64062C104 8.55729 104.652 7.66016 105.447 6.94922C106.243 6.23828 107.208 5.73047 108.342 5.42578C108.376 5.42578 108.435 5.42578 108.52 5.42578C108.621 5.40885 108.689 5.40039 108.723 5.40039C109.23 5.38346 109.594 5.62044 109.814 6.11133C110.051 6.58529 110.221 7.34701 110.322 8.39648C110.441 9.42904 110.517 10.7663 110.551 12.4082C110.602 14.0332 110.695 15.9883 110.83 18.2734C110.881 18.4596 110.906 18.6204 110.906 18.7559C110.923 18.8913 110.932 19.0521 110.932 19.2383C110.932 19.4922 110.855 19.6868 110.703 19.8223C110.551 19.9408 110.356 20 110.119 20C109.628 20 109.281 19.8646 109.078 19.5938C108.875 19.3229 108.74 18.959 108.672 18.502C108.672 18.485 108.655 18.3496 108.621 18.0957C108.604 17.8418 108.57 17.554 108.52 17.2324C108.486 16.8939 108.452 16.5553 108.418 16.2168C108.384 15.8783 108.359 15.599 108.342 15.3789V15.2773C108.308 15.1081 108.283 14.8965 108.266 14.6426C108.266 14.3887 108.249 14.1432 108.215 13.9062C108.181 13.6185 108.156 13.3307 108.139 13.043L108.037 12.916ZM107.479 7.88867C107.021 8.22721 106.573 8.68424 106.133 9.25977C105.693 9.83529 105.38 10.3939 105.193 10.9355C105.109 11.1895 105.016 11.5365 104.914 11.9766C104.812 12.4167 104.719 12.8568 104.635 13.2969C104.567 13.7201 104.508 14.1178 104.457 14.4902C104.406 14.8457 104.381 15.0742 104.381 15.1758C104.398 15.1758 104.415 15.1589 104.432 15.125C104.465 15.0911 104.491 15.0658 104.508 15.0488C105.557 14.0332 106.294 12.9414 106.717 11.7734C107.157 10.5885 107.411 9.29362 107.479 7.88867ZM112.633 11.7227C112.599 11.2826 112.557 10.8424 112.506 10.4023C112.472 9.94531 112.413 9.49674 112.328 9.05664C112.328 8.68424 112.447 8.44727 112.684 8.3457C112.938 8.24414 113.208 8.19336 113.496 8.19336H114.004C114.258 8.31185 114.436 8.45573 114.537 8.625C114.639 8.79427 114.706 8.98047 114.74 9.18359C114.774 9.38672 114.783 9.59831 114.766 9.81836C114.766 10.0384 114.774 10.25 114.791 10.4531C114.808 10.5378 114.816 10.6816 114.816 10.8848C114.816 11.0879 114.816 11.2995 114.816 11.5195C114.833 11.7396 114.85 11.9427 114.867 12.1289C114.901 12.3151 114.943 12.4336 114.994 12.4844L117.229 8.29492C117.33 8.10872 117.474 7.95638 117.66 7.83789C117.863 7.70247 118.083 7.65169 118.32 7.68555C118.693 7.7194 118.972 7.79557 119.158 7.91406C119.344 8.01562 119.471 8.15951 119.539 8.3457C119.624 8.51497 119.666 8.72656 119.666 8.98047C119.683 9.23438 119.7 9.51367 119.717 9.81836C119.717 9.91992 119.725 10.1146 119.742 10.4023C119.759 10.6732 119.776 10.9609 119.793 11.2656C119.827 11.5703 119.852 11.8581 119.869 12.1289C119.903 12.3997 119.928 12.5859 119.945 12.6875H120.047C120.081 12.569 120.14 12.3405 120.225 12.002C120.326 11.6634 120.436 11.3079 120.555 10.9355C120.673 10.5632 120.783 10.2077 120.885 9.86914C120.986 9.5306 121.062 9.29362 121.113 9.1582C121.13 9.12435 121.164 9.05664 121.215 8.95508C121.266 8.83659 121.316 8.7181 121.367 8.59961C121.418 8.46419 121.469 8.3457 121.52 8.24414C121.57 8.12565 121.604 8.04102 121.621 7.99023C121.74 7.80404 121.858 7.71094 121.977 7.71094C122.112 7.69401 122.256 7.68555 122.408 7.68555C122.831 7.68555 123.153 7.79557 123.373 8.01562C123.61 8.21875 123.779 8.48112 123.881 8.80273C123.999 9.12435 124.084 9.47982 124.135 9.86914C124.186 10.2415 124.245 10.5885 124.312 10.9102C124.329 10.9102 124.338 10.9271 124.338 10.9609C124.338 10.9779 124.329 10.9948 124.312 11.0117L125.709 18.4004C125.777 18.4681 125.811 18.5273 125.811 18.5781C125.827 18.6289 125.836 18.6966 125.836 18.7812C125.836 18.9674 125.743 19.1536 125.557 19.3398C125.387 19.5091 125.21 19.5938 125.023 19.5938C124.77 19.5938 124.473 19.5007 124.135 19.3145C123.813 19.1283 123.627 18.8913 123.576 18.6035L122.408 12.5859L122.281 12.3828C122.247 12.4674 122.171 12.7129 122.053 13.1191C121.951 13.5085 121.824 14.0078 121.672 14.6172C121.52 15.2096 121.342 15.8783 121.139 16.623C120.952 17.3678 120.758 18.1296 120.555 18.9082C120.521 19.0605 120.419 19.179 120.25 19.2637C120.098 19.3314 119.962 19.3652 119.844 19.3652C119.488 19.3652 119.201 19.3229 118.98 19.2383C118.76 19.1536 118.591 19.0267 118.473 18.8574C118.354 18.6882 118.27 18.485 118.219 18.248C118.168 18.0111 118.126 17.7402 118.092 17.4355C118.092 17.3678 118.075 17.1309 118.041 16.7246C118.007 16.3014 117.965 15.8275 117.914 15.3027C117.88 14.7611 117.838 14.2194 117.787 13.6777C117.736 13.1361 117.702 12.7044 117.686 12.3828C117.686 12.3151 117.686 12.2643 117.686 12.2305C117.686 12.1966 117.686 12.1712 117.686 12.1543C117.686 12.1204 117.677 12.0866 117.66 12.0527C117.643 12.002 117.609 11.9258 117.559 11.8242L116.822 13.5762L115.654 17.8672L115.4 19.4414C115.383 19.543 115.333 19.6361 115.248 19.7207C115.18 19.7884 115.096 19.8477 114.994 19.8984C114.893 19.9323 114.791 19.9577 114.689 19.9746C114.588 19.9915 114.503 20 114.436 20C114.063 20 113.742 19.8646 113.471 19.5938C113.217 19.3229 113.081 19.0267 113.064 18.7051C113.048 18.5866 113.031 18.3581 113.014 18.0195C112.997 17.6641 112.971 17.2493 112.938 16.7754C112.904 16.3014 112.87 15.8021 112.836 15.2773C112.819 14.7526 112.794 14.2533 112.76 13.7793C112.726 13.3053 112.692 12.8906 112.658 12.5352C112.641 12.1797 112.633 11.9427 112.633 11.8242V11.7227Z" fill="#CCCCCC"/>
</svg>
