<svg width="199" height="35" viewBox="0 0 199 35" fill="none" xmlns="http://www.w3.org/2000/svg">
<path d="M0.996094 22.1211C0.957031 19.9531 0.898438 17.7949 0.820312 15.6465C0.761719 13.4785 0.732422 11.3105 0.732422 9.14258C0.732422 8.98633 0.732422 8.71289 0.732422 8.32227C0.732422 7.91211 0.732422 7.48242 0.732422 7.0332C0.751953 6.58398 0.761719 6.16406 0.761719 5.77344C0.761719 5.38281 0.761719 5.10938 0.761719 4.95312C0.839844 4.64063 0.957031 4.39648 1.11328 4.2207C1.26953 4.02539 1.51367 3.92773 1.8457 3.92773C2.17773 3.92773 2.4707 4.03516 2.72461 4.25C2.97852 4.44531 3.18359 4.67969 3.33984 4.95312L7.55859 13.0977C7.57813 13.1367 7.64648 13.2539 7.76367 13.4492C7.88086 13.6445 7.96875 13.7812 8.02734 13.8594C8.04688 13.8789 8.07617 13.8984 8.11523 13.918C8.1543 13.9375 8.17383 13.957 8.17383 13.9766L8.29102 13.7129L10.7812 4.95312C10.957 4.67969 11.084 4.37695 11.1621 4.04492C11.2598 3.69336 11.3574 3.35156 11.4551 3.01953C11.5723 2.6875 11.709 2.375 11.8652 2.08203C12.041 1.78906 12.2949 1.54492 12.627 1.34961H12.8613C13.3887 1.34961 13.7793 1.50586 14.0332 1.81836C14.2871 2.11133 14.4629 2.48242 14.5605 2.93164C14.6582 3.36133 14.6973 3.82031 14.6777 4.30859C14.6777 4.77734 14.6875 5.1875 14.707 5.53906C14.707 5.67578 14.7168 5.93945 14.7363 6.33008C14.7754 6.7207 14.8145 7.17969 14.8535 7.70703C14.8926 8.23438 14.9316 8.80078 14.9707 9.40625C15.0098 9.99219 15.0391 10.5488 15.0586 11.0762C15.0977 11.6035 15.127 12.0625 15.1465 12.4531C15.1855 12.8438 15.2051 13.0977 15.2051 13.2148V13.332C15.2246 13.5078 15.2637 13.8008 15.3223 14.2109C15.3809 14.6211 15.4395 15.0605 15.498 15.5293C15.5762 15.9785 15.6445 16.4082 15.7031 16.8184C15.7617 17.2285 15.8105 17.5117 15.8496 17.668C15.8691 17.7656 15.8984 17.9121 15.9375 18.1074C15.9961 18.3027 16.0547 18.5176 16.1133 18.752C16.1914 18.9668 16.2598 19.1719 16.3184 19.3672C16.377 19.5625 16.4258 19.6992 16.4648 19.7773C16.3867 20.2266 16.2695 20.5781 16.1133 20.832C15.9766 21.0664 15.6641 21.1836 15.1758 21.1836C15.1172 21.1836 15.0293 21.1836 14.9121 21.1836C14.7949 21.1641 14.7266 21.1543 14.707 21.1543C14.6484 21.1152 14.5312 21.0176 14.3555 20.8613C14.1992 20.7051 14.1113 20.5977 14.0918 20.5391L13.623 18.9277L12.7441 12.248V11.9844C12.7246 11.6328 12.7148 11.2617 12.7148 10.8711C12.7148 10.4609 12.7051 10.0508 12.6855 9.64062C12.6855 9.23047 12.666 8.82031 12.627 8.41016C12.5879 8 12.5098 7.61914 12.3926 7.26758L12.2461 7.44336L10.1367 15.9395C10.1172 16.1543 10.0977 16.3887 10.0781 16.6426C10.0586 16.877 10.0098 17.1113 9.93164 17.3457C9.85352 17.5605 9.73633 17.7461 9.58008 17.9023C9.42383 18.0586 9.19922 18.1465 8.90625 18.166C8.78906 18.1855 8.66211 18.166 8.52539 18.1074C8.38867 18.0488 8.25195 17.9707 8.11523 17.873C7.97852 17.7754 7.85156 17.668 7.73438 17.5508C7.63672 17.4141 7.57813 17.2871 7.55859 17.1699L3.83789 11.252L3.22266 10.0215V12.541C3.22266 13.7324 3.24219 14.9043 3.28125 16.0566C3.33984 17.1895 3.36914 18.3516 3.36914 19.543C3.36914 19.6406 3.36914 19.8164 3.36914 20.0703C3.36914 20.3047 3.35938 20.5586 3.33984 20.832C3.33984 21.1055 3.33984 21.3691 3.33984 21.623C3.33984 21.8574 3.33984 22.0234 3.33984 22.1211C3.26172 22.3555 3.14453 22.5605 2.98828 22.7363C2.85156 22.9121 2.64648 23 2.37305 23C2.00195 23 1.70898 22.9414 1.49414 22.8242C1.29883 22.6875 1.13281 22.4531 0.996094 22.1211ZM24.6387 14.8262C24.4629 15.1387 24.2578 15.5195 24.0234 15.9688C23.8086 16.3984 23.5742 16.8672 23.3203 17.375C23.0664 17.8633 22.7832 18.3613 22.4707 18.8691C22.1777 19.3574 21.8652 19.8066 21.5332 20.2168C21.2207 20.627 20.8887 20.9785 20.5371 21.2715C20.1855 21.5449 19.8242 21.7109 19.4531 21.7695C19.2969 21.7695 19.1211 21.7598 18.9258 21.7402C18.7305 21.7012 18.5352 21.6523 18.3398 21.5938C18.1445 21.5156 17.9785 21.418 17.8418 21.3008C17.7246 21.1641 17.666 20.9883 17.666 20.7734C17.6855 18.7812 17.832 16.9746 18.1055 15.3535C18.3789 13.7129 18.8086 12.2773 19.3945 11.0469C19.9805 9.79688 20.7324 8.76172 21.6504 7.94141C22.5684 7.12109 23.6816 6.53516 24.9902 6.18359C25.0293 6.18359 25.0977 6.18359 25.1953 6.18359C25.3125 6.16406 25.3906 6.1543 25.4297 6.1543C26.0156 6.13477 26.4355 6.4082 26.6895 6.97461C26.9629 7.52148 27.1582 8.40039 27.2754 9.61133C27.4121 10.8027 27.5 12.3457 27.5391 14.2402C27.5977 16.1152 27.7051 18.3711 27.8613 21.0078C27.9199 21.2227 27.9492 21.4082 27.9492 21.5645C27.9688 21.7207 27.9785 21.9062 27.9785 22.1211C27.9785 22.4141 27.8906 22.6387 27.7148 22.7949C27.5391 22.9316 27.3145 23 27.041 23C26.4746 23 26.0742 22.8438 25.8398 22.5312C25.6055 22.2188 25.4492 21.7988 25.3711 21.2715C25.3711 21.252 25.3516 21.0957 25.3125 20.8027C25.293 20.5098 25.2539 20.1777 25.1953 19.8066C25.1562 19.416 25.1172 19.0254 25.0781 18.6348C25.0391 18.2441 25.0098 17.9219 24.9902 17.668V17.5508C24.9512 17.3555 24.9219 17.1113 24.9023 16.8184C24.9023 16.5254 24.8828 16.2422 24.8438 15.9688C24.8047 15.6367 24.7754 15.3047 24.7559 14.9727L24.6387 14.8262ZM23.9941 9.02539C23.4668 9.41602 22.9492 9.94336 22.4414 10.6074C21.9336 11.2715 21.5723 11.916 21.3574 12.541C21.2598 12.834 21.1523 13.2344 21.0352 13.7422C20.918 14.25 20.8105 14.7578 20.7129 15.2656C20.6348 15.7539 20.5664 16.2129 20.5078 16.6426C20.4492 17.0527 20.4199 17.3164 20.4199 17.4336C20.4395 17.4336 20.459 17.4141 20.4785 17.375C20.5176 17.3359 20.5469 17.3066 20.5664 17.2871C21.7773 16.1152 22.627 14.8555 23.1152 13.5078C23.623 12.1406 23.916 10.6465 23.9941 9.02539ZM37.8516 22.0039C37.5781 21.6133 37.3438 21.0762 37.1484 20.3926C36.9727 19.6895 36.7969 18.957 36.6211 18.1953C36.4648 17.4141 36.3184 16.6621 36.1816 15.9395C36.0449 15.1973 35.8984 14.6113 35.7422 14.1816C35.6055 13.7324 35.4492 13.4785 35.2734 13.4199C35.0977 13.3613 34.8926 13.625 34.6582 14.2109L32.1094 22.0625C32.0117 22.3359 31.8945 22.5312 31.7578 22.6484C31.6211 22.7461 31.3965 22.7949 31.084 22.7949C30.9277 22.7949 30.7617 22.7754 30.5859 22.7363C30.4102 22.6777 30.2441 22.5996 30.0879 22.502C29.9316 22.4043 29.7949 22.2871 29.6777 22.1504C29.5801 22.0137 29.5215 21.8574 29.502 21.6816C29.5605 21.4473 29.6094 21.0176 29.6484 20.3926C29.707 19.7676 29.7461 19.0449 29.7656 18.2246C29.7852 17.4043 29.7949 16.5449 29.7949 15.6465C29.8145 14.7285 29.8145 13.8789 29.7949 13.0977C29.7949 12.2969 29.7852 11.6133 29.7656 11.0469C29.7461 10.4609 29.7266 10.0801 29.707 9.9043C29.707 9.70898 29.707 9.51367 29.707 9.31836C29.7266 9.10352 29.7559 8.9082 29.7949 8.73242C29.8535 8.55664 29.9414 8.41992 30.0586 8.32227C30.1953 8.20508 30.4004 8.14648 30.6738 8.14648C31.0449 8.14648 31.3867 8.30273 31.6992 8.61523C32.0312 8.92773 32.1973 9.25977 32.1973 9.61133C32.1973 10.1191 32.168 10.627 32.1094 11.1348C32.0703 11.623 32.0508 12.1211 32.0508 12.6289C32.0508 12.9414 32.0508 13.2051 32.0508 13.4199C32.0508 13.6348 32.0898 13.8984 32.168 14.2109C32.2266 14.0547 32.3242 13.7812 32.4609 13.3906C32.5977 13 32.7441 12.5898 32.9004 12.1602C33.0762 11.7305 33.2324 11.3301 33.3691 10.959C33.5059 10.5684 33.6035 10.2949 33.6621 10.1387C33.7988 9.74805 34.0039 9.37695 34.2773 9.02539C34.5508 8.6543 34.9121 8.44922 35.3613 8.41016C35.6543 8.39062 35.918 8.46875 36.1523 8.64453C36.4062 8.82031 36.6211 9.05469 36.7969 9.34766C36.9727 9.62109 37.1191 9.91406 37.2363 10.2266C37.3535 10.5195 37.4414 10.7734 37.5 10.9883L39.082 18.2832L40.3125 21.623C40.332 21.6426 40.3418 21.7012 40.3418 21.7988C40.3418 21.877 40.3418 21.9355 40.3418 21.9746C40.3418 22.209 40.2832 22.4434 40.166 22.6777C40.0684 22.8926 39.8828 23 39.6094 23C39.2773 23 38.9355 22.9121 38.584 22.7363C38.2324 22.541 37.9883 22.2969 37.8516 22.0039ZM48.457 14.8262C48.2812 15.1387 48.0762 15.5195 47.8418 15.9688C47.627 16.3984 47.3926 16.8672 47.1387 17.375C46.8848 17.8633 46.6016 18.3613 46.2891 18.8691C45.9961 19.3574 45.6836 19.8066 45.3516 20.2168C45.0391 20.627 44.707 20.9785 44.3555 21.2715C44.0039 21.5449 43.6426 21.7109 43.2715 21.7695C43.1152 21.7695 42.9395 21.7598 42.7441 21.7402C42.5488 21.7012 42.3535 21.6523 42.1582 21.5938C41.9629 21.5156 41.7969 21.418 41.6602 21.3008C41.543 21.1641 41.4844 20.9883 41.4844 20.7734C41.5039 18.7812 41.6504 16.9746 41.9238 15.3535C42.1973 13.7129 42.627 12.2773 43.2129 11.0469C43.7988 9.79688 44.5508 8.76172 45.4688 7.94141C46.3867 7.12109 47.5 6.53516 48.8086 6.18359C48.8477 6.18359 48.916 6.18359 49.0137 6.18359C49.1309 6.16406 49.209 6.1543 49.248 6.1543C49.834 6.13477 50.2539 6.4082 50.5078 6.97461C50.7812 7.52148 50.9766 8.40039 51.0938 9.61133C51.2305 10.8027 51.3184 12.3457 51.3574 14.2402C51.416 16.1152 51.5234 18.3711 51.6797 21.0078C51.7383 21.2227 51.7676 21.4082 51.7676 21.5645C51.7871 21.7207 51.7969 21.9062 51.7969 22.1211C51.7969 22.4141 51.709 22.6387 51.5332 22.7949C51.3574 22.9316 51.1328 23 50.8594 23C50.293 23 49.8926 22.8438 49.6582 22.5312C49.4238 22.2188 49.2676 21.7988 49.1895 21.2715C49.1895 21.252 49.1699 21.0957 49.1309 20.8027C49.1113 20.5098 49.0723 20.1777 49.0137 19.8066C48.9746 19.416 48.9355 19.0254 48.8965 18.6348C48.8574 18.2441 48.8281 17.9219 48.8086 17.668V17.5508C48.7695 17.3555 48.7402 17.1113 48.7207 16.8184C48.7207 16.5254 48.7012 16.2422 48.6621 15.9688C48.623 15.6367 48.5938 15.3047 48.5742 14.9727L48.457 14.8262ZM47.8125 9.02539C47.2852 9.41602 46.7676 9.94336 46.2598 10.6074C45.752 11.2715 45.3906 11.916 45.1758 12.541C45.0781 12.834 44.9707 13.2344 44.8535 13.7422C44.7363 14.25 44.6289 14.7578 44.5312 15.2656C44.4531 15.7539 44.3848 16.2129 44.3262 16.6426C44.2676 17.0527 44.2383 17.3164 44.2383 17.4336C44.2578 17.4336 44.2773 17.4141 44.2969 17.375C44.3359 17.3359 44.3652 17.3066 44.3848 17.2871C45.5957 16.1152 46.4453 14.8555 46.9336 13.5078C47.4414 12.1406 47.7344 10.6465 47.8125 9.02539ZM54.7559 33.2246C54.6777 33.0098 54.6777 32.7656 54.7559 32.4922C54.8535 32.2188 55.0391 32.043 55.3125 31.9648C55.7617 32.1602 56.2305 32.2871 56.7188 32.3457C57.207 32.4043 57.6953 32.4141 58.1836 32.375C58.6914 32.3359 59.1895 32.2578 59.6777 32.1406C60.166 32.0234 60.6348 31.8867 61.084 31.7305C61.5332 31.3594 61.8457 30.8711 62.0215 30.2656C62.1973 29.6797 62.2656 28.8691 62.2266 27.834C62.1875 26.8184 62.0508 25.5391 61.8164 23.9961C61.6016 22.4727 61.3184 20.5977 60.9668 18.3711C60.9668 18.3125 60.9668 18.2246 60.9668 18.1074C60.9863 17.9902 60.9863 17.8828 60.9668 17.7852C60.9473 17.668 60.9082 17.5801 60.8496 17.5215C60.8105 17.4629 60.752 17.4629 60.6738 17.5215C60.4199 18.0098 60.1172 18.5469 59.7656 19.1328C59.4336 19.6992 59.043 20.2363 58.5938 20.7441C58.1641 21.2324 57.6758 21.6426 57.1289 21.9746C56.6016 22.3066 56.0059 22.4727 55.3418 22.4727C54.7559 22.4727 54.2383 22.3066 53.7891 21.9746C53.3594 21.623 53.1445 21.125 53.1445 20.4805C53.1445 19.9922 53.2422 19.377 53.4375 18.6348C53.6523 17.8926 53.9355 17.1113 54.2871 16.291C54.6387 15.4512 55.0488 14.6211 55.5176 13.8008C55.9863 12.9805 56.4746 12.2383 56.9824 11.5742C57.4902 10.9102 58.0078 10.373 58.5352 9.96289C59.0625 9.5332 59.5703 9.31836 60.0586 9.31836C60.2539 9.31836 60.5078 9.35742 60.8203 9.43555C61.1523 9.49414 61.4648 9.5918 61.7578 9.72852C62.0703 9.86523 62.334 10.0215 62.5488 10.1973C62.7832 10.373 62.9004 10.5781 62.9004 10.8125V13.1855L64.8047 27.0137C64.8047 27.7949 64.7852 28.5371 64.7461 29.2402C64.7266 29.9629 64.5996 30.627 64.3652 31.2324C64.1504 31.8379 63.7988 32.375 63.3105 32.8438C62.8223 33.3125 62.1191 33.6934 61.2012 33.9863C61.084 34.0449 60.8398 34.0938 60.4688 34.1328C60.0977 34.1719 59.668 34.2012 59.1797 34.2207C58.7109 34.2402 58.2031 34.2402 57.6562 34.2207C57.1289 34.2012 56.6406 34.1523 56.1914 34.0742C55.7617 34.0156 55.4102 33.918 55.1367 33.7812C54.8633 33.6445 54.7363 33.459 54.7559 33.2246ZM59.3262 11.9258C59.1309 12.1406 58.8672 12.4824 58.5352 12.9512C58.2227 13.4199 57.9004 13.9375 57.5684 14.5039C57.2363 15.0703 56.9043 15.666 56.5723 16.291C56.2598 16.8965 56.0059 17.4629 55.8105 17.9902C55.6152 18.5176 55.4883 18.9668 55.4297 19.3379C55.3906 19.709 55.4785 19.9336 55.6934 20.0117C56.1035 19.7969 56.543 19.4453 57.0117 18.957C57.4805 18.4492 57.9199 17.8926 58.3301 17.2871C58.7598 16.6621 59.1309 16.0273 59.4434 15.3828C59.7754 14.7188 60 14.123 60.1172 13.5957C60.2539 13.0684 60.2637 12.6484 60.1465 12.3359C60.0488 12.0039 59.7754 11.8672 59.3262 11.9258ZM77.7539 14.6797C77.7148 15.0312 77.666 15.3047 77.6074 15.5C77.5684 15.6953 77.4902 15.8711 77.373 16.0273C77.2559 16.1836 77.0898 16.3496 76.875 16.5254C76.6602 16.6816 76.3672 16.916 75.9961 17.2285C75.625 17.5215 75.166 17.9121 74.6191 18.4004C74.0723 18.8887 73.4082 19.5234 72.627 20.3047C72.3145 20.5977 71.9922 20.9004 71.6602 21.2129C71.3281 21.5254 70.9766 21.8086 70.6055 22.0625C70.2539 22.2969 69.8828 22.4922 69.4922 22.6484C69.1016 22.8047 68.6914 22.8828 68.2617 22.8828C67.4219 22.8828 66.8066 22.5996 66.416 22.0332C66.0254 21.4668 65.8301 20.8125 65.8301 20.0703C65.8301 19.582 65.8398 19.1719 65.8594 18.8398C65.8984 18.5078 65.9766 18.0781 66.0938 17.5508C65.8789 17.3555 65.6934 17.1895 65.5371 17.0527C65.3809 16.8965 65.3027 16.6914 65.3027 16.4375C65.3027 16.2031 65.3516 16.0469 65.4492 15.9688C65.5664 15.8906 65.6934 15.8418 65.8301 15.8223C65.9863 15.7832 66.1328 15.7441 66.2695 15.7051C66.4062 15.666 66.5039 15.5879 66.5625 15.4707C66.6016 15.3535 66.6699 15.1387 66.7676 14.8262C66.8848 14.5137 67.002 14.1914 67.1191 13.8594C67.2363 13.5078 67.3438 13.1855 67.4414 12.8926C67.5586 12.5801 67.6367 12.3652 67.6758 12.248C67.8125 11.916 67.959 11.584 68.1152 11.252C68.291 10.9004 68.4863 10.5879 68.7012 10.3145C68.9355 10.041 69.1992 9.81641 69.4922 9.64062C69.8047 9.46484 70.166 9.37695 70.5762 9.37695C70.8105 9.37695 71.0938 9.48438 71.4258 9.69922C71.7773 9.91406 72.1094 10.1777 72.4219 10.4902C72.7344 10.7832 72.998 11.0957 73.2129 11.4277C73.4277 11.7598 73.5352 12.043 73.5352 12.2773C73.5352 12.5703 73.4668 12.8438 73.3301 13.0977C73.1934 13.332 73.0176 13.5566 72.8027 13.7715C72.6074 13.9668 72.3926 14.1523 72.1582 14.3281C71.9238 14.5039 71.709 14.6699 71.5137 14.8262C71.4941 14.8262 71.4551 14.8457 71.3965 14.8848C71.3379 14.9238 71.2891 14.9531 71.25 14.9727C71.2305 14.9922 71.1816 15.041 71.1035 15.1191C71.0449 15.1777 70.9766 15.2461 70.8984 15.3242C70.8203 15.4023 70.7422 15.4805 70.6641 15.5586C70.6055 15.6367 70.5664 15.6855 70.5469 15.7051C70.4883 15.7637 70.3711 15.8613 70.1953 15.998C70.0391 16.1152 69.8633 16.252 69.668 16.4082C69.4727 16.5449 69.2871 16.6816 69.1113 16.8184C68.9551 16.9355 68.8477 17.0137 68.7891 17.0527L68.6719 17.2871C68.6328 17.3652 68.5938 17.541 68.5547 17.8145C68.5352 18.0684 68.5059 18.3613 68.4668 18.6934C68.4277 19.0254 68.3887 19.3672 68.3496 19.7188C68.3301 20.0508 68.3203 20.3242 68.3203 20.5391C68.3203 20.5586 68.3301 20.5781 68.3496 20.5977C68.3887 20.6367 68.418 20.6562 68.4375 20.6562C68.5938 20.6562 68.7402 20.5879 68.877 20.4512C69.0137 20.3145 69.1602 20.2168 69.3164 20.1582L74.0039 15.8223L75.2051 13.9766C75.3027 13.8398 75.4883 13.6934 75.7617 13.5371C76.0547 13.3613 76.3477 13.2734 76.6406 13.2734C76.9336 13.2539 77.1875 13.3418 77.4023 13.5371C77.6367 13.7324 77.7539 14.1133 77.7539 14.6797ZM71.3086 12.3945C71.4062 12.3164 71.4453 12.1992 71.4258 12.043C71.4062 11.8867 71.3477 11.75 71.25 11.6328C71.1719 11.5156 71.0645 11.4473 70.9277 11.4277C70.791 11.3887 70.6641 11.457 70.5469 11.6328C70.4883 11.7109 70.3809 11.8672 70.2246 12.1016C70.0879 12.3359 69.9414 12.5801 69.7852 12.834C69.6484 13.0684 69.5312 13.2734 69.4336 13.4492C69.3359 13.625 69.3164 13.6934 69.375 13.6543L71.3086 12.3945ZM78.9844 13.4492C78.9453 12.9414 78.8965 12.4336 78.8379 11.9258C78.7988 11.3984 78.7305 10.8809 78.6328 10.373C78.6328 9.94336 78.7695 9.66992 79.043 9.55273C79.3359 9.43555 79.6484 9.37695 79.9805 9.37695H80.5664C80.8594 9.51367 81.0645 9.67969 81.1816 9.875C81.2988 10.0703 81.377 10.2852 81.416 10.5195C81.4551 10.7539 81.4648 10.998 81.4453 11.252C81.4453 11.5059 81.4551 11.75 81.4746 11.9844C81.4941 12.082 81.5039 12.248 81.5039 12.4824C81.5039 12.7168 81.5039 12.9609 81.5039 13.2148C81.5234 13.4688 81.543 13.7031 81.5625 13.918C81.6016 14.1328 81.6504 14.2695 81.709 14.3281L84.2871 9.49414C84.4043 9.2793 84.5703 9.10352 84.7852 8.9668C85.0195 8.81055 85.2734 8.75195 85.5469 8.79102C85.9766 8.83008 86.2988 8.91797 86.5137 9.05469C86.7285 9.17188 86.875 9.33789 86.9531 9.55273C87.0508 9.74805 87.0996 9.99219 87.0996 10.2852C87.1191 10.5781 87.1387 10.9004 87.1582 11.252C87.1582 11.3691 87.168 11.5938 87.1875 11.9258C87.207 12.2383 87.2266 12.5703 87.2461 12.9219C87.2852 13.2734 87.3145 13.6055 87.334 13.918C87.373 14.2305 87.4023 14.4453 87.4219 14.5625H87.5391C87.5781 14.4258 87.6465 14.1621 87.7441 13.7715C87.8613 13.3809 87.9883 12.9707 88.125 12.541C88.2617 12.1113 88.3887 11.7012 88.5059 11.3105C88.623 10.9199 88.7109 10.6465 88.7695 10.4902C88.7891 10.4512 88.8281 10.373 88.8867 10.2559C88.9453 10.1191 89.0039 9.98242 89.0625 9.8457C89.1211 9.68945 89.1797 9.55273 89.2383 9.43555C89.2969 9.29883 89.3359 9.20117 89.3555 9.14258C89.4922 8.92773 89.6289 8.82031 89.7656 8.82031C89.9219 8.80078 90.0879 8.79102 90.2637 8.79102C90.752 8.79102 91.123 8.91797 91.377 9.17188C91.6504 9.40625 91.8457 9.70898 91.9629 10.0801C92.0996 10.4512 92.1973 10.8613 92.2559 11.3105C92.3145 11.7402 92.3828 12.1406 92.4609 12.5117C92.4805 12.5117 92.4902 12.5312 92.4902 12.5703C92.4902 12.5898 92.4805 12.6094 92.4609 12.6289L94.0723 21.1543C94.1504 21.2324 94.1895 21.3008 94.1895 21.3594C94.209 21.418 94.2188 21.4961 94.2188 21.5938C94.2188 21.8086 94.1113 22.0234 93.8965 22.2383C93.7012 22.4336 93.4961 22.5312 93.2812 22.5312C92.9883 22.5312 92.6465 22.4238 92.2559 22.209C91.8848 21.9941 91.6699 21.7207 91.6113 21.3887L90.2637 14.4453L90.1172 14.2109C90.0781 14.3086 89.9902 14.5918 89.8535 15.0605C89.7363 15.5098 89.5898 16.0859 89.4141 16.7891C89.2383 17.4727 89.0332 18.2441 88.7988 19.1035C88.584 19.9629 88.3594 20.8418 88.125 21.7402C88.0859 21.916 87.9688 22.0527 87.7734 22.1504C87.5977 22.2285 87.4414 22.2676 87.3047 22.2676C86.8945 22.2676 86.5625 22.2188 86.3086 22.1211C86.0547 22.0234 85.8594 21.877 85.7227 21.6816C85.5859 21.4863 85.4883 21.252 85.4297 20.9785C85.3711 20.7051 85.3223 20.3926 85.2832 20.041C85.2832 19.9629 85.2637 19.6895 85.2246 19.2207C85.1855 18.7324 85.1367 18.1855 85.0781 17.5801C85.0391 16.9551 84.9902 16.3301 84.9316 15.7051C84.873 15.0801 84.834 14.582 84.8145 14.2109C84.8145 14.1328 84.8145 14.0742 84.8145 14.0352C84.8145 13.9961 84.8145 13.9668 84.8145 13.9473C84.8145 13.9082 84.8047 13.8691 84.7852 13.8301C84.7656 13.7715 84.7266 13.6836 84.668 13.5664L83.8184 15.5879L82.4707 20.5391L82.1777 22.3555C82.1582 22.4727 82.0996 22.5801 82.002 22.6777C81.9238 22.7559 81.8262 22.8242 81.709 22.8828C81.5918 22.9219 81.4746 22.9512 81.3574 22.9707C81.2402 22.9902 81.1426 23 81.0645 23C80.6348 23 80.2637 22.8438 79.9512 22.5312C79.6582 22.2188 79.502 21.877 79.4824 21.5059C79.4629 21.3691 79.4434 21.1055 79.4238 20.7148C79.4043 20.3047 79.375 19.8262 79.3359 19.2793C79.2969 18.7324 79.2578 18.1562 79.2188 17.5508C79.1992 16.9453 79.1699 16.3691 79.1309 15.8223C79.0918 15.2754 79.0527 14.7969 79.0137 14.3867C78.9941 13.9766 78.9844 13.7031 78.9844 13.5664V13.4492ZM107.812 14.6797C107.773 15.0312 107.725 15.3047 107.666 15.5C107.627 15.6953 107.549 15.8711 107.432 16.0273C107.314 16.1836 107.148 16.3496 106.934 16.5254C106.719 16.6816 106.426 16.916 106.055 17.2285C105.684 17.5215 105.225 17.9121 104.678 18.4004C104.131 18.8887 103.467 19.5234 102.686 20.3047C102.373 20.5977 102.051 20.9004 101.719 21.2129C101.387 21.5254 101.035 21.8086 100.664 22.0625C100.312 22.2969 99.9414 22.4922 99.5508 22.6484C99.1602 22.8047 98.75 22.8828 98.3203 22.8828C97.4805 22.8828 96.8652 22.5996 96.4746 22.0332C96.084 21.4668 95.8887 20.8125 95.8887 20.0703C95.8887 19.582 95.8984 19.1719 95.918 18.8398C95.957 18.5078 96.0352 18.0781 96.1523 17.5508C95.9375 17.3555 95.752 17.1895 95.5957 17.0527C95.4395 16.8965 95.3613 16.6914 95.3613 16.4375C95.3613 16.2031 95.4102 16.0469 95.5078 15.9688C95.625 15.8906 95.752 15.8418 95.8887 15.8223C96.0449 15.7832 96.1914 15.7441 96.3281 15.7051C96.4648 15.666 96.5625 15.5879 96.6211 15.4707C96.6602 15.3535 96.7285 15.1387 96.8262 14.8262C96.9434 14.5137 97.0605 14.1914 97.1777 13.8594C97.2949 13.5078 97.4023 13.1855 97.5 12.8926C97.6172 12.5801 97.6953 12.3652 97.7344 12.248C97.8711 11.916 98.0176 11.584 98.1738 11.252C98.3496 10.9004 98.5449 10.5879 98.7598 10.3145C98.9941 10.041 99.2578 9.81641 99.5508 9.64062C99.8633 9.46484 100.225 9.37695 100.635 9.37695C100.869 9.37695 101.152 9.48438 101.484 9.69922C101.836 9.91406 102.168 10.1777 102.48 10.4902C102.793 10.7832 103.057 11.0957 103.271 11.4277C103.486 11.7598 103.594 12.043 103.594 12.2773C103.594 12.5703 103.525 12.8438 103.389 13.0977C103.252 13.332 103.076 13.5566 102.861 13.7715C102.666 13.9668 102.451 14.1523 102.217 14.3281C101.982 14.5039 101.768 14.6699 101.572 14.8262C101.553 14.8262 101.514 14.8457 101.455 14.8848C101.396 14.9238 101.348 14.9531 101.309 14.9727C101.289 14.9922 101.24 15.041 101.162 15.1191C101.104 15.1777 101.035 15.2461 100.957 15.3242C100.879 15.4023 100.801 15.4805 100.723 15.5586C100.664 15.6367 100.625 15.6855 100.605 15.7051C100.547 15.7637 100.43 15.8613 100.254 15.998C100.098 16.1152 99.9219 16.252 99.7266 16.4082C99.5312 16.5449 99.3457 16.6816 99.1699 16.8184C99.0137 16.9355 98.9062 17.0137 98.8477 17.0527L98.7305 17.2871C98.6914 17.3652 98.6523 17.541 98.6133 17.8145C98.5938 18.0684 98.5645 18.3613 98.5254 18.6934C98.4863 19.0254 98.4473 19.3672 98.4082 19.7188C98.3887 20.0508 98.3789 20.3242 98.3789 20.5391C98.3789 20.5586 98.3887 20.5781 98.4082 20.5977C98.4473 20.6367 98.4766 20.6562 98.4961 20.6562C98.6523 20.6562 98.7988 20.5879 98.9355 20.4512C99.0723 20.3145 99.2188 20.2168 99.375 20.1582L104.062 15.8223L105.264 13.9766C105.361 13.8398 105.547 13.6934 105.82 13.5371C106.113 13.3613 106.406 13.2734 106.699 13.2734C106.992 13.2539 107.246 13.3418 107.461 13.5371C107.695 13.7324 107.812 14.1133 107.812 14.6797ZM101.367 12.3945C101.465 12.3164 101.504 12.1992 101.484 12.043C101.465 11.8867 101.406 11.75 101.309 11.6328C101.23 11.5156 101.123 11.4473 100.986 11.4277C100.85 11.3887 100.723 11.457 100.605 11.6328C100.547 11.7109 100.439 11.8672 100.283 12.1016C100.146 12.3359 100 12.5801 99.8438 12.834C99.707 13.0684 99.5898 13.2734 99.4922 13.4492C99.3945 13.625 99.375 13.6934 99.4336 13.6543L101.367 12.3945ZM116.953 22.0039C116.68 21.6133 116.445 21.0762 116.25 20.3926C116.074 19.6895 115.898 18.957 115.723 18.1953C115.566 17.4141 115.42 16.6621 115.283 15.9395C115.146 15.1973 115 14.6113 114.844 14.1816C114.707 13.7324 114.551 13.4785 114.375 13.4199C114.199 13.3613 113.994 13.625 113.76 14.2109L111.211 22.0625C111.113 22.3359 110.996 22.5312 110.859 22.6484C110.723 22.7461 110.498 22.7949 110.186 22.7949C110.029 22.7949 109.863 22.7754 109.688 22.7363C109.512 22.6777 109.346 22.5996 109.189 22.502C109.033 22.4043 108.896 22.2871 108.779 22.1504C108.682 22.0137 108.623 21.8574 108.604 21.6816C108.662 21.4473 108.711 21.0176 108.75 20.3926C108.809 19.7676 108.848 19.0449 108.867 18.2246C108.887 17.4043 108.896 16.5449 108.896 15.6465C108.916 14.7285 108.916 13.8789 108.896 13.0977C108.896 12.2969 108.887 11.6133 108.867 11.0469C108.848 10.4609 108.828 10.0801 108.809 9.9043C108.809 9.70898 108.809 9.51367 108.809 9.31836C108.828 9.10352 108.857 8.9082 108.896 8.73242C108.955 8.55664 109.043 8.41992 109.16 8.32227C109.297 8.20508 109.502 8.14648 109.775 8.14648C110.146 8.14648 110.488 8.30273 110.801 8.61523C111.133 8.92773 111.299 9.25977 111.299 9.61133C111.299 10.1191 111.27 10.627 111.211 11.1348C111.172 11.623 111.152 12.1211 111.152 12.6289C111.152 12.9414 111.152 13.2051 111.152 13.4199C111.152 13.6348 111.191 13.8984 111.27 14.2109C111.328 14.0547 111.426 13.7812 111.562 13.3906C111.699 13 111.846 12.5898 112.002 12.1602C112.178 11.7305 112.334 11.3301 112.471 10.959C112.607 10.5684 112.705 10.2949 112.764 10.1387C112.9 9.74805 113.105 9.37695 113.379 9.02539C113.652 8.6543 114.014 8.44922 114.463 8.41016C114.756 8.39062 115.02 8.46875 115.254 8.64453C115.508 8.82031 115.723 9.05469 115.898 9.34766C116.074 9.62109 116.221 9.91406 116.338 10.2266C116.455 10.5195 116.543 10.7734 116.602 10.9883L118.184 18.2832L119.414 21.623C119.434 21.6426 119.443 21.7012 119.443 21.7988C119.443 21.877 119.443 21.9355 119.443 21.9746C119.443 22.209 119.385 22.4434 119.268 22.6777C119.17 22.8926 118.984 23 118.711 23C118.379 23 118.037 22.9121 117.686 22.7363C117.334 22.541 117.09 22.2969 116.953 22.0039ZM123.545 14.4453C123.271 14.4453 123.027 14.5137 122.812 14.6504C122.598 14.7871 122.344 14.8555 122.051 14.8555C122.012 14.8555 121.904 14.8555 121.729 14.8555C121.572 14.8359 121.475 14.8262 121.436 14.8262C121.357 14.7285 121.27 14.6504 121.172 14.5918C121.074 14.5332 120.977 14.4746 120.879 14.416C120.781 14.3379 120.693 14.25 120.615 14.1523C120.557 14.0547 120.527 13.918 120.527 13.7422C120.527 13.4492 120.645 13.2148 120.879 13.0391C121.113 12.8438 121.387 12.6777 121.699 12.541C122.012 12.4043 122.324 12.2773 122.637 12.1602C122.969 12.043 123.232 11.9062 123.428 11.75V10.4609C123.428 9.01562 123.359 7.57031 123.223 6.125C123.086 4.66016 123.018 3.21484 123.018 1.78906C123.018 1.39844 123.115 1.14453 123.311 1.02734C123.506 0.910156 123.77 0.851562 124.102 0.851562C124.492 0.851562 124.775 0.96875 124.951 1.20312C125.146 1.41797 125.283 1.69141 125.361 2.02344C125.439 2.33594 125.479 2.67773 125.479 3.04883C125.479 3.40039 125.488 3.70313 125.508 3.95703C125.508 4.21094 125.527 4.66016 125.566 5.30469C125.605 5.94922 125.645 6.63281 125.684 7.35547C125.723 8.07812 125.762 8.76172 125.801 9.40625C125.84 10.0508 125.869 10.5 125.889 10.7539C125.967 10.7344 126.113 10.6855 126.328 10.6074C126.562 10.5098 126.807 10.4219 127.061 10.3438C127.314 10.2461 127.549 10.1582 127.764 10.0801C127.998 10.002 128.164 9.94336 128.262 9.9043C128.77 9.68945 129.297 9.45508 129.844 9.20117C130.391 8.92773 130.947 8.79102 131.514 8.79102C131.904 8.79102 132.197 8.92773 132.393 9.20117C132.607 9.45508 132.715 9.75781 132.715 10.1094C132.715 10.3633 132.617 10.5488 132.422 10.666C132.227 10.7832 132.021 10.8906 131.807 10.9883L126.475 12.9805C126.416 13.0195 126.357 13.0586 126.299 13.0977C126.24 13.1172 126.182 13.1562 126.123 13.2148V14.1523C126.123 14.8359 126.133 15.5488 126.152 16.291C126.191 17.0137 126.26 17.7168 126.357 18.4004C126.455 18.9863 126.562 19.5625 126.68 20.1289C126.797 20.6953 126.855 21.2715 126.855 21.8574C126.855 22.0332 126.797 22.2676 126.68 22.5605C126.562 22.8535 126.377 23 126.123 23C125.596 23 125.166 22.8438 124.834 22.5312C124.502 22.2188 124.316 21.7988 124.277 21.2715C124.18 20.2559 124.072 19.1426 123.955 17.9316C123.857 16.7207 123.76 15.5586 123.662 14.4453H123.545ZM148.477 14.4453C148.203 14.4453 147.959 14.5137 147.744 14.6504C147.529 14.7871 147.275 14.8555 146.982 14.8555C146.943 14.8555 146.836 14.8555 146.66 14.8555C146.504 14.8359 146.406 14.8262 146.367 14.8262C146.289 14.7285 146.201 14.6504 146.104 14.5918C146.006 14.5332 145.908 14.4746 145.811 14.416C145.713 14.3379 145.625 14.25 145.547 14.1523C145.488 14.0547 145.459 13.918 145.459 13.7422C145.459 13.4492 145.576 13.2148 145.811 13.0391C146.045 12.8438 146.318 12.6777 146.631 12.541C146.943 12.4043 147.256 12.2773 147.568 12.1602C147.9 12.043 148.164 11.9062 148.359 11.75V10.4609C148.359 9.01562 148.291 7.57031 148.154 6.125C148.018 4.66016 147.949 3.21484 147.949 1.78906C147.949 1.39844 148.047 1.14453 148.242 1.02734C148.438 0.910156 148.701 0.851562 149.033 0.851562C149.424 0.851562 149.707 0.96875 149.883 1.20312C150.078 1.41797 150.215 1.69141 150.293 2.02344C150.371 2.33594 150.41 2.67773 150.41 3.04883C150.41 3.40039 150.42 3.70313 150.439 3.95703C150.439 4.21094 150.459 4.66016 150.498 5.30469C150.537 5.94922 150.576 6.63281 150.615 7.35547C150.654 8.07812 150.693 8.76172 150.732 9.40625C150.771 10.0508 150.801 10.5 150.82 10.7539C150.898 10.7344 151.045 10.6855 151.26 10.6074C151.494 10.5098 151.738 10.4219 151.992 10.3438C152.246 10.2461 152.48 10.1582 152.695 10.0801C152.93 10.002 153.096 9.94336 153.193 9.9043C153.701 9.68945 154.229 9.45508 154.775 9.20117C155.322 8.92773 155.879 8.79102 156.445 8.79102C156.836 8.79102 157.129 8.92773 157.324 9.20117C157.539 9.45508 157.646 9.75781 157.646 10.1094C157.646 10.3633 157.549 10.5488 157.354 10.666C157.158 10.7832 156.953 10.8906 156.738 10.9883L151.406 12.9805C151.348 13.0195 151.289 13.0586 151.23 13.0977C151.172 13.1172 151.113 13.1562 151.055 13.2148V14.1523C151.055 14.8359 151.064 15.5488 151.084 16.291C151.123 17.0137 151.191 17.7168 151.289 18.4004C151.387 18.9863 151.494 19.5625 151.611 20.1289C151.729 20.6953 151.787 21.2715 151.787 21.8574C151.787 22.0332 151.729 22.2676 151.611 22.5605C151.494 22.8535 151.309 23 151.055 23C150.527 23 150.098 22.8438 149.766 22.5312C149.434 22.2188 149.248 21.7988 149.209 21.2715C149.111 20.2559 149.004 19.1426 148.887 17.9316C148.789 16.7207 148.691 15.5586 148.594 14.4453H148.477ZM170.83 14.6797C170.791 15.0312 170.742 15.3047 170.684 15.5C170.645 15.6953 170.566 15.8711 170.449 16.0273C170.332 16.1836 170.166 16.3496 169.951 16.5254C169.736 16.6816 169.443 16.916 169.072 17.2285C168.701 17.5215 168.242 17.9121 167.695 18.4004C167.148 18.8887 166.484 19.5234 165.703 20.3047C165.391 20.5977 165.068 20.9004 164.736 21.2129C164.404 21.5254 164.053 21.8086 163.682 22.0625C163.33 22.2969 162.959 22.4922 162.568 22.6484C162.178 22.8047 161.768 22.8828 161.338 22.8828C160.498 22.8828 159.883 22.5996 159.492 22.0332C159.102 21.4668 158.906 20.8125 158.906 20.0703C158.906 19.582 158.916 19.1719 158.936 18.8398C158.975 18.5078 159.053 18.0781 159.17 17.5508C158.955 17.3555 158.77 17.1895 158.613 17.0527C158.457 16.8965 158.379 16.6914 158.379 16.4375C158.379 16.2031 158.428 16.0469 158.525 15.9688C158.643 15.8906 158.77 15.8418 158.906 15.8223C159.062 15.7832 159.209 15.7441 159.346 15.7051C159.482 15.666 159.58 15.5879 159.639 15.4707C159.678 15.3535 159.746 15.1387 159.844 14.8262C159.961 14.5137 160.078 14.1914 160.195 13.8594C160.312 13.5078 160.42 13.1855 160.518 12.8926C160.635 12.5801 160.713 12.3652 160.752 12.248C160.889 11.916 161.035 11.584 161.191 11.252C161.367 10.9004 161.562 10.5879 161.777 10.3145C162.012 10.041 162.275 9.81641 162.568 9.64062C162.881 9.46484 163.242 9.37695 163.652 9.37695C163.887 9.37695 164.17 9.48438 164.502 9.69922C164.854 9.91406 165.186 10.1777 165.498 10.4902C165.811 10.7832 166.074 11.0957 166.289 11.4277C166.504 11.7598 166.611 12.043 166.611 12.2773C166.611 12.5703 166.543 12.8438 166.406 13.0977C166.27 13.332 166.094 13.5566 165.879 13.7715C165.684 13.9668 165.469 14.1523 165.234 14.3281C165 14.5039 164.785 14.6699 164.59 14.8262C164.57 14.8262 164.531 14.8457 164.473 14.8848C164.414 14.9238 164.365 14.9531 164.326 14.9727C164.307 14.9922 164.258 15.041 164.18 15.1191C164.121 15.1777 164.053 15.2461 163.975 15.3242C163.896 15.4023 163.818 15.4805 163.74 15.5586C163.682 15.6367 163.643 15.6855 163.623 15.7051C163.564 15.7637 163.447 15.8613 163.271 15.998C163.115 16.1152 162.939 16.252 162.744 16.4082C162.549 16.5449 162.363 16.6816 162.188 16.8184C162.031 16.9355 161.924 17.0137 161.865 17.0527L161.748 17.2871C161.709 17.3652 161.67 17.541 161.631 17.8145C161.611 18.0684 161.582 18.3613 161.543 18.6934C161.504 19.0254 161.465 19.3672 161.426 19.7188C161.406 20.0508 161.396 20.3242 161.396 20.5391C161.396 20.5586 161.406 20.5781 161.426 20.5977C161.465 20.6367 161.494 20.6562 161.514 20.6562C161.67 20.6562 161.816 20.5879 161.953 20.4512C162.09 20.3145 162.236 20.2168 162.393 20.1582L167.08 15.8223L168.281 13.9766C168.379 13.8398 168.564 13.6934 168.838 13.5371C169.131 13.3613 169.424 13.2734 169.717 13.2734C170.01 13.2539 170.264 13.3418 170.479 13.5371C170.713 13.7324 170.83 14.1133 170.83 14.6797ZM164.385 12.3945C164.482 12.3164 164.521 12.1992 164.502 12.043C164.482 11.8867 164.424 11.75 164.326 11.6328C164.248 11.5156 164.141 11.4473 164.004 11.4277C163.867 11.3887 163.74 11.457 163.623 11.6328C163.564 11.7109 163.457 11.8672 163.301 12.1016C163.164 12.3359 163.018 12.5801 162.861 12.834C162.725 13.0684 162.607 13.2734 162.51 13.4492C162.412 13.625 162.393 13.6934 162.451 13.6543L164.385 12.3945ZM178.447 14.8262C178.271 15.1387 178.066 15.5195 177.832 15.9688C177.617 16.3984 177.383 16.8672 177.129 17.375C176.875 17.8633 176.592 18.3613 176.279 18.8691C175.986 19.3574 175.674 19.8066 175.342 20.2168C175.029 20.627 174.697 20.9785 174.346 21.2715C173.994 21.5449 173.633 21.7109 173.262 21.7695C173.105 21.7695 172.93 21.7598 172.734 21.7402C172.539 21.7012 172.344 21.6523 172.148 21.5938C171.953 21.5156 171.787 21.418 171.65 21.3008C171.533 21.1641 171.475 20.9883 171.475 20.7734C171.494 18.7812 171.641 16.9746 171.914 15.3535C172.188 13.7129 172.617 12.2773 173.203 11.0469C173.789 9.79688 174.541 8.76172 175.459 7.94141C176.377 7.12109 177.49 6.53516 178.799 6.18359C178.838 6.18359 178.906 6.18359 179.004 6.18359C179.121 6.16406 179.199 6.1543 179.238 6.1543C179.824 6.13477 180.244 6.4082 180.498 6.97461C180.771 7.52148 180.967 8.40039 181.084 9.61133C181.221 10.8027 181.309 12.3457 181.348 14.2402C181.406 16.1152 181.514 18.3711 181.67 21.0078C181.729 21.2227 181.758 21.4082 181.758 21.5645C181.777 21.7207 181.787 21.9062 181.787 22.1211C181.787 22.4141 181.699 22.6387 181.523 22.7949C181.348 22.9316 181.123 23 180.85 23C180.283 23 179.883 22.8438 179.648 22.5312C179.414 22.2188 179.258 21.7988 179.18 21.2715C179.18 21.252 179.16 21.0957 179.121 20.8027C179.102 20.5098 179.062 20.1777 179.004 19.8066C178.965 19.416 178.926 19.0254 178.887 18.6348C178.848 18.2441 178.818 17.9219 178.799 17.668V17.5508C178.76 17.3555 178.73 17.1113 178.711 16.8184C178.711 16.5254 178.691 16.2422 178.652 15.9688C178.613 15.6367 178.584 15.3047 178.564 14.9727L178.447 14.8262ZM177.803 9.02539C177.275 9.41602 176.758 9.94336 176.25 10.6074C175.742 11.2715 175.381 11.916 175.166 12.541C175.068 12.834 174.961 13.2344 174.844 13.7422C174.727 14.25 174.619 14.7578 174.521 15.2656C174.443 15.7539 174.375 16.2129 174.316 16.6426C174.258 17.0527 174.229 17.3164 174.229 17.4336C174.248 17.4336 174.268 17.4141 174.287 17.375C174.326 17.3359 174.355 17.3066 174.375 17.2871C175.586 16.1152 176.436 14.8555 176.924 13.5078C177.432 12.1406 177.725 10.6465 177.803 9.02539ZM183.75 13.4492C183.711 12.9414 183.662 12.4336 183.604 11.9258C183.564 11.3984 183.496 10.8809 183.398 10.373C183.398 9.94336 183.535 9.66992 183.809 9.55273C184.102 9.43555 184.414 9.37695 184.746 9.37695H185.332C185.625 9.51367 185.83 9.67969 185.947 9.875C186.064 10.0703 186.143 10.2852 186.182 10.5195C186.221 10.7539 186.23 10.998 186.211 11.252C186.211 11.5059 186.221 11.75 186.24 11.9844C186.26 12.082 186.27 12.248 186.27 12.4824C186.27 12.7168 186.27 12.9609 186.27 13.2148C186.289 13.4688 186.309 13.7031 186.328 13.918C186.367 14.1328 186.416 14.2695 186.475 14.3281L189.053 9.49414C189.17 9.2793 189.336 9.10352 189.551 8.9668C189.785 8.81055 190.039 8.75195 190.312 8.79102C190.742 8.83008 191.064 8.91797 191.279 9.05469C191.494 9.17188 191.641 9.33789 191.719 9.55273C191.816 9.74805 191.865 9.99219 191.865 10.2852C191.885 10.5781 191.904 10.9004 191.924 11.252C191.924 11.3691 191.934 11.5938 191.953 11.9258C191.973 12.2383 191.992 12.5703 192.012 12.9219C192.051 13.2734 192.08 13.6055 192.1 13.918C192.139 14.2305 192.168 14.4453 192.188 14.5625H192.305C192.344 14.4258 192.412 14.1621 192.51 13.7715C192.627 13.3809 192.754 12.9707 192.891 12.541C193.027 12.1113 193.154 11.7012 193.271 11.3105C193.389 10.9199 193.477 10.6465 193.535 10.4902C193.555 10.4512 193.594 10.373 193.652 10.2559C193.711 10.1191 193.77 9.98242 193.828 9.8457C193.887 9.68945 193.945 9.55273 194.004 9.43555C194.062 9.29883 194.102 9.20117 194.121 9.14258C194.258 8.92773 194.395 8.82031 194.531 8.82031C194.688 8.80078 194.854 8.79102 195.029 8.79102C195.518 8.79102 195.889 8.91797 196.143 9.17188C196.416 9.40625 196.611 9.70898 196.729 10.0801C196.865 10.4512 196.963 10.8613 197.021 11.3105C197.08 11.7402 197.148 12.1406 197.227 12.5117C197.246 12.5117 197.256 12.5312 197.256 12.5703C197.256 12.5898 197.246 12.6094 197.227 12.6289L198.838 21.1543C198.916 21.2324 198.955 21.3008 198.955 21.3594C198.975 21.418 198.984 21.4961 198.984 21.5938C198.984 21.8086 198.877 22.0234 198.662 22.2383C198.467 22.4336 198.262 22.5312 198.047 22.5312C197.754 22.5312 197.412 22.4238 197.021 22.209C196.65 21.9941 196.436 21.7207 196.377 21.3887L195.029 14.4453L194.883 14.2109C194.844 14.3086 194.756 14.5918 194.619 15.0605C194.502 15.5098 194.355 16.0859 194.18 16.7891C194.004 17.4727 193.799 18.2441 193.564 19.1035C193.35 19.9629 193.125 20.8418 192.891 21.7402C192.852 21.916 192.734 22.0527 192.539 22.1504C192.363 22.2285 192.207 22.2676 192.07 22.2676C191.66 22.2676 191.328 22.2188 191.074 22.1211C190.82 22.0234 190.625 21.877 190.488 21.6816C190.352 21.4863 190.254 21.252 190.195 20.9785C190.137 20.7051 190.088 20.3926 190.049 20.041C190.049 19.9629 190.029 19.6895 189.99 19.2207C189.951 18.7324 189.902 18.1855 189.844 17.5801C189.805 16.9551 189.756 16.3301 189.697 15.7051C189.639 15.0801 189.6 14.582 189.58 14.2109C189.58 14.1328 189.58 14.0742 189.58 14.0352C189.58 13.9961 189.58 13.9668 189.58 13.9473C189.58 13.9082 189.57 13.8691 189.551 13.8301C189.531 13.7715 189.492 13.6836 189.434 13.5664L188.584 15.5879L187.236 20.5391L186.943 22.3555C186.924 22.4727 186.865 22.5801 186.768 22.6777C186.689 22.7559 186.592 22.8242 186.475 22.8828C186.357 22.9219 186.24 22.9512 186.123 22.9707C186.006 22.9902 185.908 23 185.83 23C185.4 23 185.029 22.8438 184.717 22.5312C184.424 22.2188 184.268 21.877 184.248 21.5059C184.229 21.3691 184.209 21.1055 184.189 20.7148C184.17 20.3047 184.141 19.8262 184.102 19.2793C184.062 18.7324 184.023 18.1562 183.984 17.5508C183.965 16.9453 183.936 16.3691 183.896 15.8223C183.857 15.2754 183.818 14.7969 183.779 14.3867C183.76 13.9766 183.75 13.7031 183.75 13.5664V13.4492Z" fill="#CCCCCC"/>
</svg>
