<svg width="111" height="25" viewBox="0 0 111 25" fill="none" xmlns="http://www.w3.org/2000/svg">
<path d="M0.644531 17.8145C0.664062 17.6973 0.664062 17.3848 0.644531 16.877C0.625 16.3691 0.615234 15.7441 0.615234 15.002C0.634766 14.2402 0.654297 13.4102 0.673828 12.5117C0.712891 11.6133 0.78125 10.7051 0.878906 9.78711C0.996094 8.86914 1.15234 7.99023 1.34766 7.15039C1.5625 6.29102 1.83594 5.54883 2.16797 4.92383C2.28516 4.39648 2.56836 4.03516 3.01758 3.83984C3.4668 3.625 4.10156 3.49805 4.92188 3.45898C5.44922 3.45898 5.89844 3.5957 6.26953 3.86914C6.64062 4.14258 6.95312 4.48438 7.20703 4.89453C7.48047 5.28516 7.71484 5.71484 7.91016 6.18359C8.10547 6.65234 8.28125 7.07227 8.4375 7.44336V7.58984C8.57422 7.98047 8.67188 8.56641 8.73047 9.34766C8.80859 10.1094 8.85742 10.9199 8.87695 11.7793C8.91602 12.6191 8.93555 13.4297 8.93555 14.2109C8.93555 14.9922 8.93555 15.5879 8.93555 15.998C8.93555 16.584 8.85742 17.2871 8.70117 18.1074C8.54492 18.9082 8.29102 19.6699 7.93945 20.3926C7.60742 21.1152 7.16797 21.7305 6.62109 22.2383C6.07422 22.7461 5.41992 23 4.6582 23C4.01367 23 3.4375 22.834 2.92969 22.502C2.44141 22.1699 2.02148 21.75 1.66992 21.2422C1.33789 20.7148 1.08398 20.1484 0.908203 19.543C0.732422 18.9375 0.644531 18.3613 0.644531 17.8145ZM3.48633 19.7773C3.52539 19.9922 3.63281 20.2168 3.80859 20.4512C4.00391 20.666 4.22852 20.7734 4.48242 20.7734H4.7168C5.53711 20.0312 6.07422 19.1816 6.32812 18.2246C6.58203 17.248 6.70898 16.2227 6.70898 15.1484C6.70898 14.8945 6.69922 14.5039 6.67969 13.9766C6.66016 13.4492 6.62109 12.8633 6.5625 12.2188C6.52344 11.5547 6.46484 10.8613 6.38672 10.1387C6.30859 9.41602 6.21094 8.74219 6.09375 8.11719C5.97656 7.47266 5.83984 6.91602 5.68359 6.44727C5.52734 5.97852 5.3418 5.65625 5.12695 5.48047C5.10742 5.5 5.07812 5.53906 5.03906 5.59766C5.01953 5.65625 5.00977 5.69531 5.00977 5.71484C4.59961 6.22266 4.22852 6.91602 3.89648 7.79492C3.56445 8.67383 3.31055 9.71875 3.13477 10.9297C2.97852 12.1211 2.91016 13.4688 2.92969 14.9727C2.96875 16.457 3.1543 18.0586 3.48633 19.7773ZM16.1426 20.2168C16.0059 20.5098 15.8691 20.832 15.7324 21.1836C15.5957 21.5156 15.4395 21.8184 15.2637 22.0918C15.0879 22.3652 14.873 22.5996 14.6191 22.7949C14.3652 22.9707 14.043 23.0586 13.6523 23.0586C12.9688 23.0586 12.4023 22.8926 11.9531 22.5605C11.5039 22.209 11.1328 21.7793 10.8398 21.2715C10.5664 20.7441 10.3711 20.1777 10.2539 19.5723C10.1367 18.9668 10.0781 18.4004 10.0781 17.873L10.3125 10.7832C10.293 10.6465 10.3223 10.5098 10.4004 10.373C10.498 10.2168 10.6152 10.0801 10.752 9.96289C10.9082 9.82617 11.0742 9.71875 11.25 9.64062C11.4453 9.5625 11.6211 9.52344 11.7773 9.52344C12.2266 9.52344 12.6074 9.66992 12.9199 9.96289C13.2324 10.2363 13.3887 10.5977 13.3887 11.0469V11.3398C13.1738 11.6914 12.9883 12.1504 12.832 12.7168C12.6758 13.2832 12.5488 13.8984 12.4512 14.5625C12.373 15.207 12.3242 15.8711 12.3047 16.5547C12.2852 17.2383 12.3047 17.8633 12.3633 18.4297C12.4414 18.9961 12.5586 19.4844 12.7148 19.8945C12.8711 20.2852 13.0762 20.5195 13.3301 20.5977C13.4277 20.5977 13.5742 20.5488 13.7695 20.4512C13.9844 20.3535 14.209 20.168 14.4434 19.8945C14.6777 19.6211 14.9219 19.2402 15.1758 18.752C15.4297 18.2441 15.6543 17.5801 15.8496 16.7598C16.0449 15.9395 16.1914 14.9434 16.2891 13.7715C16.3867 12.5996 16.416 11.1934 16.377 9.55273C16.4551 9.33789 16.5625 9.2207 16.6992 9.20117C16.8555 9.18164 17.0117 9.17188 17.168 9.17188C17.3438 9.17188 17.4902 9.18164 17.6074 9.20117C17.7246 9.20117 17.8516 9.26953 17.9883 9.40625C18.0859 9.50391 18.1934 9.65039 18.3105 9.8457C18.4277 10.041 18.4863 10.1484 18.4863 10.168L18.9844 23.1465C18.9844 23.4395 18.9062 23.6836 18.75 23.8789C18.5938 24.0742 18.3691 24.1719 18.0762 24.1719C17.9785 24.1719 17.8613 24.1621 17.7246 24.1426C17.5879 24.123 17.4512 24.084 17.3145 24.0254C17.1777 23.9668 17.0508 23.8887 16.9336 23.791C16.8359 23.7129 16.7773 23.6152 16.7578 23.498L16.2598 20.5684L16.1426 20.2168ZM21.9141 21.7402C21.875 21.0371 21.8066 20.0996 21.709 18.9277C21.6309 17.7363 21.5332 16.5059 21.416 15.2363C21.3184 13.9668 21.2109 12.7656 21.0938 11.6328C20.9766 10.5 20.8789 9.62109 20.8008 8.99609C20.8008 8.74219 20.918 8.57617 21.1523 8.49805C21.3867 8.41992 21.6113 8.38086 21.8262 8.38086C22.0996 8.38086 22.3828 8.45898 22.6758 8.61523C22.9883 8.77148 23.1836 8.98633 23.2617 9.25977C23.2617 9.33789 23.2715 9.48438 23.291 9.69922C23.3105 9.89453 23.3203 10.0996 23.3203 10.3145C23.3398 10.5293 23.3594 10.7441 23.3789 10.959C23.3984 11.1543 23.4082 11.291 23.4082 11.3691C23.4082 11.4863 23.4082 11.5742 23.4082 11.6328C23.4082 11.6914 23.4082 11.75 23.4082 11.8086C23.4082 11.8477 23.418 11.8965 23.4375 11.9551C23.457 12.0137 23.4863 12.1113 23.5254 12.248C23.5645 12.209 23.6035 12.1602 23.6426 12.1016C23.7012 12.043 23.7402 12.0039 23.7598 11.9844C24.0723 11.5352 24.375 11.1445 24.668 10.8125C24.9609 10.4609 25.2637 10.1387 25.5762 9.8457C25.8887 9.5332 26.2305 9.21094 26.6016 8.87891C26.9922 8.52734 27.4414 8.12695 27.9492 7.67773C28.0664 7.58008 28.1543 7.51172 28.2129 7.47266C28.2715 7.41406 28.3203 7.375 28.3594 7.35547C28.418 7.31641 28.4766 7.29688 28.5352 7.29688C28.5938 7.27734 28.6719 7.26758 28.7695 7.26758C29.1016 7.26758 29.4336 7.38477 29.7656 7.61914C30.1172 7.83398 30.293 8.13672 30.293 8.52734C30.293 8.66406 30.2441 8.81055 30.1465 8.9668C30.0488 9.10352 29.9316 9.24023 29.7949 9.37695C29.6582 9.49414 29.5117 9.60156 29.3555 9.69922C29.2188 9.79688 29.0918 9.86523 28.9746 9.9043C28.4668 10.3535 27.9297 10.8711 27.3633 11.457C26.7969 12.0234 26.2695 12.6387 25.7812 13.3027C25.293 13.9668 24.8926 14.6602 24.5801 15.3828C24.2676 16.1055 24.1113 16.8281 24.1113 17.5508C24.1113 18.2148 24.1602 18.8691 24.2578 19.5137C24.3555 20.1582 24.4043 20.8125 24.4043 21.4766V22.502C24.248 22.6582 24.1113 22.7852 23.9941 22.8828C23.877 22.9805 23.7109 23.0293 23.4961 23.0293C23.1641 23.0293 22.8418 22.8926 22.5293 22.6191C22.2168 22.3262 22.0117 22.0332 21.9141 21.7402ZM43.5059 13.4492C43.4668 12.9414 43.418 12.4336 43.3594 11.9258C43.3203 11.3984 43.252 10.8809 43.1543 10.373C43.1543 9.94336 43.291 9.66992 43.5645 9.55273C43.8574 9.43555 44.1699 9.37695 44.502 9.37695H45.0879C45.3809 9.51367 45.5859 9.67969 45.7031 9.875C45.8203 10.0703 45.8984 10.2852 45.9375 10.5195C45.9766 10.7539 45.9863 10.998 45.9668 11.252C45.9668 11.5059 45.9766 11.75 45.9961 11.9844C46.0156 12.082 46.0254 12.248 46.0254 12.4824C46.0254 12.7168 46.0254 12.9609 46.0254 13.2148C46.0449 13.4688 46.0645 13.7031 46.084 13.918C46.123 14.1328 46.1719 14.2695 46.2305 14.3281L48.8086 9.49414C48.9258 9.2793 49.0918 9.10352 49.3066 8.9668C49.541 8.81055 49.7949 8.75195 50.0684 8.79102C50.498 8.83008 50.8203 8.91797 51.0352 9.05469C51.25 9.17188 51.3965 9.33789 51.4746 9.55273C51.5723 9.74805 51.6211 9.99219 51.6211 10.2852C51.6406 10.5781 51.6602 10.9004 51.6797 11.252C51.6797 11.3691 51.6895 11.5938 51.709 11.9258C51.7285 12.2383 51.748 12.5703 51.7676 12.9219C51.8066 13.2734 51.8359 13.6055 51.8555 13.918C51.8945 14.2305 51.9238 14.4453 51.9434 14.5625H52.0605C52.0996 14.4258 52.168 14.1621 52.2656 13.7715C52.3828 13.3809 52.5098 12.9707 52.6465 12.541C52.7832 12.1113 52.9102 11.7012 53.0273 11.3105C53.1445 10.9199 53.2324 10.6465 53.291 10.4902C53.3105 10.4512 53.3496 10.373 53.4082 10.2559C53.4668 10.1191 53.5254 9.98242 53.584 9.8457C53.6426 9.68945 53.7012 9.55273 53.7598 9.43555C53.8184 9.29883 53.8574 9.20117 53.877 9.14258C54.0137 8.92773 54.1504 8.82031 54.2871 8.82031C54.4434 8.80078 54.6094 8.79102 54.7852 8.79102C55.2734 8.79102 55.6445 8.91797 55.8984 9.17188C56.1719 9.40625 56.3672 9.70898 56.4844 10.0801C56.6211 10.4512 56.7188 10.8613 56.7773 11.3105C56.8359 11.7402 56.9043 12.1406 56.9824 12.5117C57.002 12.5117 57.0117 12.5312 57.0117 12.5703C57.0117 12.5898 57.002 12.6094 56.9824 12.6289L58.5938 21.1543C58.6719 21.2324 58.7109 21.3008 58.7109 21.3594C58.7305 21.418 58.7402 21.4961 58.7402 21.5938C58.7402 21.8086 58.6328 22.0234 58.418 22.2383C58.2227 22.4336 58.0176 22.5312 57.8027 22.5312C57.5098 22.5312 57.168 22.4238 56.7773 22.209C56.4062 21.9941 56.1914 21.7207 56.1328 21.3887L54.7852 14.4453L54.6387 14.2109C54.5996 14.3086 54.5117 14.5918 54.375 15.0605C54.2578 15.5098 54.1113 16.0859 53.9355 16.7891C53.7598 17.4727 53.5547 18.2441 53.3203 19.1035C53.1055 19.9629 52.8809 20.8418 52.6465 21.7402C52.6074 21.916 52.4902 22.0527 52.2949 22.1504C52.1191 22.2285 51.9629 22.2676 51.8262 22.2676C51.416 22.2676 51.084 22.2188 50.8301 22.1211C50.5762 22.0234 50.3809 21.877 50.2441 21.6816C50.1074 21.4863 50.0098 21.252 49.9512 20.9785C49.8926 20.7051 49.8438 20.3926 49.8047 20.041C49.8047 19.9629 49.7852 19.6895 49.7461 19.2207C49.707 18.7324 49.6582 18.1855 49.5996 17.5801C49.5605 16.9551 49.5117 16.3301 49.4531 15.7051C49.3945 15.0801 49.3555 14.582 49.3359 14.2109C49.3359 14.1328 49.3359 14.0742 49.3359 14.0352C49.3359 13.9961 49.3359 13.9668 49.3359 13.9473C49.3359 13.9082 49.3262 13.8691 49.3066 13.8301C49.2871 13.7715 49.248 13.6836 49.1895 13.5664L48.3398 15.5879L46.9922 20.5391L46.6992 22.3555C46.6797 22.4727 46.6211 22.5801 46.5234 22.6777C46.4453 22.7559 46.3477 22.8242 46.2305 22.8828C46.1133 22.9219 45.9961 22.9512 45.8789 22.9707C45.7617 22.9902 45.6641 23 45.5859 23C45.1562 23 44.7852 22.8438 44.4727 22.5312C44.1797 22.2188 44.0234 21.877 44.0039 21.5059C43.9844 21.3691 43.9648 21.1055 43.9453 20.7148C43.9258 20.3047 43.8965 19.8262 43.8574 19.2793C43.8184 18.7324 43.7793 18.1562 43.7402 17.5508C43.7207 16.9453 43.6914 16.3691 43.6523 15.8223C43.6133 15.2754 43.5742 14.7969 43.5352 14.3867C43.5156 13.9766 43.5059 13.7031 43.5059 13.5664V13.4492ZM61.4648 21.8867C61.2695 19.9336 61.1035 18.2637 60.9668 16.877C60.8301 15.4902 60.7129 14.3281 60.6152 13.3906C60.5176 12.4531 60.4297 11.7109 60.3516 11.1641C60.293 10.5977 60.2441 10.1777 60.2051 9.9043C60.166 9.61133 60.1367 9.41602 60.1172 9.31836C60.0977 9.2207 60.0879 9.16211 60.0879 9.14258V9.02539C60.0879 8.81055 60.1758 8.63477 60.3516 8.49805C60.5469 8.3418 60.7422 8.26367 60.9375 8.26367C61.2305 8.26367 61.543 8.3125 61.875 8.41016C62.2266 8.50781 62.4609 8.71289 62.5781 9.02539C62.7539 9.98242 62.8711 10.9492 62.9297 11.9258C63.0078 12.9023 63.0664 13.8789 63.1055 14.8555C63.1641 15.8125 63.2324 16.7793 63.3105 17.7559C63.4082 18.7324 63.5742 19.6992 63.8086 20.6562C63.8086 20.6953 63.8184 20.7734 63.8379 20.8906C63.877 21.0078 63.9062 21.1348 63.9258 21.2715C63.9648 21.4082 63.9941 21.5352 64.0137 21.6523C64.0332 21.7695 64.043 21.8477 64.043 21.8867V21.9453C64.043 21.9648 64.0527 21.9844 64.0723 22.0039C64.0723 22.2383 63.9648 22.4727 63.75 22.707C63.5352 22.9414 63.3105 23.0391 63.0762 23C63.0176 22.9805 62.8711 22.9512 62.6367 22.9121C62.4219 22.8535 62.2754 22.8047 62.1973 22.7656C62.1387 22.7461 62.0605 22.707 61.9629 22.6484C61.8652 22.5703 61.7676 22.4922 61.6699 22.4141C61.5918 22.3359 61.5234 22.248 61.4648 22.1504C61.4062 22.0527 61.4062 21.9648 61.4648 21.8867ZM59.8242 0.529297C59.8242 0.392578 59.9316 0.275391 60.1465 0.177734C60.3809 0.0605469 60.5566 0.00195312 60.6738 0.00195312C60.9668 0.00195312 61.2891 0.0898438 61.6406 0.265625C62.0117 0.421875 62.1973 0.666016 62.1973 0.998047C62.1973 1.33008 62.1484 1.55469 62.0508 1.67188C61.9727 1.78906 61.7676 1.84766 61.4355 1.84766C61.084 1.84766 60.7227 1.73047 60.3516 1.49609C60 1.26172 59.8242 0.939453 59.8242 0.529297ZM69.5801 21.8867C69.5801 21.7891 69.5801 21.7012 69.5801 21.623C69.5996 21.5449 69.6484 21.4668 69.7266 21.3887C69.9609 21.0957 70.2246 20.793 70.5176 20.4805C70.8105 20.1484 71.0938 19.8262 71.3672 19.5137C71.6406 19.1816 71.8945 18.8398 72.1289 18.4883C72.3633 18.1367 72.5586 17.7852 72.7148 17.4336V17.2578L68.877 18.0488H68.4375C68.1641 18.0488 67.8223 18.0293 67.4121 17.9902C67.0215 17.9512 66.6309 17.873 66.2402 17.7559C65.8691 17.6191 65.5469 17.4336 65.2734 17.1992C65.0195 16.9648 64.8926 16.6523 64.8926 16.2617C64.9121 15.8125 65.1465 15.3145 65.5957 14.7676C66.0449 14.2207 66.5723 13.6836 67.1777 13.1562C67.7832 12.6289 68.3887 12.1406 68.9941 11.6914C69.6191 11.2422 70.1172 10.8906 70.4883 10.6367C70.8984 10.4023 71.3867 10.2168 71.9531 10.0801C72.5195 9.92383 73.0371 9.8457 73.5059 9.8457C73.8965 9.8457 74.2383 9.92383 74.5312 10.0801C74.8242 10.2168 74.9707 10.5 74.9707 10.9297C74.9707 11.1055 74.9512 11.2715 74.9121 11.4277C74.8926 11.584 74.7754 11.6914 74.5605 11.75C73.9355 11.6914 73.3496 11.7402 72.8027 11.8965C72.2559 12.0332 71.7383 12.248 71.25 12.541C70.7617 12.834 70.3027 13.1855 69.873 13.5957C69.4434 13.9863 69.0234 14.3965 68.6133 14.8262C68.4961 14.9629 68.3496 15.1582 68.1738 15.4121C67.998 15.6465 67.9102 15.7832 67.9102 15.8223V15.8516C68.418 15.8516 68.916 15.8027 69.4043 15.7051C69.9121 15.6074 70.4102 15.5098 70.8984 15.4121C71.4062 15.2949 71.9043 15.1875 72.3926 15.0898C72.9004 14.9922 73.418 14.9434 73.9453 14.9434C74.1406 14.9434 74.3555 14.9629 74.5898 15.002C74.8242 15.0215 75.0391 15.0801 75.2344 15.1777C75.4492 15.2754 75.6152 15.4121 75.7324 15.5879C75.8691 15.7441 75.9375 15.9492 75.9375 16.2031C75.9375 16.5742 75.8398 16.9355 75.6445 17.2871C75.4688 17.6191 75.1953 18.0293 74.8242 18.5176C74.4727 18.9863 74.0137 19.5625 73.4473 20.2461C72.9004 20.9297 72.2461 21.8086 71.4844 22.8828C71.4453 22.9414 71.3477 22.9805 71.1914 23C71.0547 23.0195 70.9375 23.0293 70.8398 23.0293C70.5664 23.0293 70.2832 22.9121 69.9902 22.6777C69.7168 22.4434 69.5801 22.1797 69.5801 21.8867ZM81.6504 21.8867C81.6504 21.7891 81.6504 21.7012 81.6504 21.623C81.6699 21.5449 81.7188 21.4668 81.7969 21.3887C82.0312 21.0957 82.2949 20.793 82.5879 20.4805C82.8809 20.1484 83.1641 19.8262 83.4375 19.5137C83.7109 19.1816 83.9648 18.8398 84.1992 18.4883C84.4336 18.1367 84.6289 17.7852 84.7852 17.4336V17.2578L80.9473 18.0488H80.5078C80.2344 18.0488 79.8926 18.0293 79.4824 17.9902C79.0918 17.9512 78.7012 17.873 78.3105 17.7559C77.9395 17.6191 77.6172 17.4336 77.3438 17.1992C77.0898 16.9648 76.9629 16.6523 76.9629 16.2617C76.9824 15.8125 77.2168 15.3145 77.666 14.7676C78.1152 14.2207 78.6426 13.6836 79.248 13.1562C79.8535 12.6289 80.459 12.1406 81.0645 11.6914C81.6895 11.2422 82.1875 10.8906 82.5586 10.6367C82.9688 10.4023 83.457 10.2168 84.0234 10.0801C84.5898 9.92383 85.1074 9.8457 85.5762 9.8457C85.9668 9.8457 86.3086 9.92383 86.6016 10.0801C86.8945 10.2168 87.041 10.5 87.041 10.9297C87.041 11.1055 87.0215 11.2715 86.9824 11.4277C86.9629 11.584 86.8457 11.6914 86.6309 11.75C86.0059 11.6914 85.4199 11.7402 84.873 11.8965C84.3262 12.0332 83.8086 12.248 83.3203 12.541C82.832 12.834 82.373 13.1855 81.9434 13.5957C81.5137 13.9863 81.0938 14.3965 80.6836 14.8262C80.5664 14.9629 80.4199 15.1582 80.2441 15.4121C80.0684 15.6465 79.9805 15.7832 79.9805 15.8223V15.8516C80.4883 15.8516 80.9863 15.8027 81.4746 15.7051C81.9824 15.6074 82.4805 15.5098 82.9688 15.4121C83.4766 15.2949 83.9746 15.1875 84.4629 15.0898C84.9707 14.9922 85.4883 14.9434 86.0156 14.9434C86.2109 14.9434 86.4258 14.9629 86.6602 15.002C86.8945 15.0215 87.1094 15.0801 87.3047 15.1777C87.5195 15.2754 87.6855 15.4121 87.8027 15.5879C87.9395 15.7441 88.0078 15.9492 88.0078 16.2031C88.0078 16.5742 87.9102 16.9355 87.7148 17.2871C87.5391 17.6191 87.2656 18.0293 86.8945 18.5176C86.543 18.9863 86.084 19.5625 85.5176 20.2461C84.9707 20.9297 84.3164 21.8086 83.5547 22.8828C83.5156 22.9414 83.418 22.9805 83.2617 23C83.125 23.0195 83.0078 23.0293 82.9102 23.0293C82.6367 23.0293 82.3535 22.9121 82.0605 22.6777C81.7871 22.4434 81.6504 22.1797 81.6504 21.8867ZM89.3848 18.5176L90.4688 10.9883C90.5078 10.7344 90.6152 10.5488 90.791 10.4316C90.9863 10.3145 91.2012 10.2559 91.4355 10.2559C91.8652 10.2559 92.207 10.3828 92.4609 10.6367C92.7148 10.8711 92.9297 11.1641 93.1055 11.5156H93.1348C93.3691 11.5156 93.5742 11.4766 93.75 11.3984C93.9453 11.3008 94.1797 11.252 94.4531 11.252C95.0781 11.252 95.6055 11.4473 96.0352 11.8379C96.4844 12.2285 96.8457 12.707 97.1191 13.2734C97.3926 13.8203 97.5879 14.416 97.7051 15.0605C97.8418 15.7051 97.9102 16.2715 97.9102 16.7598C97.9102 17.3457 97.7539 18 97.4414 18.7227C97.1484 19.4453 96.748 20.1289 96.2402 20.7734C95.752 21.418 95.1953 21.9551 94.5703 22.3848C93.9453 22.8145 93.3105 23.0293 92.666 23.0293C92.0801 23.0293 91.5723 22.8926 91.1426 22.6191C90.7324 22.3457 90.3906 22.0039 90.1172 21.5938C89.8633 21.1641 89.6777 20.6855 89.5605 20.1582C89.4434 19.6309 89.3848 19.1133 89.3848 18.6055V18.5176ZM91.8457 18.6934C91.8848 18.8887 91.9238 19.1133 91.9629 19.3672C92.002 19.6211 92.0605 19.8555 92.1387 20.0703C92.2168 20.2656 92.3242 20.4219 92.4609 20.5391C92.6172 20.6367 92.832 20.6367 93.1055 20.5391C93.3594 20.3047 93.6328 20.041 93.9258 19.748C94.2188 19.4551 94.4922 19.1426 94.7461 18.8105C95.0195 18.4785 95.2441 18.127 95.4199 17.7559C95.5957 17.3848 95.6836 16.9941 95.6836 16.584C95.7617 15.9199 95.7129 15.3145 95.5371 14.7676C95.3613 14.2012 95.1074 13.8008 94.7754 13.5664C94.4629 13.3125 94.1016 13.2832 93.6914 13.4785C93.2812 13.6543 92.8711 14.1523 92.4609 14.9727C92.2266 15.4805 92.0605 16.0762 91.9629 16.7598C91.8848 17.4238 91.8457 18.0391 91.8457 18.6055V18.6934ZM107.549 22.0039C107.275 21.6133 107.041 21.0762 106.846 20.3926C106.67 19.6895 106.494 18.957 106.318 18.1953C106.162 17.4141 106.016 16.6621 105.879 15.9395C105.742 15.1973 105.596 14.6113 105.439 14.1816C105.303 13.7324 105.146 13.4785 104.971 13.4199C104.795 13.3613 104.59 13.625 104.355 14.2109L101.807 22.0625C101.709 22.3359 101.592 22.5312 101.455 22.6484C101.318 22.7461 101.094 22.7949 100.781 22.7949C100.625 22.7949 100.459 22.7754 100.283 22.7363C100.107 22.6777 99.9414 22.5996 99.7852 22.502C99.6289 22.4043 99.4922 22.2871 99.375 22.1504C99.2773 22.0137 99.2188 21.8574 99.1992 21.6816C99.2578 21.4473 99.3066 21.0176 99.3457 20.3926C99.4043 19.7676 99.4434 19.0449 99.4629 18.2246C99.4824 17.4043 99.4922 16.5449 99.4922 15.6465C99.5117 14.7285 99.5117 13.8789 99.4922 13.0977C99.4922 12.2969 99.4824 11.6133 99.4629 11.0469C99.4434 10.4609 99.4238 10.0801 99.4043 9.9043C99.4043 9.70898 99.4043 9.51367 99.4043 9.31836C99.4238 9.10352 99.4531 8.9082 99.4922 8.73242C99.5508 8.55664 99.6387 8.41992 99.7559 8.32227C99.8926 8.20508 100.098 8.14648 100.371 8.14648C100.742 8.14648 101.084 8.30273 101.396 8.61523C101.729 8.92773 101.895 9.25977 101.895 9.61133C101.895 10.1191 101.865 10.627 101.807 11.1348C101.768 11.623 101.748 12.1211 101.748 12.6289C101.748 12.9414 101.748 13.2051 101.748 13.4199C101.748 13.6348 101.787 13.8984 101.865 14.2109C101.924 14.0547 102.021 13.7812 102.158 13.3906C102.295 13 102.441 12.5898 102.598 12.1602C102.773 11.7305 102.93 11.3301 103.066 10.959C103.203 10.5684 103.301 10.2949 103.359 10.1387C103.496 9.74805 103.701 9.37695 103.975 9.02539C104.248 8.6543 104.609 8.44922 105.059 8.41016C105.352 8.39062 105.615 8.46875 105.85 8.64453C106.104 8.82031 106.318 9.05469 106.494 9.34766C106.67 9.62109 106.816 9.91406 106.934 10.2266C107.051 10.5195 107.139 10.7734 107.197 10.9883L108.779 18.2832L110.01 21.623C110.029 21.6426 110.039 21.7012 110.039 21.7988C110.039 21.877 110.039 21.9355 110.039 21.9746C110.039 22.209 109.98 22.4434 109.863 22.6777C109.766 22.8926 109.58 23 109.307 23C108.975 23 108.633 22.9121 108.281 22.7363C107.93 22.541 107.686 22.2969 107.549 22.0039Z" fill="#CCCCCC"/>
</svg>
