<svg width="80" height="21" viewBox="0 0 80 21" fill="none" xmlns="http://www.w3.org/2000/svg">
<path d="M1.92969 14.1094C1.82812 13.8893 1.74349 13.7116 1.67578 13.5762C1.625 13.4408 1.59961 13.2799 1.59961 13.0938C1.59961 12.9414 1.61654 12.806 1.65039 12.6875C1.70117 12.5521 1.72656 12.4082 1.72656 12.2559C1.72656 11.8835 1.70964 11.5365 1.67578 11.2148C1.65885 10.8932 1.63346 10.5378 1.59961 10.1484C1.58268 10.0977 1.52344 10.0553 1.42188 10.0215C1.32031 9.98763 1.21029 9.94531 1.0918 9.89453C0.973307 9.82682 0.863281 9.73372 0.761719 9.61523C0.677083 9.49674 0.634766 9.32747 0.634766 9.10742C0.634766 8.9043 0.677083 8.73503 0.761719 8.59961C0.863281 8.44727 0.964844 8.31185 1.06641 8.19336C1.16797 8.05794 1.26107 7.92253 1.3457 7.78711C1.44727 7.63477 1.49805 7.45703 1.49805 7.25391C1.49805 7.16927 1.48958 7.01693 1.47266 6.79688C1.45573 6.5599 1.4388 6.31445 1.42188 6.06055C1.42188 5.80664 1.41341 5.56966 1.39648 5.34961C1.39648 5.11263 1.39648 4.95182 1.39648 4.86719V4.81641V4.76562C1.46419 4.61328 1.51497 4.48633 1.54883 4.38477C1.59961 4.2832 1.65039 4.20703 1.70117 4.15625C1.75195 4.10547 1.81966 4.07161 1.9043 4.05469C1.98893 4.02083 2.09896 4.00391 2.23438 4.00391C2.58984 4.00391 2.85221 4.07161 3.02148 4.20703C3.19076 4.34245 3.30924 4.50326 3.37695 4.68945C3.44466 4.85872 3.48698 5.01953 3.50391 5.17188C3.52083 5.32422 3.56315 5.40885 3.63086 5.42578L5.45898 3.82617H5.56055C6.15299 3.43685 6.7793 3.14062 7.43945 2.9375C8.09961 2.71745 8.79362 2.60742 9.52148 2.60742C9.74154 2.60742 10.0039 2.63281 10.3086 2.68359C10.6302 2.73438 10.9264 2.82747 11.1973 2.96289C11.485 3.08138 11.722 3.24219 11.9082 3.44531C12.1113 3.64844 12.2129 3.90234 12.2129 4.20703C12.2129 4.54557 12.1706 4.89258 12.0859 5.24805C12.0013 5.60352 11.8828 5.95898 11.7305 6.31445C11.5951 6.65299 11.4258 6.98307 11.2227 7.30469C11.0365 7.60938 10.8333 7.87174 10.6133 8.0918C10.5286 8.27799 9.98698 8.75195 8.98828 9.51367C7.98958 10.2754 6.5 11.4095 4.51953 12.916L16.707 13.6777C16.8763 13.6947 17.1048 13.7116 17.3926 13.7285C17.6973 13.7285 17.985 13.7539 18.2559 13.8047C18.5436 13.8555 18.7891 13.957 18.9922 14.1094C19.1953 14.2448 19.2969 14.4564 19.2969 14.7441C19.2969 14.8965 19.2715 15.0234 19.2207 15.125C19.1868 15.2096 19.1361 15.2858 19.0684 15.3535C19.0176 15.4043 18.9499 15.4551 18.8652 15.5059C18.7975 15.5566 18.7298 15.6243 18.6621 15.709H18.2305H17.7988C17.4603 15.6751 17.1048 15.6328 16.7324 15.582C16.377 15.5312 15.9538 15.472 15.4629 15.4043C14.9889 15.3366 14.4303 15.2689 13.7871 15.2012C13.1439 15.1335 12.3737 15.0742 11.4766 15.0234C10.5794 14.9727 9.52995 14.9303 8.32812 14.8965C7.14323 14.8626 5.76367 14.8457 4.18945 14.8457C4.17253 14.8457 4.14714 14.8711 4.11328 14.9219C4.09635 14.9727 4.08789 15.015 4.08789 15.0488C4.08789 15.6921 4.13867 16.3268 4.24023 16.9531C4.35872 17.5625 4.41797 18.1719 4.41797 18.7812C4.41797 18.8997 4.40104 19.0352 4.36719 19.1875C4.35026 19.3229 4.30794 19.4583 4.24023 19.5938C4.17253 19.7122 4.08789 19.8138 3.98633 19.8984C3.88477 19.9831 3.75781 20.0254 3.60547 20.0254C3.50391 20.0254 3.38542 20.0085 3.25 19.9746C3.11458 19.9238 2.97917 19.8561 2.84375 19.7715C2.72526 19.6868 2.61523 19.5938 2.51367 19.4922C2.41211 19.3906 2.35286 19.2721 2.33594 19.1367L1.92969 14.1094ZM3.63086 8.49805C3.63086 8.92122 3.63932 9.31901 3.65625 9.69141C3.67318 10.0638 3.69857 10.4701 3.73242 10.9102H3.80859C3.82552 10.9102 3.86784 10.8932 3.93555 10.8594C4.00326 10.8255 4.17253 10.724 4.44336 10.5547C4.71419 10.3685 5.12891 10.0892 5.6875 9.7168C6.24609 9.32747 7.0332 8.78581 8.04883 8.0918C8.25195 7.97331 8.47201 7.77018 8.70898 7.48242C8.94596 7.19466 9.16602 6.88151 9.36914 6.54297C9.57227 6.20443 9.74154 5.87435 9.87695 5.55273C10.0124 5.21419 10.0801 4.9349 10.0801 4.71484C10.0801 4.54557 9.99544 4.46094 9.82617 4.46094C9.67383 4.46094 9.53841 4.46094 9.41992 4.46094C9.16602 4.46094 8.87826 4.50326 8.55664 4.58789C8.23503 4.67253 7.8457 4.8418 7.38867 5.0957C6.94857 5.34961 6.41536 5.71354 5.78906 6.1875C5.17969 6.66146 4.46029 7.29622 3.63086 8.0918V8.49805ZM30.6973 12.7891C30.6634 13.0938 30.6211 13.3307 30.5703 13.5C30.5365 13.6693 30.4688 13.8216 30.3672 13.957C30.2656 14.0924 30.1217 14.2363 29.9355 14.3887C29.7493 14.5241 29.4954 14.7272 29.1738 14.998C28.8522 15.252 28.4544 15.5905 27.9805 16.0137C27.5065 16.4368 26.931 16.987 26.2539 17.6641C25.9831 17.918 25.7038 18.1803 25.416 18.4512C25.1283 18.722 24.8236 18.9674 24.502 19.1875C24.1973 19.3906 23.8757 19.5599 23.5371 19.6953C23.1986 19.8307 22.8431 19.8984 22.4707 19.8984C21.7428 19.8984 21.2096 19.653 20.8711 19.1621C20.5326 18.6712 20.3633 18.1042 20.3633 17.4609C20.3633 17.0378 20.3717 16.6823 20.3887 16.3945C20.4225 16.1068 20.4902 15.7344 20.5918 15.2773C20.4056 15.1081 20.2448 14.9642 20.1094 14.8457C19.974 14.7103 19.9062 14.5326 19.9062 14.3125C19.9062 14.1094 19.9486 13.974 20.0332 13.9062C20.1348 13.8385 20.2448 13.7962 20.3633 13.7793C20.4987 13.7454 20.6257 13.7116 20.7441 13.6777C20.8626 13.6439 20.9473 13.5762 20.998 13.4746C21.0319 13.373 21.0911 13.1868 21.1758 12.916C21.2773 12.6452 21.3789 12.3659 21.4805 12.0781C21.582 11.7734 21.6751 11.4941 21.7598 11.2402C21.8613 10.9694 21.929 10.7832 21.9629 10.6816C22.0814 10.3939 22.2083 10.1061 22.3438 9.81836C22.4961 9.51367 22.6654 9.24284 22.8516 9.00586C23.0547 8.76888 23.2832 8.57422 23.5371 8.42188C23.8079 8.26953 24.1211 8.19336 24.4766 8.19336C24.6797 8.19336 24.9251 8.28646 25.2129 8.47266C25.5176 8.65885 25.8053 8.88737 26.0762 9.1582C26.347 9.41211 26.5755 9.68294 26.7617 9.9707C26.9479 10.2585 27.041 10.5039 27.041 10.707C27.041 10.9609 26.9818 11.1979 26.8633 11.418C26.7448 11.6211 26.5924 11.8158 26.4062 12.002C26.237 12.1712 26.0508 12.332 25.8477 12.4844C25.6445 12.6367 25.4583 12.7806 25.2891 12.916C25.2721 12.916 25.2383 12.9329 25.1875 12.9668C25.1367 13.0007 25.0944 13.026 25.0605 13.043C25.0436 13.0599 25.0013 13.1022 24.9336 13.1699C24.8828 13.2207 24.8236 13.2799 24.7559 13.3477C24.6882 13.4154 24.6204 13.4831 24.5527 13.5508C24.502 13.6185 24.4681 13.6608 24.4512 13.6777C24.4004 13.7285 24.2988 13.8132 24.1465 13.9316C24.0111 14.0332 23.8587 14.1517 23.6895 14.2871C23.5202 14.4056 23.3594 14.5241 23.207 14.6426C23.0716 14.7441 22.9785 14.8118 22.9277 14.8457L22.8262 15.0488C22.7923 15.1165 22.7585 15.2689 22.7246 15.5059C22.7077 15.7259 22.6823 15.9798 22.6484 16.2676C22.6146 16.5553 22.5807 16.8516 22.5469 17.1562C22.5299 17.444 22.5215 17.681 22.5215 17.8672C22.5215 17.8841 22.5299 17.901 22.5469 17.918C22.5807 17.9518 22.6061 17.9688 22.623 17.9688C22.7585 17.9688 22.8854 17.9095 23.0039 17.791C23.1224 17.6725 23.2493 17.5879 23.3848 17.5371L27.4473 13.7793L28.4883 12.1797C28.5729 12.0612 28.7337 11.9342 28.9707 11.7988C29.2246 11.6465 29.4785 11.5703 29.7324 11.5703C29.9863 11.5534 30.2064 11.6296 30.3926 11.7988C30.5957 11.9681 30.6973 12.2982 30.6973 12.7891ZM25.1113 10.8086C25.196 10.7409 25.2298 10.6393 25.2129 10.5039C25.196 10.3685 25.1452 10.25 25.0605 10.1484C24.9928 10.0469 24.8997 9.98763 24.7812 9.9707C24.6628 9.93685 24.5527 9.99609 24.4512 10.1484C24.4004 10.2161 24.3073 10.3516 24.1719 10.5547C24.0534 10.7578 23.9264 10.9694 23.791 11.1895C23.6725 11.3926 23.571 11.5703 23.4863 11.7227C23.4017 11.875 23.3848 11.9342 23.4355 11.9004L25.1113 10.8086ZM34.0234 16.3691L31.2305 9.58984C31.2135 9.57292 31.2051 9.55599 31.2051 9.53906V9.4375C31.2051 9.28516 31.2474 9.1582 31.332 9.05664C31.4336 8.93815 31.5521 8.83659 31.6875 8.75195C31.7214 8.75195 31.7891 8.75195 31.8906 8.75195C31.9922 8.73503 32.0599 8.72656 32.0938 8.72656C32.4154 8.72656 32.6439 8.77734 32.7793 8.87891C32.9316 8.98047 33.1263 9.11589 33.3633 9.28516C33.431 9.53906 33.5156 9.80143 33.6172 10.0723C33.7357 10.3431 33.8711 10.6901 34.0234 11.1133C34.1927 11.5195 34.4043 12.0358 34.6582 12.6621C34.9121 13.2884 35.2337 14.084 35.623 15.0488L35.75 15.1758C35.8008 15.0911 35.8431 14.9811 35.877 14.8457C35.9277 14.7103 36.0039 14.4733 36.1055 14.1348C36.224 13.7962 36.3848 13.3053 36.5879 12.6621C36.791 12.0189 37.0788 11.1471 37.4512 10.0469C37.5866 9.82682 37.6797 9.57292 37.7305 9.28516C37.7812 8.9974 37.8405 8.72656 37.9082 8.47266C37.9759 8.21875 38.0775 8.00716 38.2129 7.83789C38.3652 7.66862 38.5938 7.58398 38.8984 7.58398C39.1862 7.58398 39.4655 7.70247 39.7363 7.93945C40.0072 8.15951 40.1426 8.43034 40.1426 8.75195C40.1426 8.9043 40.0918 9.07357 39.9902 9.25977C39.8887 9.42904 39.7871 9.57292 39.6855 9.69141L36.5879 20H36.4355C36.3678 20 36.2663 19.9915 36.1309 19.9746C36.0124 19.9577 35.8854 19.9323 35.75 19.8984C35.6146 19.8477 35.4961 19.7969 35.3945 19.7461C35.293 19.6953 35.2337 19.6361 35.2168 19.5684L34.0234 16.4707V16.3691ZM42.4277 19.0352C42.2585 17.3424 42.1146 15.8952 41.9961 14.6934C41.8776 13.4915 41.776 12.4844 41.6914 11.6719C41.6068 10.8594 41.5306 10.2161 41.4629 9.74219C41.4121 9.2513 41.3698 8.88737 41.3359 8.65039C41.3021 8.39648 41.2767 8.22721 41.2598 8.14258C41.2428 8.05794 41.2344 8.00716 41.2344 7.99023V7.88867C41.2344 7.70247 41.3105 7.55013 41.4629 7.43164C41.6322 7.29622 41.8014 7.22852 41.9707 7.22852C42.2246 7.22852 42.4954 7.27083 42.7832 7.35547C43.0879 7.4401 43.291 7.61784 43.3926 7.88867C43.5449 8.7181 43.6465 9.55599 43.6973 10.4023C43.765 11.2487 43.8158 12.0951 43.8496 12.9414C43.9004 13.7708 43.9596 14.6087 44.0273 15.4551C44.112 16.3014 44.2559 17.1393 44.459 17.9688C44.459 18.0026 44.4674 18.0703 44.4844 18.1719C44.5182 18.2734 44.5436 18.3835 44.5605 18.502C44.5944 18.6204 44.6198 18.7305 44.6367 18.832C44.6536 18.9336 44.6621 19.0013 44.6621 19.0352V19.0859C44.6621 19.1029 44.6706 19.1198 44.6875 19.1367C44.6875 19.3398 44.5944 19.543 44.4082 19.7461C44.222 19.9492 44.0273 20.0339 43.8242 20C43.7734 19.9831 43.6465 19.9577 43.4434 19.9238C43.2572 19.873 43.1302 19.8307 43.0625 19.7969C43.0117 19.7799 42.944 19.7461 42.8594 19.6953C42.7747 19.6276 42.6901 19.5599 42.6055 19.4922C42.5378 19.4245 42.4785 19.3483 42.4277 19.2637C42.377 19.179 42.377 19.1029 42.4277 19.0352ZM41.0059 0.525391C41.0059 0.406901 41.099 0.305339 41.2852 0.220703C41.4883 0.119141 41.6406 0.0683594 41.7422 0.0683594C41.9961 0.0683594 42.2754 0.144531 42.5801 0.296875C42.9017 0.432292 43.0625 0.64388 43.0625 0.931641C43.0625 1.2194 43.0202 1.41406 42.9355 1.51562C42.8678 1.61719 42.6901 1.66797 42.4023 1.66797C42.0977 1.66797 41.7845 1.56641 41.4629 1.36328C41.1582 1.16016 41.0059 0.880859 41.0059 0.525391ZM56.2402 12.7891C56.2064 13.0938 56.1641 13.3307 56.1133 13.5C56.0794 13.6693 56.0117 13.8216 55.9102 13.957C55.8086 14.0924 55.6647 14.2363 55.4785 14.3887C55.2923 14.5241 55.0384 14.7272 54.7168 14.998C54.3952 15.252 53.9974 15.5905 53.5234 16.0137C53.0495 16.4368 52.474 16.987 51.7969 17.6641C51.526 17.918 51.2467 18.1803 50.959 18.4512C50.6712 18.722 50.3665 18.9674 50.0449 19.1875C49.7402 19.3906 49.4186 19.5599 49.0801 19.6953C48.7415 19.8307 48.3861 19.8984 48.0137 19.8984C47.2858 19.8984 46.7526 19.653 46.4141 19.1621C46.0755 18.6712 45.9062 18.1042 45.9062 17.4609C45.9062 17.0378 45.9147 16.6823 45.9316 16.3945C45.9655 16.1068 46.0332 15.7344 46.1348 15.2773C45.9486 15.1081 45.7878 14.9642 45.6523 14.8457C45.5169 14.7103 45.4492 14.5326 45.4492 14.3125C45.4492 14.1094 45.4915 13.974 45.5762 13.9062C45.6777 13.8385 45.7878 13.7962 45.9062 13.7793C46.0417 13.7454 46.1686 13.7116 46.2871 13.6777C46.4056 13.6439 46.4902 13.5762 46.541 13.4746C46.5749 13.373 46.6341 13.1868 46.7188 12.916C46.8203 12.6452 46.9219 12.3659 47.0234 12.0781C47.125 11.7734 47.2181 11.4941 47.3027 11.2402C47.4043 10.9694 47.472 10.7832 47.5059 10.6816C47.6243 10.3939 47.7513 10.1061 47.8867 9.81836C48.0391 9.51367 48.2083 9.24284 48.3945 9.00586C48.5977 8.76888 48.8262 8.57422 49.0801 8.42188C49.3509 8.26953 49.6641 8.19336 50.0195 8.19336C50.2227 8.19336 50.4681 8.28646 50.7559 8.47266C51.0605 8.65885 51.3483 8.88737 51.6191 9.1582C51.89 9.41211 52.1185 9.68294 52.3047 9.9707C52.4909 10.2585 52.584 10.5039 52.584 10.707C52.584 10.9609 52.5247 11.1979 52.4062 11.418C52.2878 11.6211 52.1354 11.8158 51.9492 12.002C51.7799 12.1712 51.5938 12.332 51.3906 12.4844C51.1875 12.6367 51.0013 12.7806 50.832 12.916C50.8151 12.916 50.7812 12.9329 50.7305 12.9668C50.6797 13.0007 50.6374 13.026 50.6035 13.043C50.5866 13.0599 50.5443 13.1022 50.4766 13.1699C50.4258 13.2207 50.3665 13.2799 50.2988 13.3477C50.2311 13.4154 50.1634 13.4831 50.0957 13.5508C50.0449 13.6185 50.0111 13.6608 49.9941 13.6777C49.9434 13.7285 49.8418 13.8132 49.6895 13.9316C49.554 14.0332 49.4017 14.1517 49.2324 14.2871C49.0632 14.4056 48.9023 14.5241 48.75 14.6426C48.6146 14.7441 48.5215 14.8118 48.4707 14.8457L48.3691 15.0488C48.3353 15.1165 48.3014 15.2689 48.2676 15.5059C48.2507 15.7259 48.2253 15.9798 48.1914 16.2676C48.1576 16.5553 48.1237 16.8516 48.0898 17.1562C48.0729 17.444 48.0645 17.681 48.0645 17.8672C48.0645 17.8841 48.0729 17.901 48.0898 17.918C48.1237 17.9518 48.1491 17.9688 48.166 17.9688C48.3014 17.9688 48.4284 17.9095 48.5469 17.791C48.6654 17.6725 48.7923 17.5879 48.9277 17.5371L52.9902 13.7793L54.0312 12.1797C54.1159 12.0612 54.2767 11.9342 54.5137 11.7988C54.7676 11.6465 55.0215 11.5703 55.2754 11.5703C55.5293 11.5534 55.7493 11.6296 55.9355 11.7988C56.1387 11.9681 56.2402 12.2982 56.2402 12.7891ZM50.6543 10.8086C50.7389 10.7409 50.7728 10.6393 50.7559 10.5039C50.7389 10.3685 50.6882 10.25 50.6035 10.1484C50.5358 10.0469 50.4427 9.98763 50.3242 9.9707C50.2057 9.93685 50.0957 9.99609 49.9941 10.1484C49.9434 10.2161 49.8503 10.3516 49.7148 10.5547C49.5964 10.7578 49.4694 10.9694 49.334 11.1895C49.2155 11.3926 49.1139 11.5703 49.0293 11.7227C48.9447 11.875 48.9277 11.9342 48.9785 11.9004L50.6543 10.8086ZM59.9219 18.7812C59.8203 18.3919 59.5241 17.4017 59.0332 15.8105C58.5423 14.2025 57.8568 11.8835 56.9766 8.85352C56.9766 8.81966 56.9596 8.75195 56.9258 8.65039C56.9089 8.5319 56.9004 8.45573 56.9004 8.42188C56.9342 8.21875 57.0866 8.10026 57.3574 8.06641C57.6283 8.01562 57.8314 7.9987 57.9668 8.01562C58.3392 8.06641 58.61 8.1849 58.7793 8.37109C58.9655 8.55729 59.1178 8.82812 59.2363 9.18359L60.709 14.0332L60.8105 14.1602C61.0137 13.8216 61.1322 13.4323 61.166 12.9922C61.1999 12.5521 61.2422 12.1289 61.293 11.7227C61.3607 11.2995 61.4792 10.9186 61.6484 10.5801C61.8177 10.2415 62.1393 10.0046 62.6133 9.86914C62.7148 9.86914 62.8249 9.89453 62.9434 9.94531C63.0618 9.97917 63.1719 10.0384 63.2734 10.123C63.3919 10.1908 63.4935 10.2754 63.5781 10.377C63.6628 10.4616 63.722 10.5547 63.7559 10.6562L65.127 15.0488L65.4062 15.4297C65.474 15.125 65.5586 14.6341 65.6602 13.957C65.7786 13.2799 65.8887 12.5775 65.9902 11.8496C66.1087 11.1048 66.2103 10.4193 66.2949 9.79297C66.3796 9.14974 66.4388 8.70964 66.4727 8.47266C66.4727 8.4388 66.4727 8.37956 66.4727 8.29492C66.4896 8.21029 66.498 8.15104 66.498 8.11719C66.6335 7.96484 66.8197 7.85482 67.0566 7.78711C67.2936 7.70247 67.5052 7.67708 67.6914 7.71094C67.7591 7.72786 67.8438 7.77018 67.9453 7.83789C68.0638 7.88867 68.1738 7.96484 68.2754 8.06641C68.377 8.15104 68.4531 8.24414 68.5039 8.3457C68.5716 8.44727 68.6055 8.54036 68.6055 8.625L67.1582 19.0352C67.1413 19.1367 67.082 19.2214 66.9805 19.2891C66.8789 19.3398 66.7604 19.3906 66.625 19.4414C66.5065 19.4753 66.3796 19.5007 66.2441 19.5176C66.1257 19.5176 66.0326 19.5176 65.9648 19.5176C65.5586 19.3652 65.2031 19.1198 64.8984 18.7812C64.6107 18.4258 64.3483 18.0365 64.1113 17.6133C63.8913 17.1901 63.6882 16.7585 63.502 16.3184C63.3327 15.8613 63.1465 15.4551 62.9434 15.0996L62.8418 15.0742C62.7233 15.1927 62.6217 15.4551 62.5371 15.8613C62.4694 16.2676 62.4102 16.6992 62.3594 17.1562C62.3086 17.6133 62.2663 18.028 62.2324 18.4004C62.1986 18.7559 62.1816 18.9505 62.1816 18.9844C62.1478 19.2214 61.987 19.4076 61.6992 19.543C61.4284 19.6784 61.1829 19.7292 60.9629 19.6953C60.7259 19.6615 60.5143 19.5514 60.3281 19.3652C60.1589 19.1621 60.0234 18.9674 59.9219 18.7812ZM73.6328 19.0352C73.6328 18.9505 73.6328 18.8743 73.6328 18.8066C73.6497 18.7389 73.6921 18.6712 73.7598 18.6035C73.9629 18.3496 74.1914 18.0872 74.4453 17.8164C74.6992 17.5286 74.9447 17.2493 75.1816 16.9785C75.4186 16.6908 75.6387 16.3945 75.8418 16.0898C76.0449 15.7852 76.2142 15.4805 76.3496 15.1758V15.0234L73.0234 15.709H72.6426C72.4056 15.709 72.1094 15.6921 71.7539 15.6582C71.4154 15.6243 71.0768 15.5566 70.7383 15.4551C70.4167 15.3366 70.1374 15.1758 69.9004 14.9727C69.6803 14.7695 69.5703 14.4987 69.5703 14.1602C69.5872 13.7708 69.7904 13.3392 70.1797 12.8652C70.569 12.3913 71.026 11.9258 71.5508 11.4688C72.0755 11.0117 72.6003 10.5885 73.125 10.1992C73.6667 9.8099 74.0983 9.50521 74.4199 9.28516C74.7754 9.08203 75.1986 8.92122 75.6895 8.80273C76.1803 8.66732 76.6289 8.59961 77.0352 8.59961C77.3737 8.59961 77.6699 8.66732 77.9238 8.80273C78.1777 8.92122 78.3047 9.16667 78.3047 9.53906C78.3047 9.69141 78.2878 9.83529 78.2539 9.9707C78.237 10.1061 78.1354 10.1992 77.9492 10.25C77.4076 10.1992 76.8997 10.2415 76.4258 10.377C75.9518 10.4954 75.5033 10.6816 75.0801 10.9355C74.6569 11.1895 74.2591 11.4941 73.8867 11.8496C73.5143 12.1882 73.1504 12.5436 72.7949 12.916C72.6934 13.0345 72.5664 13.2038 72.4141 13.4238C72.2617 13.627 72.1855 13.7454 72.1855 13.7793V13.8047C72.6257 13.8047 73.0573 13.7624 73.4805 13.6777C73.9206 13.5931 74.3522 13.5085 74.7754 13.4238C75.2155 13.3223 75.6471 13.2292 76.0703 13.1445C76.5104 13.0599 76.959 13.0176 77.416 13.0176C77.5853 13.0176 77.7715 13.0345 77.9746 13.0684C78.1777 13.0853 78.3639 13.1361 78.5332 13.2207C78.7194 13.3053 78.8633 13.4238 78.9648 13.5762C79.0833 13.7116 79.1426 13.8893 79.1426 14.1094C79.1426 14.431 79.0579 14.7441 78.8887 15.0488C78.7363 15.3366 78.4993 15.6921 78.1777 16.1152C77.873 16.5215 77.4753 17.0208 76.9844 17.6133C76.5104 18.2057 75.9434 18.9674 75.2832 19.8984C75.2493 19.9492 75.1647 19.9831 75.0293 20C74.9108 20.0169 74.8092 20.0254 74.7246 20.0254C74.4876 20.0254 74.2422 19.9238 73.9883 19.7207C73.7513 19.5176 73.6328 19.2891 73.6328 19.0352Z" fill="#CCCCCC"/>
</svg>
