<svg height="14.932" viewBox="0 0 17.348 14.932" width="17.348" xmlns="http://www.w3.org/2000/svg"><g fill="#ff5a5f" transform="translate(-4.652 -5.068)"><path d="m11.752 6.068a6.1 6.1 0 1 1 -6.1 6.1 6.106 6.106 0 0 1 6.1-6.1m0-1a7.1 7.1 0 1 0 7.1 7.1 7.1 7.1 0 0 0 -7.1-7.1z"/><path d="m7.979 12.041a.5.5 0 0 1 -.5-.5 3.65 3.65 0 0 1 3.647-3.641.5.5 0 0 1 0 1 2.649 2.649 0 0 0 -2.647 2.645.5.5 0 0 1 -.5.496z"/><path d="m21.5 20a.492.492 0 0 1 -.314-.111l-4.046-3.279a.5.5 0 1 1 .629-.777l4.045 3.278a.5.5 0 0 1 -.314.889z"/></g></svg>