<svg width="91" height="24" viewBox="0 0 91 24" fill="none" xmlns="http://www.w3.org/2000/svg">
<path d="M5.06836 21.9453C5.38086 21.5156 5.72266 21.1934 6.09375 20.9785C6.48438 20.7637 6.875 20.5879 7.26562 20.4512C7.67578 20.3145 8.07617 20.1875 8.4668 20.0703C8.87695 19.9336 9.27734 19.7188 9.66797 19.4258C9.88281 19.3086 10.1855 19.1328 10.5762 18.8984C10.9668 18.6641 11.3477 18.4102 11.7188 18.1367C12.1094 17.8438 12.4414 17.5605 12.7148 17.2871C13.0078 17.0137 13.1543 16.7793 13.1543 16.584C13.1543 16.5645 13.1445 16.5547 13.125 16.5547C13.0859 16.5547 13.0664 16.5449 13.0664 16.5254L13.0078 16.4668C12.9102 16.4277 12.7539 16.3789 12.5391 16.3203C12.3242 16.2617 12.1973 16.2227 12.1582 16.2031C9.63867 15.9102 7.60742 15.6562 6.06445 15.4414C4.54102 15.207 3.35938 14.9629 2.51953 14.709C1.69922 14.4551 1.15234 14.1621 0.878906 13.8301C0.605469 13.498 0.46875 13.0781 0.46875 12.5703C0.46875 12.375 0.507812 12.1602 0.585938 11.9258C0.664062 11.6914 0.751953 11.457 0.849609 11.2227C0.966797 10.9883 1.08398 10.7734 1.20117 10.5781C1.31836 10.3828 1.42578 10.2266 1.52344 10.1094C1.83594 9.71875 2.24609 9.36719 2.75391 9.05469C3.26172 8.74219 3.80859 8.46875 4.39453 8.23438C4.98047 8 5.56641 7.79492 6.15234 7.61914C6.75781 7.44336 7.30469 7.28711 7.79297 7.15039C8.33984 7.11133 8.88672 6.98438 9.43359 6.76953C10 6.53516 10.5566 6.37891 11.1035 6.30078C11.377 6.30078 11.6016 6.4082 11.7773 6.62305C11.9531 6.83789 12.041 7.0625 12.041 7.29688C12.041 7.62891 11.9727 7.88281 11.8359 8.05859C11.7188 8.21484 11.5527 8.3418 11.3379 8.43945C11.1426 8.51758 10.918 8.58594 10.6641 8.64453C10.4102 8.68359 10.1562 8.73242 9.90234 8.79102C9.74609 8.83008 9.53125 8.88867 9.25781 8.9668C8.98438 9.02539 8.71094 9.09375 8.4375 9.17188C8.16406 9.25 7.91992 9.31836 7.70508 9.37695C7.49023 9.43555 7.36328 9.47461 7.32422 9.49414C6.71875 9.74805 6.14258 9.99219 5.5957 10.2266C5.06836 10.4414 4.59961 10.666 4.18945 10.9004C3.79883 11.1348 3.48633 11.3887 3.25195 11.6621C3.03711 11.916 2.93945 12.1992 2.95898 12.5117V12.541C3.1543 12.8145 3.59375 13.0195 4.27734 13.1562C4.96094 13.293 5.76172 13.4102 6.67969 13.5078C7.61719 13.6055 8.59375 13.7031 9.60938 13.8008C10.6445 13.8984 11.5918 14.0449 12.4512 14.2402C13.3105 14.4355 14.0234 14.6992 14.5898 15.0312C15.1563 15.3633 15.4492 15.8125 15.4688 16.3789C15.4688 16.5938 15.4199 16.8477 15.3223 17.1406C15.2441 17.4336 15.127 17.6582 14.9707 17.8145C14.4824 18.3613 13.8965 18.9277 13.2129 19.5137C12.5488 20.0996 11.8262 20.6465 11.0449 21.1543C10.2637 21.6426 9.45312 22.0625 8.61328 22.4141C7.79297 22.7461 6.98242 22.9414 6.18164 23C5.9082 23 5.6543 22.9023 5.41992 22.707C5.18555 22.4922 5.06836 22.2383 5.06836 21.9453ZM29.0039 14.6797C28.9648 15.0312 28.916 15.3047 28.8574 15.5C28.8184 15.6953 28.7402 15.8711 28.623 16.0273C28.5059 16.1836 28.3398 16.3496 28.125 16.5254C27.9102 16.6816 27.6172 16.916 27.2461 17.2285C26.875 17.5215 26.416 17.9121 25.8691 18.4004C25.3223 18.8887 24.6582 19.5234 23.877 20.3047C23.5645 20.5977 23.2422 20.9004 22.9102 21.2129C22.5781 21.5254 22.2266 21.8086 21.8555 22.0625C21.5039 22.2969 21.1328 22.4922 20.7422 22.6484C20.3516 22.8047 19.9414 22.8828 19.5117 22.8828C18.6719 22.8828 18.0566 22.5996 17.666 22.0332C17.2754 21.4668 17.0801 20.8125 17.0801 20.0703C17.0801 19.582 17.0898 19.1719 17.1094 18.8398C17.1484 18.5078 17.2266 18.0781 17.3438 17.5508C17.1289 17.3555 16.9434 17.1895 16.7871 17.0527C16.6309 16.8965 16.5527 16.6914 16.5527 16.4375C16.5527 16.2031 16.6016 16.0469 16.6992 15.9688C16.8164 15.8906 16.9434 15.8418 17.0801 15.8223C17.2363 15.7832 17.3828 15.7441 17.5195 15.7051C17.6562 15.666 17.7539 15.5879 17.8125 15.4707C17.8516 15.3535 17.9199 15.1387 18.0176 14.8262C18.1348 14.5137 18.252 14.1914 18.3691 13.8594C18.4863 13.5078 18.5938 13.1855 18.6914 12.8926C18.8086 12.5801 18.8867 12.3652 18.9258 12.248C19.0625 11.916 19.209 11.584 19.3652 11.252C19.541 10.9004 19.7363 10.5879 19.9512 10.3145C20.1855 10.041 20.4492 9.81641 20.7422 9.64062C21.0547 9.46484 21.416 9.37695 21.8262 9.37695C22.0605 9.37695 22.3438 9.48438 22.6758 9.69922C23.0273 9.91406 23.3594 10.1777 23.6719 10.4902C23.9844 10.7832 24.248 11.0957 24.4629 11.4277C24.6777 11.7598 24.7852 12.043 24.7852 12.2773C24.7852 12.5703 24.7168 12.8438 24.5801 13.0977C24.4434 13.332 24.2676 13.5566 24.0527 13.7715C23.8574 13.9668 23.6426 14.1523 23.4082 14.3281C23.1738 14.5039 22.959 14.6699 22.7637 14.8262C22.7441 14.8262 22.7051 14.8457 22.6465 14.8848C22.5879 14.9238 22.5391 14.9531 22.5 14.9727C22.4805 14.9922 22.4316 15.041 22.3535 15.1191C22.2949 15.1777 22.2266 15.2461 22.1484 15.3242C22.0703 15.4023 21.9922 15.4805 21.9141 15.5586C21.8555 15.6367 21.8164 15.6855 21.7969 15.7051C21.7383 15.7637 21.6211 15.8613 21.4453 15.998C21.2891 16.1152 21.1133 16.252 20.918 16.4082C20.7227 16.5449 20.5371 16.6816 20.3613 16.8184C20.2051 16.9355 20.0977 17.0137 20.0391 17.0527L19.9219 17.2871C19.8828 17.3652 19.8438 17.541 19.8047 17.8145C19.7852 18.0684 19.7559 18.3613 19.7168 18.6934C19.6777 19.0254 19.6387 19.3672 19.5996 19.7188C19.5801 20.0508 19.5703 20.3242 19.5703 20.5391C19.5703 20.5586 19.5801 20.5781 19.5996 20.5977C19.6387 20.6367 19.668 20.6562 19.6875 20.6562C19.8438 20.6562 19.9902 20.5879 20.127 20.4512C20.2637 20.3145 20.4102 20.2168 20.5664 20.1582L25.2539 15.8223L26.4551 13.9766C26.5527 13.8398 26.7383 13.6934 27.0117 13.5371C27.3047 13.3613 27.5977 13.2734 27.8906 13.2734C28.1836 13.2539 28.4375 13.3418 28.6523 13.5371C28.8867 13.7324 29.0039 14.1133 29.0039 14.6797ZM22.5586 12.3945C22.6562 12.3164 22.6953 12.1992 22.6758 12.043C22.6562 11.8867 22.5977 11.75 22.5 11.6328C22.4219 11.5156 22.3145 11.4473 22.1777 11.4277C22.041 11.3887 21.9141 11.457 21.7969 11.6328C21.7383 11.7109 21.6309 11.8672 21.4746 12.1016C21.3379 12.3359 21.1914 12.5801 21.0352 12.834C20.8984 13.0684 20.7812 13.2734 20.6836 13.4492C20.5859 13.625 20.5664 13.6934 20.625 13.6543L22.5586 12.3945ZM31.1133 21.7402C31.0742 21.0371 31.0059 20.0996 30.9082 18.9277C30.8301 17.7363 30.7324 16.5059 30.6152 15.2363C30.5176 13.9668 30.4102 12.7656 30.293 11.6328C30.1758 10.5 30.0781 9.62109 30 8.99609C30 8.74219 30.1172 8.57617 30.3516 8.49805C30.5859 8.41992 30.8105 8.38086 31.0254 8.38086C31.2988 8.38086 31.582 8.45898 31.875 8.61523C32.1875 8.77148 32.3828 8.98633 32.4609 9.25977C32.4609 9.33789 32.4707 9.48438 32.4902 9.69922C32.5098 9.89453 32.5195 10.0996 32.5195 10.3145C32.5391 10.5293 32.5586 10.7441 32.5781 10.959C32.5977 11.1543 32.6074 11.291 32.6074 11.3691C32.6074 11.4863 32.6074 11.5742 32.6074 11.6328C32.6074 11.6914 32.6074 11.75 32.6074 11.8086C32.6074 11.8477 32.6172 11.8965 32.6367 11.9551C32.6562 12.0137 32.6855 12.1113 32.7246 12.248C32.7637 12.209 32.8027 12.1602 32.8418 12.1016C32.9004 12.043 32.9395 12.0039 32.959 11.9844C33.2715 11.5352 33.5742 11.1445 33.8672 10.8125C34.1602 10.4609 34.4629 10.1387 34.7754 9.8457C35.0879 9.5332 35.4297 9.21094 35.8008 8.87891C36.1914 8.52734 36.6406 8.12695 37.1484 7.67773C37.2656 7.58008 37.3535 7.51172 37.4121 7.47266C37.4707 7.41406 37.5195 7.375 37.5586 7.35547C37.6172 7.31641 37.6758 7.29688 37.7344 7.29688C37.793 7.27734 37.8711 7.26758 37.9688 7.26758C38.3008 7.26758 38.6328 7.38477 38.9648 7.61914C39.3164 7.83398 39.4922 8.13672 39.4922 8.52734C39.4922 8.66406 39.4434 8.81055 39.3457 8.9668C39.248 9.10352 39.1309 9.24023 38.9941 9.37695C38.8574 9.49414 38.7109 9.60156 38.5547 9.69922C38.418 9.79688 38.291 9.86523 38.1738 9.9043C37.666 10.3535 37.1289 10.8711 36.5625 11.457C35.9961 12.0234 35.4688 12.6387 34.9805 13.3027C34.4922 13.9668 34.0918 14.6602 33.7793 15.3828C33.4668 16.1055 33.3105 16.8281 33.3105 17.5508C33.3105 18.2148 33.3594 18.8691 33.457 19.5137C33.5547 20.1582 33.6035 20.8125 33.6035 21.4766V22.502C33.4473 22.6582 33.3105 22.7852 33.1934 22.8828C33.0762 22.9805 32.9102 23.0293 32.6953 23.0293C32.3633 23.0293 32.041 22.8926 31.7285 22.6191C31.416 22.3262 31.2109 22.0332 31.1133 21.7402ZM43.3008 18.8105L40.0781 10.9883C40.0586 10.9688 40.0488 10.9492 40.0488 10.9297V10.8125C40.0488 10.6367 40.0977 10.4902 40.1953 10.373C40.3125 10.2363 40.4492 10.1191 40.6055 10.0215C40.6445 10.0215 40.7227 10.0215 40.8398 10.0215C40.957 10.002 41.0352 9.99219 41.0742 9.99219C41.4453 9.99219 41.709 10.0508 41.8652 10.168C42.041 10.2852 42.2656 10.4414 42.5391 10.6367C42.6172 10.9297 42.7148 11.2324 42.832 11.5449C42.9688 11.8574 43.125 12.2578 43.3008 12.7461C43.4961 13.2148 43.7402 13.8105 44.0332 14.5332C44.3262 15.2559 44.6973 16.1738 45.1465 17.2871L45.293 17.4336C45.3516 17.3359 45.4004 17.209 45.4395 17.0527C45.498 16.8965 45.5859 16.623 45.7031 16.2324C45.8398 15.8418 46.0254 15.2754 46.2598 14.5332C46.4941 13.791 46.8262 12.7852 47.2559 11.5156C47.4121 11.2617 47.5195 10.9688 47.5781 10.6367C47.6367 10.3047 47.7051 9.99219 47.7832 9.69922C47.8613 9.40625 47.9785 9.16211 48.1348 8.9668C48.3105 8.77148 48.5742 8.67383 48.9258 8.67383C49.2578 8.67383 49.5801 8.81055 49.8926 9.08398C50.2051 9.33789 50.3613 9.65039 50.3613 10.0215C50.3613 10.1973 50.3027 10.3926 50.1855 10.6074C50.0684 10.8027 49.9512 10.9688 49.834 11.1055L46.2598 23H46.084C46.0059 23 45.8887 22.9902 45.7324 22.9707C45.5957 22.9512 45.4492 22.9219 45.293 22.8828C45.1367 22.8242 45 22.7656 44.8828 22.707C44.7656 22.6484 44.6973 22.5801 44.6777 22.502L43.3008 18.9277V18.8105ZM52.998 21.8867C52.8027 19.9336 52.6367 18.2637 52.5 16.877C52.3633 15.4902 52.2461 14.3281 52.1484 13.3906C52.0508 12.4531 51.9629 11.7109 51.8848 11.1641C51.8262 10.5977 51.7773 10.1777 51.7383 9.9043C51.6992 9.61133 51.6699 9.41602 51.6504 9.31836C51.6309 9.2207 51.6211 9.16211 51.6211 9.14258V9.02539C51.6211 8.81055 51.709 8.63477 51.8848 8.49805C52.0801 8.3418 52.2754 8.26367 52.4707 8.26367C52.7637 8.26367 53.0762 8.3125 53.4082 8.41016C53.7598 8.50781 53.9941 8.71289 54.1113 9.02539C54.2871 9.98242 54.4043 10.9492 54.4629 11.9258C54.541 12.9023 54.5996 13.8789 54.6387 14.8555C54.6973 15.8125 54.7656 16.7793 54.8438 17.7559C54.9414 18.7324 55.1074 19.6992 55.3418 20.6562C55.3418 20.6953 55.3516 20.7734 55.3711 20.8906C55.4102 21.0078 55.4395 21.1348 55.459 21.2715C55.498 21.4082 55.5273 21.5352 55.5469 21.6523C55.5664 21.7695 55.5762 21.8477 55.5762 21.8867V21.9453C55.5762 21.9648 55.5859 21.9844 55.6055 22.0039C55.6055 22.2383 55.498 22.4727 55.2832 22.707C55.0684 22.9414 54.8438 23.0391 54.6094 23C54.5508 22.9805 54.4043 22.9512 54.1699 22.9121C53.9551 22.8535 53.8086 22.8047 53.7305 22.7656C53.6719 22.7461 53.5938 22.707 53.4961 22.6484C53.3984 22.5703 53.3008 22.4922 53.2031 22.4141C53.125 22.3359 53.0566 22.248 52.998 22.1504C52.9395 22.0527 52.9395 21.9648 52.998 21.8867ZM51.3574 0.529297C51.3574 0.392578 51.4648 0.275391 51.6797 0.177734C51.9141 0.0605469 52.0898 0.00195312 52.207 0.00195312C52.5 0.00195312 52.8223 0.0898438 53.1738 0.265625C53.5449 0.421875 53.7305 0.666016 53.7305 0.998047C53.7305 1.33008 53.6816 1.55469 53.584 1.67188C53.5059 1.78906 53.3008 1.84766 52.9688 1.84766C52.6172 1.84766 52.2559 1.73047 51.8848 1.49609C51.5332 1.26172 51.3574 0.939453 51.3574 0.529297ZM56.6895 19.4844C56.5527 18.8984 56.5527 18.2051 56.6895 17.4043C56.8457 16.6035 57.0801 15.8027 57.3926 15.002C57.7246 14.1816 58.125 13.4102 58.5938 12.6875C59.082 11.9648 59.5898 11.3887 60.1172 10.959C60.6641 10.5293 61.2109 10.2949 61.7578 10.2559C62.3242 10.1973 62.8613 10.4414 63.3691 10.9883C63.3691 11.0078 63.3789 11.0566 63.3984 11.1348C63.418 11.2129 63.4375 11.3789 63.457 11.6328C63.4766 11.8672 63.4863 12.209 63.4863 12.6582C63.5059 13.0879 63.5156 13.6836 63.5156 14.4453C63.5352 14.4844 63.5547 14.5527 63.5742 14.6504C63.6133 14.7285 63.6328 14.7871 63.6328 14.8262C63.5742 15.041 63.457 15.2461 63.2812 15.4414C63.125 15.6172 62.9199 15.7051 62.666 15.7051C62.334 15.7051 62.0605 15.6562 61.8457 15.5586C61.6504 15.4414 61.5039 15.1777 61.4062 14.7676C61.4453 14.709 61.4551 14.5918 61.4355 14.416C61.416 14.2207 61.377 14.0059 61.3184 13.7715C61.2793 13.5371 61.2402 13.3027 61.2012 13.0684C61.1621 12.834 61.1426 12.6484 61.1426 12.5117C61.123 12.5117 61.0938 12.5312 61.0547 12.5703C61.0352 12.5898 61.0156 12.6094 60.9961 12.6289C60.6641 13.2148 60.3516 13.8691 60.0586 14.5918C59.7852 15.2949 59.5703 16.0176 59.4141 16.7598C59.2773 17.4824 59.2285 18.2051 59.2676 18.9277C59.3262 19.6504 59.541 20.3047 59.9121 20.8906C60.1855 20.8906 60.4395 20.7832 60.6738 20.5684C60.9082 20.334 61.1035 20.1191 61.2598 19.9238C61.5918 19.5332 61.9141 19.1328 62.2266 18.7227C62.5586 18.3125 62.8613 17.8828 63.1348 17.4336C63.252 17.2383 63.3398 17.0625 63.3984 16.9062C63.457 16.75 63.5254 16.623 63.6035 16.5254C63.7012 16.4277 63.8184 16.3496 63.9551 16.291C64.0918 16.2324 64.2969 16.2031 64.5703 16.2031C64.8828 16.2031 65.1758 16.2812 65.4492 16.4375C65.7227 16.5742 65.8594 16.8086 65.8594 17.1406C65.8594 17.5898 65.6543 18.1562 65.2441 18.8398C64.8535 19.5039 64.3652 20.1484 63.7793 20.7734C63.2129 21.3984 62.6074 21.9355 61.9629 22.3848C61.3184 22.8145 60.752 23.0293 60.2637 23.0293C59.7949 23.0293 59.3359 22.9414 58.8867 22.7656C58.457 22.5703 58.0762 22.3164 57.7441 22.0039C57.4316 21.6914 57.1777 21.3203 56.9824 20.8906C56.7871 20.4609 56.6895 19.9922 56.6895 19.4844ZM79.3066 14.6797C79.2676 15.0312 79.2188 15.3047 79.1602 15.5C79.1211 15.6953 79.043 15.8711 78.9258 16.0273C78.8086 16.1836 78.6426 16.3496 78.4277 16.5254C78.2129 16.6816 77.9199 16.916 77.5488 17.2285C77.1777 17.5215 76.7188 17.9121 76.1719 18.4004C75.625 18.8887 74.9609 19.5234 74.1797 20.3047C73.8672 20.5977 73.5449 20.9004 73.2129 21.2129C72.8809 21.5254 72.5293 21.8086 72.1582 22.0625C71.8066 22.2969 71.4355 22.4922 71.0449 22.6484C70.6543 22.8047 70.2441 22.8828 69.8145 22.8828C68.9746 22.8828 68.3594 22.5996 67.9688 22.0332C67.5781 21.4668 67.3828 20.8125 67.3828 20.0703C67.3828 19.582 67.3926 19.1719 67.4121 18.8398C67.4512 18.5078 67.5293 18.0781 67.6465 17.5508C67.4316 17.3555 67.2461 17.1895 67.0898 17.0527C66.9336 16.8965 66.8555 16.6914 66.8555 16.4375C66.8555 16.2031 66.9043 16.0469 67.002 15.9688C67.1191 15.8906 67.2461 15.8418 67.3828 15.8223C67.5391 15.7832 67.6855 15.7441 67.8223 15.7051C67.959 15.666 68.0566 15.5879 68.1152 15.4707C68.1543 15.3535 68.2227 15.1387 68.3203 14.8262C68.4375 14.5137 68.5547 14.1914 68.6719 13.8594C68.7891 13.5078 68.8965 13.1855 68.9941 12.8926C69.1113 12.5801 69.1895 12.3652 69.2285 12.248C69.3652 11.916 69.5117 11.584 69.668 11.252C69.8438 10.9004 70.0391 10.5879 70.2539 10.3145C70.4883 10.041 70.752 9.81641 71.0449 9.64062C71.3574 9.46484 71.7188 9.37695 72.1289 9.37695C72.3633 9.37695 72.6465 9.48438 72.9785 9.69922C73.3301 9.91406 73.6621 10.1777 73.9746 10.4902C74.2871 10.7832 74.5508 11.0957 74.7656 11.4277C74.9805 11.7598 75.0879 12.043 75.0879 12.2773C75.0879 12.5703 75.0195 12.8438 74.8828 13.0977C74.7461 13.332 74.5703 13.5566 74.3555 13.7715C74.1602 13.9668 73.9453 14.1523 73.7109 14.3281C73.4766 14.5039 73.2617 14.6699 73.0664 14.8262C73.0469 14.8262 73.0078 14.8457 72.9492 14.8848C72.8906 14.9238 72.8418 14.9531 72.8027 14.9727C72.7832 14.9922 72.7344 15.041 72.6562 15.1191C72.5977 15.1777 72.5293 15.2461 72.4512 15.3242C72.373 15.4023 72.2949 15.4805 72.2168 15.5586C72.1582 15.6367 72.1191 15.6855 72.0996 15.7051C72.041 15.7637 71.9238 15.8613 71.748 15.998C71.5918 16.1152 71.416 16.252 71.2207 16.4082C71.0254 16.5449 70.8398 16.6816 70.6641 16.8184C70.5078 16.9355 70.4004 17.0137 70.3418 17.0527L70.2246 17.2871C70.1855 17.3652 70.1465 17.541 70.1074 17.8145C70.0879 18.0684 70.0586 18.3613 70.0195 18.6934C69.9805 19.0254 69.9414 19.3672 69.9023 19.7188C69.8828 20.0508 69.873 20.3242 69.873 20.5391C69.873 20.5586 69.8828 20.5781 69.9023 20.5977C69.9414 20.6367 69.9707 20.6562 69.9902 20.6562C70.1465 20.6562 70.293 20.5879 70.4297 20.4512C70.5664 20.3145 70.7129 20.2168 70.8691 20.1582L75.5566 15.8223L76.7578 13.9766C76.8555 13.8398 77.041 13.6934 77.3145 13.5371C77.6074 13.3613 77.9004 13.2734 78.1934 13.2734C78.4863 13.2539 78.7402 13.3418 78.9551 13.5371C79.1895 13.7324 79.3066 14.1133 79.3066 14.6797ZM72.8613 12.3945C72.959 12.3164 72.998 12.1992 72.9785 12.043C72.959 11.8867 72.9004 11.75 72.8027 11.6328C72.7246 11.5156 72.6172 11.4473 72.4805 11.4277C72.3438 11.3887 72.2168 11.457 72.0996 11.6328C72.041 11.7109 71.9336 11.8672 71.7773 12.1016C71.6406 12.3359 71.4941 12.5801 71.3379 12.834C71.2012 13.0684 71.084 13.2734 70.9863 13.4492C70.8887 13.625 70.8691 13.6934 70.9277 13.6543L72.8613 12.3945ZM84.5215 21.8867C84.5215 21.7891 84.5215 21.7012 84.5215 21.623C84.541 21.5449 84.5898 21.4668 84.668 21.3887C84.9023 21.0957 85.166 20.793 85.459 20.4805C85.752 20.1484 86.0352 19.8262 86.3086 19.5137C86.582 19.1816 86.8359 18.8398 87.0703 18.4883C87.3047 18.1367 87.5 17.7852 87.6562 17.4336V17.2578L83.8184 18.0488H83.3789C83.1055 18.0488 82.7637 18.0293 82.3535 17.9902C81.9629 17.9512 81.5723 17.873 81.1816 17.7559C80.8105 17.6191 80.4883 17.4336 80.2148 17.1992C79.9609 16.9648 79.834 16.6523 79.834 16.2617C79.8535 15.8125 80.0879 15.3145 80.5371 14.7676C80.9863 14.2207 81.5137 13.6836 82.1191 13.1562C82.7246 12.6289 83.3301 12.1406 83.9355 11.6914C84.5605 11.2422 85.0586 10.8906 85.4297 10.6367C85.8398 10.4023 86.3281 10.2168 86.8945 10.0801C87.4609 9.92383 87.9785 9.8457 88.4473 9.8457C88.8379 9.8457 89.1797 9.92383 89.4727 10.0801C89.7656 10.2168 89.9121 10.5 89.9121 10.9297C89.9121 11.1055 89.8926 11.2715 89.8535 11.4277C89.834 11.584 89.7168 11.6914 89.502 11.75C88.877 11.6914 88.291 11.7402 87.7441 11.8965C87.1973 12.0332 86.6797 12.248 86.1914 12.541C85.7031 12.834 85.2441 13.1855 84.8145 13.5957C84.3848 13.9863 83.9648 14.3965 83.5547 14.8262C83.4375 14.9629 83.291 15.1582 83.1152 15.4121C82.9395 15.6465 82.8516 15.7832 82.8516 15.8223V15.8516C83.3594 15.8516 83.8574 15.8027 84.3457 15.7051C84.8535 15.6074 85.3516 15.5098 85.8398 15.4121C86.3477 15.2949 86.8457 15.1875 87.334 15.0898C87.8418 14.9922 88.3594 14.9434 88.8867 14.9434C89.082 14.9434 89.2969 14.9629 89.5312 15.002C89.7656 15.0215 89.9805 15.0801 90.1758 15.1777C90.3906 15.2754 90.5566 15.4121 90.6738 15.5879C90.8105 15.7441 90.8789 15.9492 90.8789 16.2031C90.8789 16.5742 90.7812 16.9355 90.5859 17.2871C90.4102 17.6191 90.1367 18.0293 89.7656 18.5176C89.4141 18.9863 88.9551 19.5625 88.3887 20.2461C87.8418 20.9297 87.1875 21.8086 86.4258 22.8828C86.3867 22.9414 86.2891 22.9805 86.1328 23C85.9961 23.0195 85.8789 23.0293 85.7812 23.0293C85.5078 23.0293 85.2246 22.9121 84.9316 22.6777C84.6582 22.4434 84.5215 22.1797 84.5215 21.8867Z" fill="#CCCCCC"/>
</svg>
