<svg width="99" height="24" viewBox="0 0 99 24" fill="none" xmlns="http://www.w3.org/2000/svg">
<path d="M5.06836 21.9453C5.38086 21.5156 5.72266 21.1934 6.09375 20.9785C6.48438 20.7637 6.875 20.5879 7.26562 20.4512C7.67578 20.3145 8.07617 20.1875 8.4668 20.0703C8.87695 19.9336 9.27734 19.7188 9.66797 19.4258C9.88281 19.3086 10.1855 19.1328 10.5762 18.8984C10.9668 18.6641 11.3477 18.4102 11.7188 18.1367C12.1094 17.8438 12.4414 17.5605 12.7148 17.2871C13.0078 17.0137 13.1543 16.7793 13.1543 16.584C13.1543 16.5645 13.1445 16.5547 13.125 16.5547C13.0859 16.5547 13.0664 16.5449 13.0664 16.5254L13.0078 16.4668C12.9102 16.4277 12.7539 16.3789 12.5391 16.3203C12.3242 16.2617 12.1973 16.2227 12.1582 16.2031C9.63867 15.9102 7.60742 15.6562 6.06445 15.4414C4.54102 15.207 3.35938 14.9629 2.51953 14.709C1.69922 14.4551 1.15234 14.1621 0.878906 13.8301C0.605469 13.498 0.46875 13.0781 0.46875 12.5703C0.46875 12.375 0.507812 12.1602 0.585938 11.9258C0.664062 11.6914 0.751953 11.457 0.849609 11.2227C0.966797 10.9883 1.08398 10.7734 1.20117 10.5781C1.31836 10.3828 1.42578 10.2266 1.52344 10.1094C1.83594 9.71875 2.24609 9.36719 2.75391 9.05469C3.26172 8.74219 3.80859 8.46875 4.39453 8.23438C4.98047 8 5.56641 7.79492 6.15234 7.61914C6.75781 7.44336 7.30469 7.28711 7.79297 7.15039C8.33984 7.11133 8.88672 6.98438 9.43359 6.76953C10 6.53516 10.5566 6.37891 11.1035 6.30078C11.377 6.30078 11.6016 6.4082 11.7773 6.62305C11.9531 6.83789 12.041 7.0625 12.041 7.29688C12.041 7.62891 11.9727 7.88281 11.8359 8.05859C11.7188 8.21484 11.5527 8.3418 11.3379 8.43945C11.1426 8.51758 10.918 8.58594 10.6641 8.64453C10.4102 8.68359 10.1562 8.73242 9.90234 8.79102C9.74609 8.83008 9.53125 8.88867 9.25781 8.9668C8.98438 9.02539 8.71094 9.09375 8.4375 9.17188C8.16406 9.25 7.91992 9.31836 7.70508 9.37695C7.49023 9.43555 7.36328 9.47461 7.32422 9.49414C6.71875 9.74805 6.14258 9.99219 5.5957 10.2266C5.06836 10.4414 4.59961 10.666 4.18945 10.9004C3.79883 11.1348 3.48633 11.3887 3.25195 11.6621C3.03711 11.916 2.93945 12.1992 2.95898 12.5117V12.541C3.1543 12.8145 3.59375 13.0195 4.27734 13.1562C4.96094 13.293 5.76172 13.4102 6.67969 13.5078C7.61719 13.6055 8.59375 13.7031 9.60938 13.8008C10.6445 13.8984 11.5918 14.0449 12.4512 14.2402C13.3105 14.4355 14.0234 14.6992 14.5898 15.0312C15.1563 15.3633 15.4492 15.8125 15.4688 16.3789C15.4688 16.5938 15.4199 16.8477 15.3223 17.1406C15.2441 17.4336 15.127 17.6582 14.9707 17.8145C14.4824 18.3613 13.8965 18.9277 13.2129 19.5137C12.5488 20.0996 11.8262 20.6465 11.0449 21.1543C10.2637 21.6426 9.45312 22.0625 8.61328 22.4141C7.79297 22.7461 6.98242 22.9414 6.18164 23C5.9082 23 5.6543 22.9023 5.41992 22.707C5.18555 22.4922 5.06836 22.2383 5.06836 21.9453ZM19.5703 14.4453C19.2969 14.4453 19.0527 14.5137 18.8379 14.6504C18.623 14.7871 18.3691 14.8555 18.0762 14.8555C18.0371 14.8555 17.9297 14.8555 17.7539 14.8555C17.5977 14.8359 17.5 14.8262 17.4609 14.8262C17.3828 14.7285 17.2949 14.6504 17.1973 14.5918C17.0996 14.5332 17.002 14.4746 16.9043 14.416C16.8066 14.3379 16.7188 14.25 16.6406 14.1523C16.582 14.0547 16.5527 13.918 16.5527 13.7422C16.5527 13.4492 16.6699 13.2148 16.9043 13.0391C17.1387 12.8438 17.4121 12.6777 17.7246 12.541C18.0371 12.4043 18.3496 12.2773 18.6621 12.1602C18.9941 12.043 19.2578 11.9062 19.4531 11.75V10.4609C19.4531 9.01562 19.3848 7.57031 19.248 6.125C19.1113 4.66016 19.043 3.21484 19.043 1.78906C19.043 1.39844 19.1406 1.14453 19.3359 1.02734C19.5312 0.910156 19.7949 0.851562 20.127 0.851562C20.5176 0.851562 20.8008 0.96875 20.9766 1.20312C21.1719 1.41797 21.3086 1.69141 21.3867 2.02344C21.4648 2.33594 21.5039 2.67773 21.5039 3.04883C21.5039 3.40039 21.5137 3.70313 21.5332 3.95703C21.5332 4.21094 21.5527 4.66016 21.5918 5.30469C21.6309 5.94922 21.6699 6.63281 21.709 7.35547C21.748 8.07812 21.7871 8.76172 21.8262 9.40625C21.8652 10.0508 21.8945 10.5 21.9141 10.7539C21.9922 10.7344 22.1387 10.6855 22.3535 10.6074C22.5879 10.5098 22.832 10.4219 23.0859 10.3438C23.3398 10.2461 23.5742 10.1582 23.7891 10.0801C24.0234 10.002 24.1895 9.94336 24.2871 9.9043C24.7949 9.68945 25.3223 9.45508 25.8691 9.20117C26.416 8.92773 26.9727 8.79102 27.5391 8.79102C27.9297 8.79102 28.2227 8.92773 28.418 9.20117C28.6328 9.45508 28.7402 9.75781 28.7402 10.1094C28.7402 10.3633 28.6426 10.5488 28.4473 10.666C28.252 10.7832 28.0469 10.8906 27.832 10.9883L22.5 12.9805C22.4414 13.0195 22.3828 13.0586 22.3242 13.0977C22.2656 13.1172 22.207 13.1562 22.1484 13.2148V14.1523C22.1484 14.8359 22.1582 15.5488 22.1777 16.291C22.2168 17.0137 22.2852 17.7168 22.3828 18.4004C22.4805 18.9863 22.5879 19.5625 22.7051 20.1289C22.8223 20.6953 22.8809 21.2715 22.8809 21.8574C22.8809 22.0332 22.8223 22.2676 22.7051 22.5605C22.5879 22.8535 22.4023 23 22.1484 23C21.6211 23 21.1914 22.8438 20.8594 22.5312C20.5273 22.2188 20.3418 21.7988 20.3027 21.2715C20.2051 20.2559 20.0977 19.1426 19.9805 17.9316C19.8828 16.7207 19.7852 15.5586 19.6875 14.4453H19.5703ZM36.5039 14.8262C36.3281 15.1387 36.123 15.5195 35.8887 15.9688C35.6738 16.3984 35.4395 16.8672 35.1855 17.375C34.9316 17.8633 34.6484 18.3613 34.3359 18.8691C34.043 19.3574 33.7305 19.8066 33.3984 20.2168C33.0859 20.627 32.7539 20.9785 32.4023 21.2715C32.0508 21.5449 31.6895 21.7109 31.3184 21.7695C31.1621 21.7695 30.9863 21.7598 30.791 21.7402C30.5957 21.7012 30.4004 21.6523 30.2051 21.5938C30.0098 21.5156 29.8438 21.418 29.707 21.3008C29.5898 21.1641 29.5312 20.9883 29.5312 20.7734C29.5508 18.7812 29.6973 16.9746 29.9707 15.3535C30.2441 13.7129 30.6738 12.2773 31.2598 11.0469C31.8457 9.79688 32.5977 8.76172 33.5156 7.94141C34.4336 7.12109 35.5469 6.53516 36.8555 6.18359C36.8945 6.18359 36.9629 6.18359 37.0605 6.18359C37.1777 6.16406 37.2559 6.1543 37.2949 6.1543C37.8809 6.13477 38.3008 6.4082 38.5547 6.97461C38.8281 7.52148 39.0234 8.40039 39.1406 9.61133C39.2773 10.8027 39.3652 12.3457 39.4043 14.2402C39.4629 16.1152 39.5703 18.3711 39.7266 21.0078C39.7852 21.2227 39.8145 21.4082 39.8145 21.5645C39.834 21.7207 39.8438 21.9062 39.8438 22.1211C39.8438 22.4141 39.7559 22.6387 39.5801 22.7949C39.4043 22.9316 39.1797 23 38.9062 23C38.3398 23 37.9395 22.8438 37.7051 22.5312C37.4707 22.2188 37.3145 21.7988 37.2363 21.2715C37.2363 21.252 37.2168 21.0957 37.1777 20.8027C37.1582 20.5098 37.1191 20.1777 37.0605 19.8066C37.0215 19.416 36.9824 19.0254 36.9434 18.6348C36.9043 18.2441 36.875 17.9219 36.8555 17.668V17.5508C36.8164 17.3555 36.7871 17.1113 36.7676 16.8184C36.7676 16.5254 36.748 16.2422 36.709 15.9688C36.6699 15.6367 36.6406 15.3047 36.6211 14.9727L36.5039 14.8262ZM35.8594 9.02539C35.332 9.41602 34.8145 9.94336 34.3066 10.6074C33.7988 11.2715 33.4375 11.916 33.2227 12.541C33.125 12.834 33.0176 13.2344 32.9004 13.7422C32.7832 14.25 32.6758 14.7578 32.5781 15.2656C32.5 15.7539 32.4316 16.2129 32.373 16.6426C32.3145 17.0527 32.2852 17.3164 32.2852 17.4336C32.3047 17.4336 32.3242 17.4141 32.3438 17.375C32.3828 17.3359 32.4121 17.3066 32.4316 17.2871C33.6426 16.1152 34.4922 14.8555 34.9805 13.5078C35.4883 12.1406 35.7812 10.6465 35.8594 9.02539ZM44.1797 14.4453C43.9062 14.4453 43.6621 14.5137 43.4473 14.6504C43.2324 14.7871 42.9785 14.8555 42.6855 14.8555C42.6465 14.8555 42.5391 14.8555 42.3633 14.8555C42.207 14.8359 42.1094 14.8262 42.0703 14.8262C41.9922 14.7285 41.9043 14.6504 41.8066 14.5918C41.709 14.5332 41.6113 14.4746 41.5137 14.416C41.416 14.3379 41.3281 14.25 41.25 14.1523C41.1914 14.0547 41.1621 13.918 41.1621 13.7422C41.1621 13.4492 41.2793 13.2148 41.5137 13.0391C41.748 12.8438 42.0215 12.6777 42.334 12.541C42.6465 12.4043 42.959 12.2773 43.2715 12.1602C43.6035 12.043 43.8672 11.9062 44.0625 11.75V10.4609C44.0625 9.01562 43.9941 7.57031 43.8574 6.125C43.7207 4.66016 43.6523 3.21484 43.6523 1.78906C43.6523 1.39844 43.75 1.14453 43.9453 1.02734C44.1406 0.910156 44.4043 0.851562 44.7363 0.851562C45.127 0.851562 45.4102 0.96875 45.5859 1.20312C45.7812 1.41797 45.918 1.69141 45.9961 2.02344C46.0742 2.33594 46.1133 2.67773 46.1133 3.04883C46.1133 3.40039 46.123 3.70313 46.1426 3.95703C46.1426 4.21094 46.1621 4.66016 46.2012 5.30469C46.2402 5.94922 46.2793 6.63281 46.3184 7.35547C46.3574 8.07812 46.3965 8.76172 46.4355 9.40625C46.4746 10.0508 46.5039 10.5 46.5234 10.7539C46.6016 10.7344 46.748 10.6855 46.9629 10.6074C47.1973 10.5098 47.4414 10.4219 47.6953 10.3438C47.9492 10.2461 48.1836 10.1582 48.3984 10.0801C48.6328 10.002 48.7988 9.94336 48.8965 9.9043C49.4043 9.68945 49.9316 9.45508 50.4785 9.20117C51.0254 8.92773 51.582 8.79102 52.1484 8.79102C52.5391 8.79102 52.832 8.92773 53.0273 9.20117C53.2422 9.45508 53.3496 9.75781 53.3496 10.1094C53.3496 10.3633 53.252 10.5488 53.0566 10.666C52.8613 10.7832 52.6562 10.8906 52.4414 10.9883L47.1094 12.9805C47.0508 13.0195 46.9922 13.0586 46.9336 13.0977C46.875 13.1172 46.8164 13.1562 46.7578 13.2148V14.1523C46.7578 14.8359 46.7676 15.5488 46.7871 16.291C46.8262 17.0137 46.8945 17.7168 46.9922 18.4004C47.0898 18.9863 47.1973 19.5625 47.3145 20.1289C47.4316 20.6953 47.4902 21.2715 47.4902 21.8574C47.4902 22.0332 47.4316 22.2676 47.3145 22.5605C47.1973 22.8535 47.0117 23 46.7578 23C46.2305 23 45.8008 22.8438 45.4688 22.5312C45.1367 22.2188 44.9512 21.7988 44.9121 21.2715C44.8145 20.2559 44.707 19.1426 44.5898 17.9316C44.4922 16.7207 44.3945 15.5586 44.2969 14.4453H44.1797ZM55.6641 21.8867C55.4688 19.9336 55.3027 18.2637 55.166 16.877C55.0293 15.4902 54.9121 14.3281 54.8145 13.3906C54.7168 12.4531 54.6289 11.7109 54.5508 11.1641C54.4922 10.5977 54.4434 10.1777 54.4043 9.9043C54.3652 9.61133 54.3359 9.41602 54.3164 9.31836C54.2969 9.2207 54.2871 9.16211 54.2871 9.14258V9.02539C54.2871 8.81055 54.375 8.63477 54.5508 8.49805C54.7461 8.3418 54.9414 8.26367 55.1367 8.26367C55.4297 8.26367 55.7422 8.3125 56.0742 8.41016C56.4258 8.50781 56.6602 8.71289 56.7773 9.02539C56.9531 9.98242 57.0703 10.9492 57.1289 11.9258C57.207 12.9023 57.2656 13.8789 57.3047 14.8555C57.3633 15.8125 57.4316 16.7793 57.5098 17.7559C57.6074 18.7324 57.7734 19.6992 58.0078 20.6562C58.0078 20.6953 58.0176 20.7734 58.0371 20.8906C58.0762 21.0078 58.1055 21.1348 58.125 21.2715C58.1641 21.4082 58.1934 21.5352 58.2129 21.6523C58.2324 21.7695 58.2422 21.8477 58.2422 21.8867V21.9453C58.2422 21.9648 58.252 21.9844 58.2715 22.0039C58.2715 22.2383 58.1641 22.4727 57.9492 22.707C57.7344 22.9414 57.5098 23.0391 57.2754 23C57.2168 22.9805 57.0703 22.9512 56.8359 22.9121C56.6211 22.8535 56.4746 22.8047 56.3965 22.7656C56.3379 22.7461 56.2598 22.707 56.1621 22.6484C56.0645 22.5703 55.9668 22.4922 55.8691 22.4141C55.791 22.3359 55.7227 22.248 55.6641 22.1504C55.6055 22.0527 55.6055 21.9648 55.6641 21.8867ZM54.0234 0.529297C54.0234 0.392578 54.1309 0.275391 54.3457 0.177734C54.5801 0.0605469 54.7559 0.00195312 54.873 0.00195312C55.166 0.00195312 55.4883 0.0898438 55.8398 0.265625C56.2109 0.421875 56.3965 0.666016 56.3965 0.998047C56.3965 1.33008 56.3477 1.55469 56.25 1.67188C56.1719 1.78906 55.9668 1.84766 55.6348 1.84766C55.2832 1.84766 54.9219 1.73047 54.5508 1.49609C54.1992 1.26172 54.0234 0.939453 54.0234 0.529297ZM63.7793 21.8867C63.7793 21.7891 63.7793 21.7012 63.7793 21.623C63.7988 21.5449 63.8477 21.4668 63.9258 21.3887C64.1602 21.0957 64.4238 20.793 64.7168 20.4805C65.0098 20.1484 65.293 19.8262 65.5664 19.5137C65.8398 19.1816 66.0938 18.8398 66.3281 18.4883C66.5625 18.1367 66.7578 17.7852 66.9141 17.4336V17.2578L63.0762 18.0488H62.6367C62.3633 18.0488 62.0215 18.0293 61.6113 17.9902C61.2207 17.9512 60.8301 17.873 60.4395 17.7559C60.0684 17.6191 59.7461 17.4336 59.4727 17.1992C59.2188 16.9648 59.0918 16.6523 59.0918 16.2617C59.1113 15.8125 59.3457 15.3145 59.7949 14.7676C60.2441 14.2207 60.7715 13.6836 61.377 13.1562C61.9824 12.6289 62.5879 12.1406 63.1934 11.6914C63.8184 11.2422 64.3164 10.8906 64.6875 10.6367C65.0977 10.4023 65.5859 10.2168 66.1523 10.0801C66.7188 9.92383 67.2363 9.8457 67.7051 9.8457C68.0957 9.8457 68.4375 9.92383 68.7305 10.0801C69.0234 10.2168 69.1699 10.5 69.1699 10.9297C69.1699 11.1055 69.1504 11.2715 69.1113 11.4277C69.0918 11.584 68.9746 11.6914 68.7598 11.75C68.1348 11.6914 67.5488 11.7402 67.002 11.8965C66.4551 12.0332 65.9375 12.248 65.4492 12.541C64.9609 12.834 64.502 13.1855 64.0723 13.5957C63.6426 13.9863 63.2227 14.3965 62.8125 14.8262C62.6953 14.9629 62.5488 15.1582 62.373 15.4121C62.1973 15.6465 62.1094 15.7832 62.1094 15.8223V15.8516C62.6172 15.8516 63.1152 15.8027 63.6035 15.7051C64.1113 15.6074 64.6094 15.5098 65.0977 15.4121C65.6055 15.2949 66.1035 15.1875 66.5918 15.0898C67.0996 14.9922 67.6172 14.9434 68.1445 14.9434C68.3398 14.9434 68.5547 14.9629 68.7891 15.002C69.0234 15.0215 69.2383 15.0801 69.4336 15.1777C69.6484 15.2754 69.8145 15.4121 69.9316 15.5879C70.0684 15.7441 70.1367 15.9492 70.1367 16.2031C70.1367 16.5742 70.0391 16.9355 69.8438 17.2871C69.668 17.6191 69.3945 18.0293 69.0234 18.5176C68.6719 18.9863 68.2129 19.5625 67.6465 20.2461C67.0996 20.9297 66.4453 21.8086 65.6836 22.8828C65.6445 22.9414 65.5469 22.9805 65.3906 23C65.2539 23.0195 65.1367 23.0293 65.0391 23.0293C64.7656 23.0293 64.4824 22.9121 64.1895 22.6777C63.916 22.4434 63.7793 22.1797 63.7793 21.8867ZM74.2383 14.4453C73.9648 14.4453 73.7207 14.5137 73.5059 14.6504C73.291 14.7871 73.0371 14.8555 72.7441 14.8555C72.7051 14.8555 72.5977 14.8555 72.4219 14.8555C72.2656 14.8359 72.168 14.8262 72.1289 14.8262C72.0508 14.7285 71.9629 14.6504 71.8652 14.5918C71.7676 14.5332 71.6699 14.4746 71.5723 14.416C71.4746 14.3379 71.3867 14.25 71.3086 14.1523C71.25 14.0547 71.2207 13.918 71.2207 13.7422C71.2207 13.4492 71.3379 13.2148 71.5723 13.0391C71.8066 12.8438 72.0801 12.6777 72.3926 12.541C72.7051 12.4043 73.0176 12.2773 73.3301 12.1602C73.6621 12.043 73.9258 11.9062 74.1211 11.75V10.4609C74.1211 9.01562 74.0527 7.57031 73.916 6.125C73.7793 4.66016 73.7109 3.21484 73.7109 1.78906C73.7109 1.39844 73.8086 1.14453 74.0039 1.02734C74.1992 0.910156 74.4629 0.851562 74.7949 0.851562C75.1855 0.851562 75.4688 0.96875 75.6445 1.20312C75.8398 1.41797 75.9766 1.69141 76.0547 2.02344C76.1328 2.33594 76.1719 2.67773 76.1719 3.04883C76.1719 3.40039 76.1816 3.70313 76.2012 3.95703C76.2012 4.21094 76.2207 4.66016 76.2598 5.30469C76.2988 5.94922 76.3379 6.63281 76.377 7.35547C76.416 8.07812 76.4551 8.76172 76.4941 9.40625C76.5332 10.0508 76.5625 10.5 76.582 10.7539C76.6602 10.7344 76.8066 10.6855 77.0215 10.6074C77.2559 10.5098 77.5 10.4219 77.7539 10.3438C78.0078 10.2461 78.2422 10.1582 78.457 10.0801C78.6914 10.002 78.8574 9.94336 78.9551 9.9043C79.4629 9.68945 79.9902 9.45508 80.5371 9.20117C81.084 8.92773 81.6406 8.79102 82.207 8.79102C82.5977 8.79102 82.8906 8.92773 83.0859 9.20117C83.3008 9.45508 83.4082 9.75781 83.4082 10.1094C83.4082 10.3633 83.3105 10.5488 83.1152 10.666C82.9199 10.7832 82.7148 10.8906 82.5 10.9883L77.168 12.9805C77.1094 13.0195 77.0508 13.0586 76.9922 13.0977C76.9336 13.1172 76.875 13.1562 76.8164 13.2148V14.1523C76.8164 14.8359 76.8262 15.5488 76.8457 16.291C76.8848 17.0137 76.9531 17.7168 77.0508 18.4004C77.1484 18.9863 77.2559 19.5625 77.373 20.1289C77.4902 20.6953 77.5488 21.2715 77.5488 21.8574C77.5488 22.0332 77.4902 22.2676 77.373 22.5605C77.2559 22.8535 77.0703 23 76.8164 23C76.2891 23 75.8594 22.8438 75.5273 22.5312C75.1953 22.2188 75.0098 21.7988 74.9707 21.2715C74.873 20.2559 74.7656 19.1426 74.6484 17.9316C74.5508 16.7207 74.4531 15.5586 74.3555 14.4453H74.2383ZM85.7227 21.8867C85.5273 19.9336 85.3613 18.2637 85.2246 16.877C85.0879 15.4902 84.9707 14.3281 84.873 13.3906C84.7754 12.4531 84.6875 11.7109 84.6094 11.1641C84.5508 10.5977 84.502 10.1777 84.4629 9.9043C84.4238 9.61133 84.3945 9.41602 84.375 9.31836C84.3555 9.2207 84.3457 9.16211 84.3457 9.14258V9.02539C84.3457 8.81055 84.4336 8.63477 84.6094 8.49805C84.8047 8.3418 85 8.26367 85.1953 8.26367C85.4883 8.26367 85.8008 8.3125 86.1328 8.41016C86.4844 8.50781 86.7188 8.71289 86.8359 9.02539C87.0117 9.98242 87.1289 10.9492 87.1875 11.9258C87.2656 12.9023 87.3242 13.8789 87.3633 14.8555C87.4219 15.8125 87.4902 16.7793 87.5684 17.7559C87.666 18.7324 87.832 19.6992 88.0664 20.6562C88.0664 20.6953 88.0762 20.7734 88.0957 20.8906C88.1348 21.0078 88.1641 21.1348 88.1836 21.2715C88.2227 21.4082 88.252 21.5352 88.2715 21.6523C88.291 21.7695 88.3008 21.8477 88.3008 21.8867V21.9453C88.3008 21.9648 88.3105 21.9844 88.3301 22.0039C88.3301 22.2383 88.2227 22.4727 88.0078 22.707C87.793 22.9414 87.5684 23.0391 87.334 23C87.2754 22.9805 87.1289 22.9512 86.8945 22.9121C86.6797 22.8535 86.5332 22.8047 86.4551 22.7656C86.3965 22.7461 86.3184 22.707 86.2207 22.6484C86.123 22.5703 86.0254 22.4922 85.9277 22.4141C85.8496 22.3359 85.7812 22.248 85.7227 22.1504C85.6641 22.0527 85.6641 21.9648 85.7227 21.8867ZM84.082 0.529297C84.082 0.392578 84.1895 0.275391 84.4043 0.177734C84.6387 0.0605469 84.8145 0.00195312 84.9316 0.00195312C85.2246 0.00195312 85.5469 0.0898438 85.8984 0.265625C86.2695 0.421875 86.4551 0.666016 86.4551 0.998047C86.4551 1.33008 86.4062 1.55469 86.3086 1.67188C86.2305 1.78906 86.0254 1.84766 85.6934 1.84766C85.3418 1.84766 84.9805 1.73047 84.6094 1.49609C84.2578 1.26172 84.082 0.939453 84.082 0.529297ZM89.4141 19.4844C89.2773 18.8984 89.2773 18.2051 89.4141 17.4043C89.5703 16.6035 89.8047 15.8027 90.1172 15.002C90.4492 14.1816 90.8496 13.4102 91.3184 12.6875C91.8066 11.9648 92.3145 11.3887 92.8418 10.959C93.3887 10.5293 93.9355 10.2949 94.4824 10.2559C95.0488 10.1973 95.5859 10.4414 96.0938 10.9883C96.0938 11.0078 96.1035 11.0566 96.123 11.1348C96.1426 11.2129 96.1621 11.3789 96.1816 11.6328C96.2012 11.8672 96.2109 12.209 96.2109 12.6582C96.2305 13.0879 96.2402 13.6836 96.2402 14.4453C96.2598 14.4844 96.2793 14.5527 96.2988 14.6504C96.3379 14.7285 96.3574 14.7871 96.3574 14.8262C96.2988 15.041 96.1816 15.2461 96.0059 15.4414C95.8496 15.6172 95.6445 15.7051 95.3906 15.7051C95.0586 15.7051 94.7852 15.6562 94.5703 15.5586C94.375 15.4414 94.2285 15.1777 94.1309 14.7676C94.1699 14.709 94.1797 14.5918 94.1602 14.416C94.1406 14.2207 94.1016 14.0059 94.043 13.7715C94.0039 13.5371 93.9648 13.3027 93.9258 13.0684C93.8867 12.834 93.8672 12.6484 93.8672 12.5117C93.8477 12.5117 93.8184 12.5312 93.7793 12.5703C93.7598 12.5898 93.7402 12.6094 93.7207 12.6289C93.3887 13.2148 93.0762 13.8691 92.7832 14.5918C92.5098 15.2949 92.2949 16.0176 92.1387 16.7598C92.002 17.4824 91.9531 18.2051 91.9922 18.9277C92.0508 19.6504 92.2656 20.3047 92.6367 20.8906C92.9102 20.8906 93.1641 20.7832 93.3984 20.5684C93.6328 20.334 93.8281 20.1191 93.9844 19.9238C94.3164 19.5332 94.6387 19.1328 94.9512 18.7227C95.2832 18.3125 95.5859 17.8828 95.8594 17.4336C95.9766 17.2383 96.0645 17.0625 96.123 16.9062C96.1816 16.75 96.25 16.623 96.3281 16.5254C96.4258 16.4277 96.543 16.3496 96.6797 16.291C96.8164 16.2324 97.0215 16.2031 97.2949 16.2031C97.6074 16.2031 97.9004 16.2812 98.1738 16.4375C98.4473 16.5742 98.584 16.8086 98.584 17.1406C98.584 17.5898 98.3789 18.1562 97.9688 18.8398C97.5781 19.5039 97.0898 20.1484 96.5039 20.7734C95.9375 21.3984 95.332 21.9355 94.6875 22.3848C94.043 22.8145 93.4766 23.0293 92.9883 23.0293C92.5195 23.0293 92.0605 22.9414 91.6113 22.7656C91.1816 22.5703 90.8008 22.3164 90.4688 22.0039C90.1562 21.6914 89.9023 21.3203 89.707 20.8906C89.5117 20.4609 89.4141 19.9922 89.4141 19.4844Z" fill="#CCCCCC"/>
</svg>
