<svg width="18" height="18" viewBox="0 0 18 18" fill="none" xmlns="http://www.w3.org/2000/svg">
<path d="M16.9062 0.40625H1.09375C0.713477 0.40625 0.40625 0.713477 0.40625 1.09375V16.9062C0.40625 17.2865 0.713477 17.5938 1.09375 17.5938H16.9062C17.2865 17.5938 17.5938 17.2865 17.5938 16.9062V1.09375C17.5938 0.713477 17.2865 0.40625 16.9062 0.40625ZM13.6256 6.63027C13.632 6.73125 13.632 6.83652 13.632 6.93965C13.632 10.0936 11.2301 13.7266 6.84082 13.7266C5.4873 13.7266 4.23262 13.3334 3.17559 12.6566C3.36895 12.6781 3.55371 12.6867 3.75137 12.6867C4.86856 12.6867 5.89551 12.3086 6.71406 11.6684C5.66563 11.6469 4.78477 10.9594 4.48398 10.0141C4.85137 10.0678 5.18223 10.0678 5.56035 9.97109C5.02051 9.86142 4.53528 9.56822 4.18711 9.14133C3.83893 8.71444 3.64929 8.18017 3.65039 7.6293V7.59922C3.96621 7.77754 4.33789 7.88711 4.72676 7.90215C4.39986 7.68429 4.13177 7.38912 3.94625 7.04284C3.76074 6.69655 3.66355 6.30984 3.66328 5.91699C3.66328 5.47227 3.7793 5.06621 3.9877 4.71387C4.5869 5.4515 5.33462 6.0548 6.18225 6.48454C7.02988 6.91427 7.95845 7.16084 8.90762 7.2082C8.57031 5.58613 9.78203 4.27344 11.2387 4.27344C11.9262 4.27344 12.5449 4.56133 12.9811 5.02539C13.5203 4.92441 14.0359 4.72246 14.4957 4.45176C14.3174 5.00391 13.9436 5.47012 13.4473 5.76445C13.9285 5.71289 14.3926 5.57969 14.8223 5.39277C14.4979 5.86973 14.0918 6.29297 13.6256 6.63027Z" fill="url(#paint0_linear_1439_207)"/>
<defs>
<linearGradient id="paint0_linear_1439_207" x1="0.40625" y1="0.40625" x2="18.3286" y2="1.02094" gradientUnits="userSpaceOnUse">
<stop stop-color="#8E2DE2"/>
<stop stop-color="#8E2DE2"/>
<stop offset="0.9997" stop-color="#4D02E0"/>
<stop offset="0.9998" stop-color="#4C02E0"/>
<stop offset="0.9999" stop-color="#4B01E0" stop-opacity="0.0421169"/>
<stop offset="1" stop-color="#4A00E0" stop-opacity="0"/>
<stop offset="1" stop-color="#4A00E0"/>
<stop offset="1" stop-color="#4D02E0"/>
</linearGradient>
</defs>
</svg>
