<svg width="18" height="18" viewBox="0 0 18 18" fill="none" xmlns="http://www.w3.org/2000/svg">
<path d="M9.00001 6.13631C7.42306 6.13631 6.13614 7.42322 6.13614 9.00017C6.13614 10.5771 7.42306 11.864 9.00001 11.864C10.577 11.864 11.8639 10.5771 11.8639 9.00017C11.8639 7.42322 10.577 6.13631 9.00001 6.13631ZM17.5895 9.00017C17.5895 7.81424 17.6002 6.63904 17.5336 5.45525C17.467 4.08025 17.1533 2.85994 16.1479 1.85447C15.1402 0.846855 13.9221 0.535331 12.5471 0.46873C11.3611 0.402128 10.1859 0.41287 9.00216 0.41287C7.81622 0.41287 6.64103 0.402128 5.45724 0.46873C4.08224 0.535331 2.86192 0.849003 1.85646 1.85447C0.848839 2.86209 0.537315 4.08025 0.470713 5.45525C0.404112 6.64119 0.414854 7.81638 0.414854 9.00017C0.414854 10.184 0.404112 11.3613 0.470713 12.5451C0.537315 13.9201 0.850987 15.1404 1.85646 16.1459C2.86407 17.1535 4.08224 17.465 5.45724 17.5316C6.64318 17.5982 7.81837 17.5875 9.00216 17.5875C10.1881 17.5875 11.3633 17.5982 12.5471 17.5316C13.9221 17.465 15.1424 17.1513 16.1479 16.1459C17.1555 15.1383 17.467 13.9201 17.5336 12.5451C17.6024 11.3613 17.5895 10.1861 17.5895 9.00017ZM9.00001 13.4066C6.56153 13.4066 4.59357 11.4386 4.59357 9.00017C4.59357 6.5617 6.56153 4.59373 9.00001 4.59373C11.4385 4.59373 13.4065 6.5617 13.4065 9.00017C13.4065 11.4386 11.4385 13.4066 9.00001 13.4066ZM13.5869 5.44236C13.0176 5.44236 12.5578 4.9826 12.5578 4.41326C12.5578 3.84392 13.0176 3.38416 13.5869 3.38416C14.1563 3.38416 14.616 3.84392 14.616 4.41326C14.6162 4.54845 14.5897 4.68235 14.538 4.80728C14.4864 4.93221 14.4106 5.04573 14.315 5.14132C14.2194 5.23692 14.1059 5.31271 13.9809 5.36437C13.856 5.41603 13.7221 5.44253 13.5869 5.44236Z" fill="url(#paint0_linear_1439_202)"/>
<defs>
<linearGradient id="paint0_linear_1439_202" x1="0.414215" y1="0.412231" x2="18.3248" y2="1.02652" gradientUnits="userSpaceOnUse">
<stop stop-color="#8E2DE2"/>
<stop stop-color="#8E2DE2"/>
<stop offset="0.9997" stop-color="#4D02E0"/>
<stop offset="0.9998" stop-color="#4C02E0"/>
<stop offset="0.9999" stop-color="#4B01E0" stop-opacity="0.0421169"/>
<stop offset="1" stop-color="#4A00E0" stop-opacity="0"/>
<stop offset="1" stop-color="#4A00E0"/>
<stop offset="1" stop-color="#4D02E0"/>
</linearGradient>
</defs>
</svg>
